<svg width="20" height="18" viewBox="0 0 20 18" fill="none" xmlns="http://www.w3.org/2000/svg">
<path d="M1.05882 7.31373V6.31373C0.760185 6.31373 0.477175 6.4472 0.287213 6.67763C0.0972503 6.90806 0.0202174 7.21134 0.0771866 7.50449L1.05882 7.31373ZM18.9412 7.31373L19.9228 7.50449C19.9798 7.21134 19.9027 6.90806 19.7128 6.67763C19.5228 6.4472 19.2398 6.31373 18.9412 6.31373V7.31373ZM17.3733 15.3815L18.355 15.5723L17.3733 15.3815ZM3.60829 15.1908L2.04046 7.12296L0.0771866 7.50449L1.64502 15.5723L3.60829 15.1908ZM17.9595 7.12296L16.3917 15.1908L18.355 15.5723L19.9228 7.50449L17.9595 7.12296ZM15.4101 16H4.58993V18H15.4101V16ZM1.05882 8.31373H5.7647V6.31373H1.05882V8.31373ZM5.7647 7.31373C6.76194 7.2394 6.76196 7.23974 6.76199 7.24005C6.76199 7.24012 6.76201 7.24041 6.76202 7.24056C6.76205 7.24085 6.76206 7.24105 6.76207 7.24116C6.76208 7.24137 6.76207 7.24121 6.76204 7.24069C6.76196 7.23965 6.76179 7.23714 6.76155 7.23322C6.76106 7.22539 6.76027 7.21192 6.75934 7.19319C6.75747 7.15572 6.75507 7.09736 6.75345 7.02114C6.7502 6.86839 6.75011 6.64569 6.76347 6.37683C6.79048 5.8332 6.87114 5.12957 7.07596 4.44257C7.28237 3.75025 7.59573 3.13891 8.04485 2.70851C8.46993 2.30113 9.07238 2 10 2V0C8.57467 0 7.47124 0.488081 6.66103 1.26453C5.87485 2.01796 5.42351 2.98505 5.15933 3.87115C4.89356 4.76259 4.79775 5.63739 4.76594 6.27758C4.74988 6.60063 4.7498 6.87119 4.7539 7.06372C4.75595 7.16014 4.75907 7.23744 4.7618 7.29245C4.76317 7.31997 4.76444 7.34195 4.76545 7.358C4.76595 7.36603 4.76638 7.37258 4.76673 7.37761C4.7669 7.38012 4.76705 7.38225 4.76717 7.38399C4.76724 7.38486 4.76729 7.38564 4.76734 7.38632C4.76737 7.38665 4.7674 7.38709 4.76741 7.38726C4.76744 7.38767 4.76747 7.38805 5.7647 7.31373ZM5.7647 8.31373H14.2353V6.31373H5.7647V8.31373ZM14.2353 8.31373H18.9412V6.31373H14.2353V8.31373ZM10 2C10.9276 2 11.5301 2.30113 11.9552 2.70851C12.4043 3.13891 12.7176 3.75025 12.924 4.44257C13.1289 5.12956 13.2095 5.8332 13.2365 6.37683C13.2499 6.64569 13.2498 6.86839 13.2465 7.02114C13.2449 7.09736 13.2425 7.15572 13.2407 7.19319C13.2397 7.21192 13.2389 7.22539 13.2384 7.23322C13.2382 7.23714 13.238 7.23965 13.238 7.24069C13.2379 7.24121 13.2379 7.24137 13.2379 7.24116C13.2379 7.24105 13.238 7.24085 13.238 7.24056C13.238 7.24041 13.238 7.24012 13.238 7.24005C13.238 7.23974 13.2381 7.2394 14.2353 7.31373C15.2325 7.38805 15.2326 7.38767 15.2326 7.38726C15.2326 7.38709 15.2326 7.38665 15.2327 7.38632C15.2327 7.38564 15.2328 7.38486 15.2328 7.38399C15.2329 7.38225 15.2331 7.38012 15.2333 7.37761C15.2336 7.37258 15.234 7.36603 15.2345 7.35801C15.2356 7.34195 15.2368 7.31997 15.2382 7.29245C15.2409 7.23744 15.244 7.16014 15.2461 7.06372C15.2502 6.87119 15.2501 6.60063 15.2341 6.27758C15.2022 5.63739 15.1064 4.76259 14.8407 3.87115C14.5765 2.98505 14.1251 2.01796 13.339 1.26453C12.5288 0.488081 11.4253 0 10 0V2ZM16.3917 15.1908C16.3004 15.6607 15.8888 16 15.4101 16V18C16.8463 18 18.081 16.9821 18.355 15.5723L16.3917 15.1908ZM1.64502 15.5723C1.91899 16.9821 3.15373 18 4.58993 18V16C4.11119 16 3.69962 15.6607 3.60829 15.1908L1.64502 15.5723Z" fill="#342EAD"/>
</svg>
