<svg width="170" height="154" viewBox="0 0 170 154" fill="none" xmlns="http://www.w3.org/2000/svg">
<path fill-rule="evenodd" clip-rule="evenodd" d="M169.225 80.4251C169.164 80.5944 169.012 81.0191 168.819 81.5535C168.989 81.6357 169.173 81.7233 169.429 81.8464C169.559 82.3186 170.277 82.8182 169.841 83.4569C169.447 84.0315 170.486 84.6388 169.692 85.1049C169.827 86.3102 168.978 87.1797 168.419 88.0217C167.912 88.7855 167.789 89.7393 167.021 90.4027C166.355 90.9799 165.979 91.8956 165.474 92.6647C165.034 92.6848 164.625 92.7022 164.058 92.7276C164.161 93.054 164.237 93.2988 164.358 93.6847C164.206 93.8559 163.955 94.1388 163.684 94.4451C163.852 94.9601 164.009 95.4444 164.194 96.0129C163.931 96.3132 163.669 96.6115 163.384 96.9372C163.608 97.0175 163.819 97.0924 164.178 97.2201C163.768 97.5111 163.43 97.7505 163.076 98.002C163.145 98.0829 163.252 98.208 163.42 98.4039C162.213 98.8534 161.137 97.7712 159.805 98.2943C158.983 98.8875 158.372 100.098 157.15 100.546C156.679 100.719 157.082 101.583 156.274 101.481C155.986 101.445 156.199 102.371 155.525 102.191C155.273 103.03 154.525 103.367 153.934 103.895C153.444 104.332 152.997 104.903 152.602 105.473C152.273 105.948 151.922 106.408 151.573 106.87C151.258 107.288 150.889 107.673 150.629 108.122C150.408 108.505 150.427 109.16 150.129 109.333C149.727 109.566 149.453 109.818 149.368 110.359C148.973 110.123 148.732 109.98 148.49 109.836C147.736 110.204 146.981 110.555 146.231 109.633V107.718C144.788 106.905 143.28 106.196 142.604 104.359C142.657 103.753 142.363 102.894 142.946 102.185C142.099 100.494 142.835 99.0627 143.65 97.6528C144.631 95.956 145.918 94.5073 147.428 93.173C146.541 91.8414 145.613 90.6007 144.856 89.2637C144.336 88.3441 143.761 87.3408 143.732 86.2888C143.703 85.1986 143.36 84.0609 144.01 82.9553C144.3 82.4604 144.021 81.7434 144.347 81.0913C144.542 80.6994 144.663 80.264 144.964 79.8881C145.127 79.6854 145.119 79.3463 145.253 78.8086C145.553 78.5297 146.306 78.1538 146.464 77.608C146.691 76.8148 147.706 77.1171 147.692 76.1895C147.954 76.3881 148.07 76.4764 148.251 76.6135C148.671 76.4891 149.146 76.3486 149.642 76.2028C149.822 76.5453 149.974 76.8322 150.158 77.1813C149.795 77.8388 149.398 78.5571 148.942 79.3824C149.844 79.2935 150.54 79.2239 151.135 79.1651C151.377 79.4079 151.507 79.5363 151.65 79.6794C151.406 80.1569 151.161 80.6398 150.837 81.2772C151.409 81.3361 151.853 81.3816 152.403 81.4378C152.268 82.0825 152.133 82.7293 151.999 83.3653C151.767 83.5727 151.515 83.7974 151.256 84.0288C151.42 84.1927 151.488 84.2803 151.503 84.2716C151.741 84.1398 151.973 83.996 152.256 83.8248C152.351 84.0803 152.411 84.2375 152.488 84.4408C151.971 84.7023 151.48 84.9511 150.921 85.234C151.18 85.321 151.386 85.3899 151.767 85.5169C151.333 85.9523 150.947 86.3389 150.444 86.8439C151.085 87.3502 151.654 87.7997 152.263 88.2812C153.161 88.4518 153.882 88.0732 154.587 87.4632C156.22 86.054 158.014 84.824 159.623 83.4075C161.269 81.9568 163.021 80.5355 164.194 78.5919C164.468 78.1371 164.949 77.808 165.363 77.3947H167.283C167.388 77.5278 167.568 77.7572 167.756 77.9926C167.546 78.5912 167.33 79.2079 167.049 80.0091C167.631 79.8493 168.104 79.7195 168.718 79.5503C168.815 79.7175 168.966 79.9777 169.225 80.4251Z" fill="#251FA0"/>
<path fill-rule="evenodd" clip-rule="evenodd" d="M53.4703 118.839C52.8784 119.022 52.3922 119.173 51.7635 119.368C51.9166 119.039 52.0176 118.823 52.1454 118.548C51.7267 117.917 51.2532 117.353 50.387 117.478C50.3201 117.222 50.2773 117.058 50.2171 116.829H48.7103C48.5598 116.678 48.4294 116.607 48.3953 116.504C48.1645 115.808 48.1157 114.982 47.697 114.436C47.1579 113.734 47.4261 113.046 47.4014 112.367C47.3806 111.815 47.6034 111.25 47.7391 110.696C48.226 108.716 48.9791 106.833 49.9382 105.043C50.5288 103.942 51.1903 102.87 51.9153 101.853C52.6236 100.859 53.4536 99.9511 54.2542 98.9753C54.0368 98.8361 53.7987 98.6743 53.5513 98.5278C51.1589 97.1126 49.0634 95.3308 47.1205 93.3551C46.2035 92.4227 46.1981 91.1714 45.9306 90.0196C45.8229 89.5588 45.9132 89.0512 45.9132 88.5649C46.4035 87.6299 47.3913 87.551 48.3498 87.1698C48.6728 87.7383 49.0046 88.3228 49.3791 88.9803C49.4446 88.9321 49.5583 88.8485 49.7623 88.698C49.8874 88.8224 50.1075 88.9422 50.169 89.1181C50.5502 90.2022 51.4357 90.754 52.3768 91.2235C54.2916 92.1806 56.2239 93.1003 58.2799 94.0988C58.7608 93.5905 59.2417 92.8107 59.9399 92.4207C60.5833 92.0609 60.6168 91.0316 61.62 91.1306C61.4769 90.9547 61.3772 90.8323 61.2287 90.6503C61.5364 90.435 61.8481 90.2169 62.2822 89.9133C62.4193 89.611 62.6286 89.1502 62.8333 88.6987C63.1436 88.6806 63.4319 88.6639 63.8472 88.6398C63.6706 88.4124 63.5783 88.2941 63.4352 88.1095C64.2097 87.9964 64.2612 87.1945 64.7488 86.7638C65.2638 86.3083 65.6283 85.683 66.1165 85.0569C66.2249 85.1365 66.3379 85.2195 66.5533 85.378C66.6483 85.1546 66.7372 84.9439 66.8489 84.6797C66.9807 84.7861 67.1024 84.8837 67.3218 85.0616C67.5605 83.7808 68.2869 82.7535 69.0587 81.8298C69.854 80.8774 70.5689 79.7839 71.8705 79.1465C72.0337 79.2809 72.2524 79.4608 72.4998 79.6642C71.9855 80.652 71.4872 81.6312 70.4332 82.1469V83.6056C70.6826 83.5447 70.9361 83.5561 70.989 83.4584C71.2003 83.0645 71.3495 82.6371 71.4331 82.4358C72.2999 81.7215 73.0082 81.1383 73.9017 80.4025C73.9525 81.0841 73.9847 81.5289 74.0168 81.9556C73.7445 82.0673 73.5372 82.1522 73.3192 82.2418C73.3753 82.3201 73.4456 82.4712 73.483 82.4632C73.9258 82.3722 74.3639 82.2572 74.9023 82.1241C75.0548 82.393 75.2407 82.72 75.428 83.0491C75.3277 83.1608 75.2079 83.2932 75.0789 83.4364C75.1551 83.9647 75.7905 84.4309 75.2989 85.0362C75.1558 84.9071 75.0287 84.7921 74.8989 84.6737C74.8387 84.7867 74.7217 84.9064 74.7458 84.982C74.8127 85.196 74.9377 85.392 75.0782 85.6689C74.9779 86.5952 74.2375 87.2106 73.5506 87.8359C72.9005 88.4278 72.1855 88.9475 71.3495 89.6183C71.6932 89.8156 71.9922 89.9882 72.3286 90.1822C72.1186 90.5855 71.9915 90.8289 71.8578 91.0844C71.9354 91.1707 72.0517 91.2978 72.2323 91.4971C71.8357 91.5606 71.5013 91.6148 71.0217 91.693C71.1522 92.0255 71.2639 92.3084 71.3929 92.6368H70.1783C69.9529 93.0989 69.7563 93.5022 69.569 93.8861C69.7429 94.0734 69.8647 94.2045 70.0399 94.3931C69.6674 94.462 69.3336 94.5242 68.848 94.6152C68.9658 94.9255 69.0734 95.2051 69.1998 95.5375C68.8882 95.5836 68.5524 95.6331 68.115 95.6973C68.2434 96.0438 68.3478 96.3247 68.5203 96.7902C68.0454 96.6056 67.6997 96.4712 67.2823 96.3093C67.0857 96.6838 66.885 97.0664 66.6897 97.4383C66.7593 97.5707 66.7867 97.7159 66.869 97.7607C67.0141 97.8396 67.2101 97.8249 67.3539 97.9051C67.9124 98.2168 68.0428 98.9391 68.5919 99.2488C69.1838 99.5832 69.4413 100.157 69.8185 100.668C70.1583 101.128 70.4104 101.516 70.3723 102.099C70.3589 102.298 70.5368 102.509 70.6472 102.759C70.5509 102.923 70.4131 103.156 70.2252 103.476C69.7322 103.533 69.3737 104.193 68.4742 103.844C66.9031 103.235 65.2678 102.689 63.5616 102.484C63.4666 102.473 63.3884 102.321 63.2332 102.166C62.7343 102.729 62.2387 103.287 61.6167 103.989C61.6086 104.055 61.5752 104.342 61.5384 104.652C61.1893 104.706 60.8549 104.759 60.3352 104.841C60.6783 105.322 60.9345 105.682 61.3164 106.219C60.885 106.092 60.5974 106.009 60.2322 105.902C60.1566 105.991 60.0034 106.173 59.8369 106.369C60.0483 106.953 59.8784 107.31 59.1942 107.699C58.9895 108.435 58.7929 109.141 58.629 109.731C58.32 109.845 58.1474 109.909 57.9247 109.991L58.324 110.39C57.7789 110.808 57.1536 111.145 56.7309 111.652C56.349 112.109 56.1898 112.751 55.8928 113.399C55.9216 113.443 56.0413 113.622 56.2313 113.906C55.8293 114.32 55.4347 114.727 55.0548 115.117C55.2026 115.302 55.3116 115.438 55.5002 115.673C55.232 115.98 54.9685 116.281 54.6749 116.616V117.679C54.2442 118.094 53.8074 118.514 53.4703 118.839Z" fill="#251FA0"/>
<path fill-rule="evenodd" clip-rule="evenodd" d="M98.327 126.108C99.1697 127.128 99.1704 127.13 100.193 126.564C100.222 126.891 100.212 127.175 100.282 127.437C100.332 127.623 100.49 127.78 100.592 127.938C100.462 128.069 100.376 128.154 100.266 128.264C100.521 128.383 100.764 128.497 101.163 128.684C100.748 129.275 100.357 129.831 99.9663 130.388C100.47 131.294 99.4044 131.454 99.2513 131.939C99.0152 132.688 98.1042 132.849 98.0782 133.65C98.0481 134.584 97.0903 134.699 96.6743 135.243C96.3131 135.715 95.671 136.024 95.5881 136.628C95.7319 136.874 95.8456 137.068 96.0322 137.389C95.4925 137.694 95.0223 137.961 94.5507 138.228L93.4131 138.765C93.0673 139.173 92.7215 139.581 92.2593 140.126V140.483C91.0949 141.339 90.0074 142.139 88.7446 143.068C89.1058 143.252 89.3245 143.363 89.687 143.549C89.1854 144.25 88.6778 144.961 88.132 145.724C89.5332 146.201 90.8515 146.651 92.2112 147.116C92.0767 147.386 91.963 147.614 91.8092 147.923C92.4152 148.139 92.9817 148.341 93.6284 148.572V149.365C94.0351 149.739 94.3916 150.066 94.7608 150.406C94.7835 150.834 94.8042 151.244 94.825 151.635L95.4864 152.296L93.8083 153.692C93.4131 154.132 93.0011 154.051 92.5583 153.757C92.4239 153.668 92.2353 153.617 92.0721 153.621C90.1886 153.662 88.4865 152.945 86.7729 152.318C85.5088 151.857 84.2922 151.266 82.9813 150.702C82.6235 151.058 82.0664 151.329 81.9948 152.064C81.2377 152.243 80.4612 152.428 79.7348 152.6C79.3603 152.221 79.0613 151.918 78.7617 151.615C78.8754 151.489 78.9931 151.359 79.167 151.167C78.9864 150.791 78.7918 150.387 78.6754 150.146C78.1116 150.233 77.6127 150.311 77.1257 150.385C76.8562 149.853 76.6141 149.372 76.366 148.881C76.2449 149.002 76.1593 149.087 76.1279 149.119C75.7245 148.709 75.3179 148.296 74.7561 147.726C74.9306 146.461 74.1207 145.007 74.3381 143.436C74.3842 143.107 74.1321 142.631 73.8665 142.382C72.7904 141.372 72.7442 139.913 72.2386 138.671C72.0453 138.197 71.8393 137.595 71.8226 137.022C71.7945 136.111 71.6882 135.176 71.844 134.292C72.0901 132.894 72.355 131.402 73.9836 130.852C74.522 130.67 75.1146 130.65 75.8242 130.532V133.376C76.4415 132.979 76.8549 132.713 77.4715 132.316C77.5571 132.567 77.6601 132.867 77.7618 133.166C77.8534 133.097 77.9451 133.027 78.0367 132.958V134.636C78.3504 134.477 78.5771 134.362 78.7911 134.253C79.565 134.93 79.5449 135.796 79.4379 136.688C79.6967 136.779 79.9074 136.854 80.2452 136.973C80.1014 137.364 79.9576 137.752 79.7837 138.221C79.9944 138.183 80.1 138.194 80.1589 138.147C80.3007 138.034 80.3983 137.834 80.5535 137.775C82.1112 137.183 82.8951 135.527 84.4588 134.951C84.7731 133.819 85.967 133.577 86.6646 132.814C87.3903 132.021 88.4142 131.504 89.2897 130.843C90.1371 130.202 90.6147 129.123 91.7203 128.784C92.4466 127.461 93.492 126.459 94.7929 125.712C94.7474 124.816 95.9794 124.705 95.9506 123.761H97.5953C97.713 123.878 97.8849 124.05 98.0568 124.222C97.2695 124.613 96.9819 125.374 96.4783 126.178C97.5678 126.403 98.1952 125.077 99.2219 125.689C98.9249 125.828 98.6821 125.942 98.327 126.108Z" fill="#251FA0"/>
<path fill-rule="evenodd" clip-rule="evenodd" d="M94.0961 106.83C94.0112 105.977 95.2111 105.884 94.6426 105.089C94.4974 105.219 94.3684 105.333 94.2393 105.448C94.1965 105.404 94.1222 105.366 94.1149 105.318C93.9798 104.424 94.0339 103.577 94.668 102.849C95.3656 102.049 96.0572 101.242 96.726 100.418C96.9373 100.158 97.0678 99.8321 97.2758 99.4656C96.9454 98.6048 96.4926 97.7126 96.0993 96.8257C95.6773 95.8733 95.6866 94.8406 95.2278 93.8982C94.9837 93.398 95.6204 92.5198 95.4713 91.9071C95.3034 91.2216 94.8987 90.6384 95.49 89.9923C95.502 88.1851 96.7307 87.0588 97.8055 85.8041H100.844C101.022 85.9726 101.198 86.1398 101.483 86.4094C101.021 86.9986 100.558 87.5878 100.046 88.24C100.103 88.3617 100.24 88.6526 100.423 89.0425C100.594 89.0425 100.922 89.1409 101.039 89.0252C101.547 88.5269 102.133 88.7282 102.668 88.6693C102.865 89.0967 103.03 89.4539 103.213 89.8505C102.939 90.1929 102.656 90.5467 102.226 91.0825C102.876 91.1654 103.311 91.2209 103.884 91.2938V93.0421C105.116 93.0823 105.251 91.5901 106.288 91.5961C106.759 90.8792 107.446 90.3802 108.065 89.8084C108.778 89.1496 109.457 88.4513 110.13 87.7497C110.749 87.1029 111.378 86.4589 111.934 85.7606C112.507 85.0409 112.999 84.2571 113.33 83.7822C114.084 83.512 114.509 83.3595 115.036 83.1709C115.208 83.4164 115.491 83.6658 115.564 83.9661C115.619 84.1969 115.435 84.5039 115.311 84.7533C115.17 85.0369 114.977 85.2938 114.979 85.7927C115.511 85.5687 116.042 85.3439 116.628 85.0971C116.94 85.7058 117.274 86.3572 117.781 87.3451C117.781 87.3243 117.752 87.6835 117.791 88.0346C117.822 88.3075 117.938 88.571 118.04 88.9208C117.968 89.0466 117.836 89.2793 117.713 89.4947C117.897 89.6933 118.019 89.8251 118.129 89.9421C117.072 91.6343 116.121 93.3859 114.962 95.0239C113.988 96.399 114.125 96.4953 113.412 96.8846C113.526 97.011 113.641 97.1381 113.733 97.2404C112.29 98.8576 110.858 100.462 109.406 102.091V102.696C110.547 103.423 111.651 104.126 112.805 104.861C112.638 105.189 112.536 105.389 112.378 105.7C112.815 106.076 113.108 106.797 113.954 106.531C114.139 106.899 114.29 107.199 114.439 107.495C114.332 107.643 114.2 107.827 114.019 108.079C114.476 108.538 114.887 108.949 115.331 109.394C115.162 109.829 115.018 110.2 114.858 110.612C114.975 110.812 115.115 111.054 115.245 111.277C115.181 111.416 115.161 111.559 115.081 111.612C114.902 111.729 114.639 111.751 114.507 111.9C113.723 112.785 113.582 112.835 112.596 112.498C111.318 112.061 109.945 111.804 108.778 111.167C107.214 110.313 105.809 109.17 104.193 108.052C103.515 108.554 102.754 109.242 102.021 110.025C101.312 110.783 100.378 111.383 99.0789 111.77C99.3077 111.392 99.4013 111.238 99.604 110.901C98.79 111.052 98.1071 111.179 97.4249 111.307L97.3079 111.072C97.7185 110.751 98.1285 110.432 98.5392 110.112L97.9045 109.477H96.6591C96.4932 109.061 96.3086 108.594 96.0906 108.045H94.579C94.371 107.522 94.1844 107.052 94.0961 106.83Z" fill="#251FA0"/>
<path fill-rule="evenodd" clip-rule="evenodd" d="M102.008 71.0394C101.382 71.1892 100.83 71.3217 100.051 71.5083C99.2522 70.9177 98.2965 70.182 97.3099 69.4917C96.1335 68.6684 95.1115 67.6197 93.7685 67.0398C93.4575 66.9054 93.1311 66.8084 92.699 66.6532C92.1753 65.8687 92.1145 64.412 90.5782 64.5725C89.8833 63.9371 89.7983 62.8336 88.7824 62.7265C88.45 62.16 88.24 61.512 87.8032 61.1073C85.8094 59.258 84.3668 57.0368 83.1261 54.3568C83.0184 53.5295 83.0177 52.4266 82.8392 51.3203C82.5583 49.578 83.4866 48.0819 84.9955 47.1161C85.4121 46.8499 85.6268 46.2647 86.3191 46.3269C86.8006 46.3703 87.3089 46.1142 87.9483 45.957C88.1376 46.1255 88.3884 46.3483 88.7048 46.6292C88.1905 47.4926 87.218 48.0377 87.1444 49.1975C88.2888 49.5794 88.8018 48.3079 89.9535 48.1615C90.0939 48.2872 90.3434 48.5092 90.5775 48.7193C90.1695 49.3312 89.8946 49.7432 89.3883 50.5024C90.1755 50.2536 90.7354 50.2495 90.942 49.9773C91.4644 49.2884 92.3091 49.0122 92.7994 48.2457C93.2562 47.5321 94.0053 47.0004 94.7711 46.5028C95.8539 45.7998 96.7314 44.7892 97.7467 43.9719C99.2388 42.7707 100.637 41.4544 102.299 40.4559C102.957 40.0619 103.443 39.3757 103.989 38.8039C104.485 38.2835 105.274 38.0561 105.43 37.2803H107.883V38.8627C107.815 38.9309 107.579 39.1664 107.296 39.4506C107.621 39.3924 107.945 39.3463 108.263 39.2741C108.587 39.2005 108.905 39.1015 109.396 38.9671C109.321 40.1449 109.378 41.1876 110.229 41.9474C110.05 42.1888 109.947 42.3266 109.741 42.6055C110.001 42.7486 110.302 42.9132 110.862 43.2201C110.285 43.378 110.089 43.4315 109.822 43.5051C109.923 43.7378 110.06 43.9552 110.109 44.1913C110.159 44.424 110.121 44.6748 110.121 44.9136C109.445 45.842 108.768 46.7703 108.025 47.7896C107.888 47.805 107.601 47.8364 107.178 47.8826C107.306 48.0591 107.385 48.1695 107.489 48.3126C107.38 48.5735 107.259 48.8631 107.123 49.1854C105.518 49.1078 105.506 50.7619 104.514 51.4059C104.724 51.6822 104.828 51.8193 104.876 51.8821C104.216 52.543 103.549 53.2091 102.877 53.8813C102.931 53.9308 102.845 53.8525 102.882 53.886C102.582 54.1849 102.273 54.4939 101.964 54.8036C101.864 54.7253 101.764 54.6478 101.664 54.5695V55.5299C101.452 55.3554 101.329 55.2537 101.053 55.027C101.114 55.4363 101.154 55.7085 101.211 56.0911C100.756 56.681 100.208 57.3906 99.6147 58.1598C99.3479 57.9645 99.1659 57.83 99.0041 57.711C98.3473 58.4788 97.6738 59.266 96.9943 60.0606C97.2558 60.191 97.4972 60.3107 97.849 60.4853C97.5213 60.9006 97.2397 61.2578 96.9755 61.5929C97.0183 61.7407 97.0183 61.8771 97.0859 61.9534C98.1968 63.1987 99.5144 64.3123 100.381 65.7075C101.356 67.2786 102.576 68.9005 102.008 71.0394Z" fill="#251FA0"/>
<path fill-rule="evenodd" clip-rule="evenodd" d="M127.316 44.6681C127.428 44.5558 127.514 44.4695 127.603 44.3805C127.538 44.2963 127.482 44.1993 127.404 44.1277C126.931 43.6963 126.334 43.3265 125.951 42.9038C125.576 42.4904 125.156 42.1754 124.776 41.7969C124.271 41.2932 123.708 40.5722 123.681 39.9241C123.634 38.7644 123.563 37.6013 123.839 36.386C124.314 34.2879 125.413 32.6994 126.869 31.2501C128.716 29.4101 130.557 27.5642 132.496 25.6259C131.76 24.9925 131.722 23.7967 130.557 23.5639C130.068 22.6122 129.58 21.6604 129.091 20.7087C128.639 19.8305 128.72 18.8828 128.725 17.9444C128.729 17.2762 128.726 16.6081 128.726 15.9399C129.341 15.1554 129.955 14.3708 130.56 13.6004H133.599C133.112 14.4317 132.695 15.1427 132.286 15.8409C133.41 16.6569 133.823 14.8892 134.81 15.4283C135.426 16.2717 134.279 16.6689 133.916 17.4849C134.617 17.317 135.024 17.2187 135.523 17.099C135.818 17.9658 135.671 18.7243 135.204 19.5389C135.453 19.6359 135.649 19.7121 135.945 19.8265C136.155 20.0525 135.718 20.0853 135.644 20.4184C135.937 20.8665 136.293 21.4123 136.734 22.0871C139.744 18.9289 143.581 16.8121 145.928 13.2051H147.758C147.617 13.807 147.494 14.3327 147.326 15.0517C147.834 14.8725 148.225 14.7347 148.762 14.5454V15.9607C149.054 16.0376 149.219 16.0804 149.384 16.1238C149.43 16.2262 149.502 16.3258 149.515 16.4322C149.537 16.6114 149.491 16.8014 149.525 16.9773C149.897 18.8714 148.953 20.3743 147.964 21.7935C146.893 23.3291 145.651 24.7451 144.395 26.3242C145.291 27.4003 146.724 27.9233 147.986 28.9279C148.009 29.0938 148.047 29.3734 148.092 29.6951C148.426 30.1131 148.967 30.5177 149.12 31.0367C149.456 32.1744 150.286 33.2338 149.722 34.7026C149.584 34.7655 149.281 34.9146 148.97 35.047C148.659 35.1788 148.343 35.2925 147.99 35.4296C147.507 34.9387 146.417 35.0945 146.563 34.1388C145.449 33.8171 144.47 33.5335 143.52 33.2586C143.303 32.8807 143.105 32.5382 142.883 32.151H140.868C140.817 31.9336 140.778 31.7691 140.73 31.5658C139.984 30.9926 139.358 31.6674 138.923 31.7838C138.328 32.474 137.872 33.0024 137.369 33.585C137.224 33.4753 137.109 33.387 136.908 33.2352C136.693 33.5395 136.46 33.8672 136.178 34.2665C136.14 34.2177 136.232 34.3361 136.367 34.5113C135.522 34.7233 135.448 35.5727 135.077 36.2717C134.784 36.0917 134.592 35.9734 134.298 35.7921C134.248 36.1065 134.199 36.4141 134.14 36.778C134.015 36.8121 133.851 36.8562 133.558 36.9358C133.479 37.6749 133.374 38.5751 132.279 38.3296C131.911 38.8065 131.294 39.25 131.337 39.6191C131.462 40.7287 130.533 41.2591 130.28 42.1266C130.16 43.2228 130.177 43.2221 130.517 43.9545C129.723 44.5872 128.827 45.0133 127.798 45.2761C127.663 45.1062 127.513 44.9176 127.316 44.6681Z" fill="#251FA0"/>
<path fill-rule="evenodd" clip-rule="evenodd" d="M20.6438 24.0607C20.1897 24.1169 19.9161 24.151 19.571 24.1938C19.781 24.4266 19.9007 24.5583 20.092 24.7703C19.6392 25.6124 18.7811 26.1174 18.1992 26.8537L18.4842 27.1387C18.0207 27.5025 17.5565 27.8663 17.1619 28.176C16.9438 28.7505 17.4094 29.3986 16.6422 29.7544C17.3217 30.2099 17.9431 30.6166 18.5537 31.0379C20.4686 32.3609 22.5165 33.4959 24.095 35.2776C24.9992 36.2976 25.8506 37.2835 25.8667 38.7482C25.8694 38.995 26.1202 39.2384 26.3202 39.6003C25.7697 39.9487 25.254 40.2745 24.608 40.6831C20.9675 38.5502 17.204 36.6494 13.7522 33.8637C13.5047 34.0049 12.9643 34.1239 12.8647 34.4015C12.4694 35.501 11.6949 36.2729 10.9063 37.0601C10.81 37.1564 10.8461 37.3844 10.82 37.553C10.4823 37.5904 10.1954 37.6212 9.75728 37.6694C9.84155 37.9576 9.91311 38.2024 10.0382 38.6311C9.33592 39.219 8.81155 40.0939 8.53533 41.18C8.37481 41.8108 7.77019 42.3278 7.22844 43.0896V47.053C6.88332 47.0751 6.59572 47.0932 6.27 47.1139C6.19978 47.3112 6.12487 47.5226 6.03524 47.776H4.77785C4.58121 47.2062 4.37989 46.6216 4.14714 45.9481C3.79734 46.102 3.44821 46.2551 3.0322 46.4377C2.94659 46.1729 2.87904 45.9655 2.81149 45.7582C2.70849 45.7154 2.59479 45.6204 2.50182 45.6378C1.72999 45.7843 1.20162 45.1315 1.10664 44.7161C0.719391 43.0253 -0.374813 41.3533 0.675918 39.5381C0.695314 37.7403 1.81159 36.3685 2.4443 34.8048C2.65097 34.2945 3.53917 34.3841 3.2984 33.5026C3.19941 33.1401 3.85754 32.5655 4.18125 32.094C4.47487 31.6666 4.75109 31.2232 5.08885 30.8333C5.48547 30.3751 5.96836 29.9912 6.36163 29.5311C6.68869 29.1471 6.94084 28.6997 7.26121 28.2288C5.04471 26.5641 3.68899 24.1991 2.1353 21.994C1.63702 19.8605 0.776242 17.7884 1.11199 15.2903C1.62499 14.7011 2.28111 13.9467 2.98672 13.1367C3.76791 13.2972 4.64609 12.813 5.35973 13.627C4.89222 14.257 4.42805 14.8824 3.9592 15.5144C4.08828 15.6508 4.208 15.7793 4.32639 15.905C5.31625 16.1097 5.67876 14.669 6.71277 15.0028C6.8666 15.301 7.01976 15.6 7.18028 15.9104C6.86192 16.1143 6.49741 16.3484 6.11483 16.5932C6.34826 16.8273 6.52015 16.9992 6.69203 17.1711C7.20837 16.6367 7.70999 16.63 8.31662 17.361C8.26178 17.7684 8.57746 18.3569 7.96816 18.8311C8.22098 18.9529 8.46844 19.0719 8.82225 19.2411C8.53131 19.6324 8.27315 19.9788 8.00896 20.334C8.25509 20.4216 8.46644 20.4958 8.90853 20.653C8.50189 20.7627 8.30926 20.8142 7.97217 20.9052C8.00762 21.2015 7.93673 21.6068 8.10527 21.8335C8.80353 22.7725 9.57402 23.6574 10.4 24.6613C10.8548 24.2533 11.204 23.9497 11.5417 23.6347C13.5375 21.774 15.2076 19.5428 17.6829 18.2252C17.6695 17.5396 18.3872 17.5878 18.6962 17.2206C19.046 16.8052 19.4346 16.4227 19.6854 16.1545H20.9113C20.3555 16.9725 19.4085 17.4346 19.7175 18.6131C20.5094 18.1409 21.2845 17.6787 22.2289 17.1163C22.1447 17.656 22.0791 18.072 22.0055 18.5449C22.3359 18.7114 22.8269 18.9609 23.3539 19.2271C23.2181 19.5087 23.1044 19.7434 22.972 20.0183C23.1626 20.0584 23.3285 20.0925 23.5017 20.1287C23.5198 20.1996 23.5893 20.3206 23.5559 20.3654C23.1118 20.9647 22.5172 21.4944 22.2343 22.1586C21.8798 22.9919 21.0979 23.3671 20.6438 24.0607Z" fill="#251FA0"/>
<path fill-rule="evenodd" clip-rule="evenodd" d="M53.939 42.6783C55.3924 40.8952 56.6197 39.413 57.8215 37.9102C58.9599 36.4869 59.933 34.9499 60.8179 33.3748C60.7049 33.2351 60.5952 33.1 60.4072 32.8685C60.7162 32.5181 61.0219 32.1703 61.3463 31.8018H62.5482C62.9976 32.2512 63.3595 32.8926 63.8738 33.0565C64.5018 33.2558 64.5908 33.7581 64.8443 34.1333C65.7231 35.4328 66.3344 36.7518 65.6589 38.4452C65.2435 39.4866 64.8229 40.5286 64.3908 41.5653C64.261 41.8777 64.1661 42.2047 64.0009 42.6803L63.0799 43.6019V44.7496C62.3589 46.0558 61.7589 47.1447 61.1022 48.3352C62.0098 48.9519 62.8458 49.5465 63.7072 50.1016C65.4141 51.2018 66.826 52.5682 67.6694 54.4456C67.8506 54.8496 67.9336 55.2984 68.1222 55.9291C68.0573 56.0729 67.8988 56.4267 67.7236 56.8146C67.3477 56.9899 66.9417 57.1791 66.6247 57.3263C65.7672 57.03 65.0088 56.8086 64.2838 56.507C63.5581 56.206 62.8659 55.8248 62.1589 55.479C62.0385 54.4229 60.8346 54.8496 60.339 54.1313C59.9324 53.5414 59.0281 53.2959 58.2349 52.8338C55.8579 55.2589 53.7644 57.9082 51.8436 60.6985C51.6957 60.9125 51.7432 61.261 51.7004 61.5466C50.8631 62.1913 50.035 62.093 49.2044 61.5071V60.9273C48.1249 60.2805 47.1129 59.6745 46.006 59.0111C45.4763 58.3904 45.7458 57.4152 45.4007 56.6608C45.0162 55.8207 45.3412 55.0074 45.1954 54.3895C46.402 51.7001 47.8299 49.3445 49.8745 47.3119V46.0706C48.6927 45.2472 47.9583 43.9637 47.2146 42.705C46.9651 42.283 46.9263 41.7319 46.812 41.2356C46.5799 40.2257 46.2328 39.2485 46.2635 38.1757C46.323 36.1237 47.4881 34.6597 49.4471 33.9233C50.6825 33.4591 51.8823 33.6925 53.2106 33.5621C52.4957 35.0422 50.7828 34.9158 49.7816 36.1565C51.5085 36.0803 52.5605 34.4537 54.3216 34.764C54.2533 35.1787 54.1851 35.594 54.1129 36.0314C54.4359 36.1451 54.9101 36.313 55.3663 36.4749V38.791C54.8968 39.6103 54.3811 40.4276 53.9604 41.2918C53.8246 41.5693 53.939 41.9693 53.939 42.6783Z" fill="#251FA0"/>
<path fill-rule="evenodd" clip-rule="evenodd" d="M84.7626 19.9727C84.0797 20.8288 83.4563 21.6114 82.7668 22.4755V24.8157C82.1254 25.0732 81.5014 25.3247 80.7964 25.6076C79.9631 24.7983 79.6253 23.7249 79.3584 22.7102C79.0013 22.8433 78.6856 22.9604 78.2167 23.1343C77.8489 22.6052 77.4014 22.1377 77.16 21.5813C76.4377 19.9139 76.4952 18.1334 76.5741 16.458C76.8771 15.7678 77.1473 15.1511 77.4844 14.3813C76.9801 14.3057 76.5333 14.376 76.348 14.1887C75.1696 12.9975 74.0065 11.7856 72.9263 10.5061C72.3444 9.81588 71.7304 9.03536 71.4984 8.19464C71.1599 6.964 71.1519 5.64239 70.9921 4.26795C71.5472 3.48742 71.9986 2.57314 72.7036 1.9431C73.3517 1.36389 74.2733 1.09101 75.2726 0.582031C75.5053 0.83418 75.732 1.0783 75.9614 1.32644C75.8277 1.45485 74.0466 3.1704 74.0466 3.1704C74.175 3.29948 74.3041 3.42857 74.494 3.61785C75.3093 3.02326 76.1213 2.24541 77.4469 2.7584C77.1179 3.20919 76.8617 3.55966 76.4116 4.17565C77.0202 3.93822 77.36 3.80646 77.8308 3.6232C78.0529 3.95761 78.291 4.31677 78.5799 4.75285C78.077 5.25648 77.6817 5.65175 77.2048 6.1293C77.5125 6.19217 77.6783 6.22695 77.9539 6.2838C77.5406 6.98072 77.774 7.9445 76.7085 8.30032C77.766 9.60119 78.9431 10.3182 80.1376 11.1114C84.1586 7.77729 88.092 4.51541 92.0782 1.21006H93.8379C93.5296 1.82806 93.2848 2.32099 93.0367 2.81993C93.565 3.22324 93.983 2.77044 94.4512 2.56712C95.8036 3.8292 96.122 5.40496 95.8437 7.16264C95.2819 7.88364 94.7047 8.62403 94.1155 9.37981C94.1536 9.41459 94.2412 9.49618 94.482 9.7189C94.1576 9.76037 93.8453 9.8005 93.5323 9.84063C93.6547 9.97172 93.777 10.1035 93.8994 10.2352H93.2206C91.9705 12.5875 89.8577 14.188 88.3107 16.3309C90.4309 17.5121 92.8032 18.3909 95.0465 19.7279C95.1147 20.065 95.1916 20.4476 95.2819 20.8997C95.5575 20.6081 95.7641 20.3894 95.9635 20.1787C96.8664 20.3004 96.8476 21.3385 97.6054 21.7184C98.2689 22.0514 98.6562 22.9356 99.1725 23.5844V25.7501C98.9973 25.9253 98.8254 26.0972 98.5846 26.338C96.7065 26.1373 95.1535 25.0672 93.4433 24.2017C93.4085 24.2332 93.2814 24.3482 93.2259 24.3984C92.0294 24.1027 91.3158 22.8186 89.9353 23.0105C89.2919 22.1832 88.2338 22.119 87.4085 21.6314C86.5744 21.1392 85.7665 20.6048 84.7626 19.9727Z" fill="#251FA0"/>
<path fill-rule="evenodd" clip-rule="evenodd" d="M137.881 49.1138C138.257 49.3265 138.554 49.4937 138.988 49.7392C138.89 50.3331 138.789 50.9317 138.667 51.6688C138.972 52.1998 139.229 53.0084 140.156 53.3348C140.572 52.7556 140.826 52.0928 141.626 51.7691C142.187 51.541 142.517 50.7418 142.947 50.1953C143.419 49.594 144.076 49.1834 144.449 48.451C144.762 47.835 145.435 47.4137 145.859 46.8398C146.297 46.2466 146.629 45.5744 147.007 44.9377H149.063C149.171 45.5142 149.349 46.084 148.67 46.6793C149.256 46.706 149.71 46.7268 150.124 46.7455C150.31 47.5963 150.477 48.3667 150.641 49.1198C150.346 49.2356 150.137 49.3172 149.89 49.4135C149.916 49.5807 149.912 49.7552 149.971 49.9037C150.48 51.1591 150.397 51.5898 149.42 52.559C149.012 52.9629 148.841 53.5916 149.007 53.9842C149.268 54.6009 148.485 54.3635 148.854 54.9326C148.462 54.6096 148.339 54.5079 148.127 54.3327V55.3487C147.741 55.4229 147.408 55.4864 147.012 55.562V56.5592C146.546 57.0455 146.217 57.3892 145.942 57.6755C146.578 58.2982 147.165 58.872 147.653 59.3503V60.724C148.046 61.1173 148.457 61.5286 148.878 61.9513C148.747 62.1841 148.664 62.3306 148.517 62.5881C148.709 62.976 148.943 63.4535 149.246 64.0695C148.895 64.8039 148.506 65.6152 148.137 66.3857H146.616C144.845 65.3724 143.129 64.3885 141.416 63.408C141.113 63.8769 140.871 64.2501 140.667 64.5665C140.351 64.4126 140.107 64.2936 139.689 64.0896V65.7871C139.134 65.5804 138.746 65.4359 138.019 65.1657C138.319 65.575 138.401 65.6867 138.559 65.9021C138.225 66.2165 137.871 66.5489 137.311 67.0746C137.199 66.3957 137.128 65.9703 137.052 65.5021C137.308 65.4139 137.515 65.3423 137.779 65.2507C137.805 65.1136 137.836 64.9477 137.874 64.745C137.643 64.6648 137.431 64.5925 137.219 64.519C137.297 64.1966 137.377 63.8715 137.512 63.3204C137.174 63.6301 137.044 63.7498 136.966 63.8207C136.189 63.6749 135.455 63.5378 134.681 63.3933C134.562 63.1646 134.408 62.8663 134.225 62.5172C134.363 61.9834 134.519 61.3775 134.678 60.7595C135.034 60.8183 135.487 60.8939 135.94 60.9688C135.959 60.9019 135.977 60.8351 135.996 60.7675C135.523 60.5301 135.051 60.2926 134.634 60.0833C134.879 59.579 135.121 59.0767 135.374 58.5537C134.174 56.5158 132.867 54.5922 132.128 52.3784C131.684 50.8535 132.209 49.3466 132.429 47.8457C132.599 46.6786 133.564 45.8533 134.62 45.2627C134.771 45.1784 134.913 45.0815 135.154 44.9316H136.968C137.254 45.2179 137.512 45.4761 137.693 45.6573C137.336 46.0145 136.973 46.377 136.757 46.5917V47.714C137.159 47.6096 137.545 47.51 137.987 47.3956C138.218 47.6116 138.43 47.8103 138.724 48.0852C138.415 48.4624 138.16 48.7734 137.881 49.1138Z" fill="#251FA0"/>
<path fill-rule="evenodd" clip-rule="evenodd" d="M28.1851 67.8481C28.3911 68.0541 28.563 68.2259 28.8065 68.4694C27.6888 69.4252 26.5773 70.3749 25.4663 71.3253C25.4911 71.3895 25.5165 71.4537 25.5419 71.5173C25.778 71.4484 26.0663 71.4423 26.2382 71.2979C26.5592 71.029 26.812 70.6805 27.2528 70.5936C28.032 70.1542 28.8111 69.7141 29.5689 69.286C30.2297 69.8204 29.7475 70.2425 29.4633 70.8906C29.896 70.7267 30.1762 70.6204 30.4779 70.5053C30.6096 70.6371 30.7815 70.809 30.9541 70.9815C30.9547 71.7099 30.9547 72.4389 30.9547 73.1766C30.7421 73.384 30.5254 73.5966 30.2959 73.82C30.3294 73.9043 30.3381 74.0207 30.4003 74.0662C30.815 74.3772 31.229 74.6922 31.6664 74.9691C32.1366 75.266 32.7947 75.3516 32.8127 76.1121C32.8148 76.1997 32.9632 76.2987 33.0609 76.3676C33.4361 76.6318 33.8755 76.8318 34.1812 77.1588C34.4862 77.4845 34.6594 77.9333 34.9677 78.4604C34.9677 78.7687 34.9677 79.2549 34.967 79.7405C34.6654 80.0415 34.3651 80.3425 34.1136 80.5939C31.8135 79.7719 29.5402 78.96 27.2675 78.148C26.7625 78.4176 26.2188 78.7072 25.6743 78.9968C25.6516 78.96 25.6289 78.9232 25.6061 78.8864C25.1333 79.3586 24.6604 79.8315 24.0564 80.4354C24.0477 80.5792 24.0304 80.8615 24.0083 81.2213C23.0505 82.1423 22.0479 83.1074 21.2393 83.8859C20.8334 85.1453 21.0394 86.4388 19.3613 86.7044C19.0141 86.1492 17.7674 86.0603 18.0517 84.7661C17.7066 84.6664 17.2825 84.5427 16.8204 84.4089C16.716 84.4792 16.5281 84.6049 16.3816 84.7025C15.9121 84.2063 15.5021 83.7715 14.9062 83.1408C14.7731 82.0032 14.6025 80.5471 14.4233 79.0148C15.9382 77.3769 17.431 75.763 19.0148 74.0501C18.3955 73.6622 17.7567 73.3378 17.2096 72.8997C16.6438 72.4463 16.1669 71.8818 15.6365 71.3514C15.783 70.8785 15.9322 70.3963 16.0927 69.8753C15.7957 69.7736 15.5837 69.7007 15.3202 69.6098V68.3778C15.4219 68.2754 15.5509 68.147 15.7001 67.9972C16.2218 67.8935 16.7695 67.7845 17.4464 67.6494C19.2482 68.6607 21.2186 69.7663 23.1355 70.8411C25.0577 70.11 26.3037 68.4239 28.1851 67.8481Z" fill="#251FA0"/>
</svg>
