<svg width="53" height="16" viewBox="0 0 53 16" fill="none" xmlns="http://www.w3.org/2000/svg">
<path d="M19.5143 15.5812L22.1949 0.502686H26.3834L23.7865 15.5812H19.5143Z" fill="#3C58BF"/>
<path d="M19.5143 15.5812L22.9488 0.502686H26.3834L23.7865 15.5812H19.5143Z" fill="#293688"/>
<path d="M38.9487 0.670155C38.1111 0.335077 36.7707 0 35.0954 0C30.9069 0 27.8912 2.09424 27.8912 5.10994C27.8912 7.37171 29.9854 8.54448 31.6608 9.29841C33.3362 10.0523 33.8388 10.555 33.8388 11.2251C33.8388 12.2303 32.4985 12.733 31.3257 12.733C29.6503 12.733 28.7289 12.4817 27.3048 11.8953L26.7184 11.644L26.132 15.0785C27.1373 15.4974 28.9802 15.9162 30.9069 15.9162C35.3467 15.9162 38.2786 13.822 38.2786 10.6387C38.2786 8.87956 37.1896 7.53925 34.6765 6.45025C33.1687 5.69632 32.2472 5.27748 32.2472 4.52355C32.2472 3.85339 33.0011 3.18324 34.6765 3.18324C36.1006 3.18324 37.1058 3.43455 37.8597 3.76963L38.2786 3.93716L38.9487 0.670155Z" fill="#3C58BF"/>
<path d="M38.9487 0.670155C38.1111 0.335077 36.7707 0 35.0954 0C30.9069 0 28.6451 2.09424 28.6451 5.10994C28.6451 7.37171 29.9854 8.54448 31.6608 9.29841C33.3362 10.0523 33.8388 10.555 33.8388 11.2251C33.8388 12.2303 32.4985 12.733 31.3257 12.733C29.6503 12.733 28.7289 12.4817 27.3048 11.8953L26.7184 11.644L26.132 15.0785C27.1373 15.4974 28.9802 15.9162 30.9069 15.9162C35.3467 15.9162 38.2786 13.822 38.2786 10.6387C38.2786 8.87956 37.1896 7.53925 34.6765 6.45025C33.1687 5.69632 32.2472 5.27748 32.2472 4.52355C32.2472 3.85339 33.0011 3.18324 34.6765 3.18324C36.1006 3.18324 37.1058 3.43455 37.8597 3.76963L38.2786 3.93716L38.9487 0.670155Z" fill="#293688"/>
<path d="M46.1529 0.502686C45.1477 0.502686 44.3938 0.586456 43.9749 1.59169L37.6922 15.5812H42.2158L43.0534 13.0681H48.4147L48.9173 15.5812H52.9382L49.4199 0.502686H46.1529ZM44.2262 10.555C44.4775 9.8011 45.9016 6.11524 45.9016 6.11524C45.9016 6.11524 46.2367 5.19378 46.488 4.60739L46.7393 6.03147C46.7393 6.03147 47.577 9.8011 47.7445 10.6388H44.2262V10.555Z" fill="#3C58BF"/>
<path d="M47.1581 0.502686C46.1529 0.502686 45.399 0.586456 44.9801 1.59169L37.6922 15.5812H42.2158L43.0534 13.0681H48.4147L48.9173 15.5812H52.9382L49.4199 0.502686H47.1581ZM44.2262 10.555C44.5613 9.71733 45.9016 6.11524 45.9016 6.11524C45.9016 6.11524 46.2367 5.19378 46.488 4.60739L46.7393 6.03147C46.7393 6.03147 47.577 9.8011 47.7445 10.6388H44.2262V10.555Z" fill="#293688"/>
<path d="M11.8075 11.0579L11.3886 8.87985C10.6347 6.36676 8.2054 3.60237 5.52478 2.26206L9.29441 15.6652H13.818L20.6033 0.58667H16.0797L11.8075 11.0579Z" fill="#3C58BF"/>
<path d="M11.8075 11.0579L11.3886 8.87985C10.6347 6.36676 8.2054 3.60237 5.52478 2.26206L9.29441 15.6652H13.818L20.6033 0.58667H16.9174L11.8075 11.0579Z" fill="#293688"/>
<path d="M0.163513 0.502686L0.917438 0.670225C6.27868 1.92677 9.96454 5.11001 11.3886 8.87963L9.88077 1.75923C9.62946 0.753994 8.87554 0.502686 7.95407 0.502686H0.163513Z" fill="#FFBC00"/>
<path d="M0.163513 0.502686C5.52476 1.75923 9.96454 5.02624 11.3886 8.79586L9.96454 2.84823C9.71323 1.843 8.87554 1.25661 7.95407 1.25661L0.163513 0.502686Z" fill="#F7981D"/>
<path d="M0.163513 0.502686C5.52476 1.75923 9.96454 5.02624 11.3886 8.79586L10.3834 5.52885C10.1321 4.52362 9.797 3.51839 8.62423 3.09954L0.163513 0.502686Z" fill="#ED7C00"/>
<path d="M15.9959 10.5549L13.1478 7.70676L11.8075 10.89L11.4724 8.79577C10.7185 6.28268 8.28914 3.51829 5.60852 2.17798L9.37815 15.5811H13.9017L15.9959 10.5549Z" fill="#051244"/>
<path d="M23.7865 15.5811L20.1844 11.8953L19.5143 15.5811H23.7865Z" fill="#051244"/>
<path d="M33.42 10.3875C33.755 10.7225 33.9226 10.9738 33.8388 11.3089C33.8388 12.3142 32.4985 12.8168 31.3257 12.8168C29.6503 12.8168 28.7289 12.5655 27.3048 11.9791L26.7184 11.7278L26.132 15.1623C27.1373 15.5812 28.9802 16 30.9069 16C33.5875 16 35.7655 15.2461 37.022 13.9058L33.42 10.3875Z" fill="#051244"/>
<path d="M38.2786 15.5812H42.2158L43.0535 13.0681H48.4147L48.9173 15.5812H52.9383L51.5142 9.46605L46.488 4.60742L46.7393 5.94773C46.7393 5.94773 47.577 9.71736 47.7446 10.5551H44.2263C44.5613 9.71736 45.9016 6.11527 45.9016 6.11527C45.9016 6.11527 46.2367 5.19381 46.488 4.60742" fill="#051244"/>
</svg>
