<svg width="30" height="26" viewBox="0 0 30 26" fill="none" xmlns="http://www.w3.org/2000/svg">
<path d="M26.3947 3.12177C25.7223 2.44911 24.924 1.9155 24.0454 1.55144C23.1668 1.18738 22.225 1 21.2739 1C20.3229 1 19.3811 1.18738 18.5025 1.55144C17.6239 1.9155 16.8256 2.44911 16.1532 3.12177L14.7579 4.51714L13.3625 3.12177C12.0044 1.76368 10.1624 1.0007 8.24179 1.0007C6.32115 1.0007 4.47917 1.76368 3.12107 3.12177C1.76297 4.47987 1 6.32185 1 8.24249C1 10.1631 1.76297 12.0051 3.12107 13.3632L4.51643 14.7586L14.7579 25L24.9993 14.7586L26.3947 13.3632C27.0673 12.6909 27.6009 11.8926 27.965 11.0139C28.329 10.1353 28.5164 9.19356 28.5164 8.24249C28.5164 7.29142 28.329 6.34967 27.965 5.47104C27.6009 4.59241 27.0673 3.79412 26.3947 3.12177V3.12177Z" stroke="#0B0B0B" stroke-width="2" stroke-linecap="round" stroke-linejoin="round"/>
</svg>
