<svg width="178" height="26" viewBox="0 0 178 26" fill="none" xmlns="http://www.w3.org/2000/svg">
<path d="M18.2414 23.6477C24.6647 22.2955 28.7214 22.6335 35.4828 25V3.02568H32.4402M18.2414 23.6477V4.71595M18.2414 23.6477C21.284 21.2812 25.0027 20.2669 32.4402 20.9431V3.02568M18.2414 23.6477C11.8181 22.2955 7.76133 22.6335 1 24.9999V3.02562H4.0426M18.2414 23.6477C15.1988 21.2812 11.4801 20.2668 4.0426 20.943V3.02562M32.4402 3.02568V1.33525C26.693 0.659147 21.9601 0.659116 18.2414 4.71595M18.2414 4.71595C14.5227 0.659116 9.78973 0.659081 4.0426 1.33518V3.02562" stroke="#EA6227" stroke-width="2" stroke-linecap="round" stroke-linejoin="round"/>
<path d="M48.9828 24.5854V21.9063C50.4499 22.119 51.5449 21.715 52.2678 20.6944C53.0119 19.6526 53.384 17.7284 53.384 14.9218V2.26025H68.1186V24.5854H65.1525V5.06684H56.3501V14.9218C56.3501 16.9204 56.1587 18.6001 55.776 19.9609C55.4145 21.3004 54.883 22.3103 54.1813 22.9907C53.501 23.6711 52.7355 24.1389 51.8851 24.394C51.0558 24.6279 50.0884 24.6917 48.9828 24.5854Z" fill="#0B0B0B"/>
<path d="M74.5754 17.8878C74.8518 19.3124 75.5003 20.418 76.5209 21.2047C77.5627 21.9914 78.8385 22.3847 80.3481 22.3847C82.453 22.3847 83.9839 21.6087 84.9407 20.0565L87.3007 21.3961C85.7486 23.7987 83.4098 25 80.2843 25C77.7541 25 75.6917 24.2133 74.097 22.6399C72.5236 21.0452 71.7369 19.036 71.7369 16.6121C71.7369 14.2095 72.513 12.2109 74.0651 10.6162C75.6173 9.02157 77.6265 8.22425 80.0929 8.22425C82.4317 8.22425 84.3347 9.05346 85.8018 10.7119C87.2901 12.3491 88.0343 14.3264 88.0343 16.644C88.0343 17.048 88.0024 17.4626 87.9386 17.8878H74.5754ZM80.0929 10.8395C78.6046 10.8395 77.3714 11.2647 76.3933 12.1152C75.4153 12.9444 74.8093 14.0607 74.5754 15.464H85.2277C84.9938 13.9544 84.3985 12.8062 83.4417 12.0195C82.4849 11.2328 81.3686 10.8395 80.0929 10.8395Z" fill="#0B0B0B"/>
<path d="M102.259 8.63886H105.033V24.5854H102.259V17.9197H93.9985V24.5854H91.2238V8.63886H93.9985V15.2726H102.259V8.63886Z" fill="#0B0B0B"/>
<path d="M116.238 25C113.878 25 111.933 24.2239 110.402 22.6718C108.871 21.1197 108.106 19.1211 108.106 16.6759C108.106 13.9544 108.499 11.8601 109.286 10.393C110.094 8.92593 111.731 7.59705 114.197 6.40638C114.644 6.19376 115.25 5.91735 116.015 5.57716C116.802 5.23697 117.376 4.98182 117.737 4.81173C118.099 4.62037 118.503 4.37586 118.949 4.07819C119.396 3.75926 119.725 3.41907 119.938 3.05761C120.172 2.6749 120.342 2.23903 120.448 1.75L122.681 3.02572C122.617 3.36591 122.532 3.68484 122.426 3.98251C122.319 4.25892 122.16 4.53532 121.947 4.81173C121.756 5.06687 121.586 5.29012 121.437 5.48148C121.288 5.67284 121.033 5.88546 120.672 6.11934C120.331 6.33196 120.076 6.49143 119.906 6.59774C119.757 6.70405 119.449 6.86351 118.981 7.07613C118.535 7.28875 118.226 7.43759 118.056 7.52263C117.907 7.58642 117.557 7.73525 117.004 7.96914C116.451 8.18176 116.111 8.31996 115.983 8.38374C114.537 9.00034 113.474 9.62757 112.794 10.2654C112.135 10.9033 111.656 11.7112 111.359 12.6893C112.039 11.8388 112.89 11.2116 113.91 10.8076C114.931 10.4036 115.951 10.2016 116.972 10.2016C118.971 10.2016 120.661 10.882 122.043 12.2428C123.446 13.6036 124.148 15.3577 124.148 17.5051C124.148 19.6739 123.404 21.4705 121.915 22.8951C120.427 24.2984 118.535 25 116.238 25ZM112.507 20.9177C113.506 21.8532 114.75 22.321 116.238 22.321C117.727 22.321 118.949 21.8639 119.906 20.9496C120.884 20.0353 121.373 18.8872 121.373 17.5051C121.373 16.0806 120.905 14.9218 119.97 14.0288C119.056 13.1145 117.844 12.6574 116.334 12.6574C114.973 12.6574 113.74 13.0933 112.635 13.965C111.55 14.8155 111.008 15.9424 111.008 17.3457C111.008 18.7915 111.508 19.9822 112.507 20.9177Z" fill="#EA6227"/>
<path d="M140.298 8.63889H143.073V24.5854H140.298V21.8426C138.916 23.9475 136.907 25 134.27 25C132.038 25 130.135 24.192 128.561 22.5761C126.988 20.939 126.201 18.951 126.201 16.6121C126.201 14.2733 126.988 12.296 128.561 10.68C130.135 9.04287 132.038 8.22428 134.27 8.22428C136.907 8.22428 138.916 9.27675 140.298 11.3817V8.63889ZM134.621 22.321C136.237 22.321 137.587 21.7788 138.671 20.6944C139.756 19.5888 140.298 18.2281 140.298 16.6121C140.298 14.9962 139.756 13.6461 138.671 12.5617C137.587 11.4561 136.237 10.9033 134.621 10.9033C133.026 10.9033 131.687 11.4561 130.602 12.5617C129.518 13.6461 128.976 14.9962 128.976 16.6121C128.976 18.2281 129.518 19.5888 130.602 20.6944C131.687 21.7788 133.026 22.321 134.621 22.321Z" fill="#EA6227"/>
<path d="M155.888 16.4208C157.652 17.1437 158.535 18.4088 158.535 20.2161C158.535 21.5556 158.003 22.6931 156.94 23.6286C155.877 24.5429 154.367 25 152.411 25C149.222 25 147.085 23.7243 146.001 21.1728L148.329 19.8014C148.946 21.5449 150.317 22.4167 152.443 22.4167C153.506 22.4167 154.325 22.1934 154.899 21.7469C155.494 21.2792 155.792 20.6838 155.792 19.9609C155.792 19.323 155.547 18.8021 155.058 18.3981C154.591 17.9942 153.953 17.7922 153.145 17.7922H150.817V15.2726H152.539C153.347 15.2726 153.974 15.0813 154.421 14.6986C154.867 14.2946 155.09 13.7524 155.09 13.072C155.09 12.3916 154.825 11.8388 154.293 11.4136C153.783 10.9883 153.07 10.7757 152.156 10.7757C150.37 10.7757 149.158 11.5305 148.52 13.0401L146.256 11.7325C147.383 9.39369 149.35 8.22428 152.156 8.22428C153.9 8.22428 155.271 8.67078 156.27 9.56379C157.291 10.4568 157.801 11.5518 157.801 12.8488C157.801 14.4647 157.163 15.6554 155.888 16.4208Z" fill="#EA6227"/>
<path d="M174.745 8.63889H177.52V24.5854H174.745V21.8426C173.363 23.9475 171.354 25 168.717 25C166.485 25 164.582 24.192 163.008 22.5761C161.435 20.939 160.648 18.951 160.648 16.6121C160.648 14.2733 161.435 12.296 163.008 10.68C164.582 9.04287 166.485 8.22428 168.717 8.22428C171.354 8.22428 173.363 9.27675 174.745 11.3817V8.63889ZM169.068 22.321C170.684 22.321 172.034 21.7788 173.118 20.6944C174.203 19.5888 174.745 18.2281 174.745 16.6121C174.745 14.9962 174.203 13.6461 173.118 12.5617C172.034 11.4561 170.684 10.9033 169.068 10.9033C167.473 10.9033 166.134 11.4561 165.049 12.5617C163.965 13.6461 163.423 14.9962 163.423 16.6121C163.423 18.2281 163.965 19.5888 165.049 20.6944C166.134 21.7788 167.473 22.321 169.068 22.321Z" fill="#EA6227"/>
</svg>
