<svg width="58" height="16" viewBox="0 0 58 16" fill="none" xmlns="http://www.w3.org/2000/svg">
<path fill-rule="evenodd" clip-rule="evenodd" d="M41.7097 7.22852V16H46.5827V10.8021H52.1056C54.43 10.7848 56.4045 9.30004 57.149 7.22852H41.7097Z" fill="#37A72E"/>
<path fill-rule="evenodd" clip-rule="evenodd" d="M41.06 0C41.3438 3.58531 44.7357 6.41621 48.8782 6.41621C48.8918 6.41621 57.3515 6.41621 57.3515 6.41621C57.414 6.08739 57.4467 5.74801 57.4467 5.40098C57.4467 2.431 55.0505 0.0219714 52.0864 0.000149435L41.06 0Z" fill="url(#paint0_linear)"/>
<path fill-rule="evenodd" clip-rule="evenodd" d="M33.8477 6.33089L33.8515 6.32271L33.852 6.32283C33.902 6.23319 33.9977 6.17255 34.1076 6.17255C34.2664 6.17255 34.3956 6.29908 34.3999 6.45679L34.4 6.45682V15.9187H39.2731V0H34.4C33.782 0.0205685 33.0839 0.474035 32.8243 1.03068L28.9463 9.34713C28.9367 9.38112 28.9217 9.41286 28.9023 9.44135L28.901 9.44412L28.9005 9.44397C28.8419 9.52841 28.7442 9.5837 28.6335 9.5837C28.4541 9.5837 28.3087 9.43825 28.3087 9.25883V0H23.4356V15.9187H28.3087V15.9169C28.9199 15.885 29.6017 15.4366 29.8575 14.888L33.8377 6.35234C33.8408 6.34503 33.8441 6.33788 33.8477 6.33089Z" fill="#37A72E"/>
<path fill-rule="evenodd" clip-rule="evenodd" d="M15.6512 6.603L12.8031 15.9187H9.29749L6.44767 6.59734C6.42019 6.44808 6.28939 6.33499 6.13217 6.33499C5.95499 6.33499 5.81136 6.47862 5.81136 6.6558C5.81136 6.65715 5.81137 6.65851 5.81139 6.65986L5.81136 15.9187H0.938293V0H5.12101H6.36671C7.26337 0 8.203 0.695859 8.46503 1.55291L10.8366 9.31005C10.9546 9.69601 11.1461 9.69559 11.2639 9.31005L13.6355 1.55291C13.8977 0.69526 14.8371 0 15.7339 0L16.9792 0H21.1615V15.9187H16.2885V6.65986C16.2885 6.65851 16.2885 6.65715 16.2885 6.6558C16.2885 6.47862 16.1448 6.33499 15.9677 6.33499C15.8085 6.33499 15.6763 6.45094 15.6512 6.603Z" fill="#37A72E"/>
<defs>
<linearGradient id="paint0_linear" x1="41.06" y1="3.2081" x2="57.4467" y2="3.2081" gradientUnits="userSpaceOnUse">
<stop stop-color="#00A0E5"/>
<stop offset="1" stop-color="#0077C3"/>
</linearGradient>
</defs>
</svg>
