<svg width="42" height="42" viewBox="0 0 42 42" fill="none" xmlns="http://www.w3.org/2000/svg">
<path d="M18.8917 5.2168H4.97593C3.92145 5.2168 2.91015 5.63569 2.16452 6.38132C1.41889 7.12695 1 8.13824 1 9.19272V37.0242C1 38.0787 1.41889 39.09 2.16452 39.8356C2.91015 40.5812 3.92145 41.0001 4.97593 41.0001H32.8074C33.8619 41.0001 34.8732 40.5812 35.6188 39.8356C36.3645 39.09 36.7833 38.0787 36.7833 37.0242V23.1085" stroke="#EA6227" stroke-width="2" stroke-linecap="round" stroke-linejoin="round"/>
<path d="M33.8014 2.23516C34.5923 1.4443 35.6649 1 36.7833 1C37.9018 1 38.9744 1.4443 39.7653 2.23516C40.5561 3.02602 41.0004 4.09866 41.0004 5.21711C41.0004 6.33555 40.5561 7.40819 39.7653 8.19905L20.8796 27.0847L12.9278 29.0727L14.9157 21.1208L33.8014 2.23516Z" stroke="#EA6227" stroke-width="2" stroke-linecap="round" stroke-linejoin="round"/>
</svg>
