<svg width="104" height="84" viewBox="0 0 104 84" fill="none" xmlns="http://www.w3.org/2000/svg">
<path fill-rule="evenodd" clip-rule="evenodd" d="M13.7987 17.2881C13.8005 16.3044 13.9455 15.5581 13.0251 15.2874C12.0615 15.0041 11.8797 15.7467 11.5591 16.3569C11.4006 16.6581 11.2646 17.0829 10.795 17.0263C10.3087 16.9684 10.1489 16.6043 10.0793 16.1647C10.0366 15.8958 10.073 15.5384 9.73177 15.445C9.33531 15.3368 9.17817 15.6906 8.97792 15.9402C7.28481 18.0491 5.94369 20.3753 4.84952 22.8366C4.1729 24.3596 3.56947 25.9297 3.38808 27.6084C3.1371 29.9341 4.89891 31.2259 7.04729 30.3037C8.31702 29.7586 9.33801 28.8727 10.0941 27.7418C12.2685 24.4893 13.2864 20.8234 13.7987 17.2881ZM17.483 16.3097C17.1382 22.3458 15.5668 28.0129 12.3372 33.1726C11.4819 34.5389 10.2724 35.5729 8.97167 36.4947C8.16889 37.064 7.24218 36.7676 6.36128 36.8161C6.09099 36.831 5.30213 36.0587 5.47992 37.2193C5.4907 37.2916 5.03363 37.2279 4.81633 37.1286C3.37509 36.4686 2.18843 35.5549 1.46556 34.0755C-0.597068 29.8538 -0.376168 25.6454 1.46332 21.4376C3.07696 17.7469 5.13331 14.3719 8.21199 11.674C9.76861 10.31 11.7145 10.0253 13.5679 9.62435C15.1344 9.28537 16.7126 10.7666 17.1194 12.5302C17.4049 13.768 17.4516 15.0328 17.483 16.3097Z" fill="#D18B0C"/>
<path fill-rule="evenodd" clip-rule="evenodd" d="M92.352 10.7932C91.4342 13.7964 91.533 16.5262 92.9334 19.1272C93.9701 21.0529 95.3579 21.1418 96.7709 19.4424C97.8035 18.2005 98.4128 16.7323 98.8932 15.2067C99.6147 12.9159 98.794 11.3378 96.5544 10.5152C95.6538 10.1843 95.1334 10.3976 94.961 11.3054C94.8119 12.0912 94.5179 12.8217 93.6536 12.7848C92.6873 12.7431 92.7605 11.7859 92.5738 11.1052C92.5639 11.0688 92.5284 11.0387 92.352 10.7932ZM88.6375 17.0107C88.5679 12.1868 89.8578 8.30806 92.3735 4.82484C92.9248 4.06022 93.5444 3.34769 94.3611 2.8547C95.5078 2.16192 96.7726 2.53817 97.1233 3.79353C97.3199 4.49933 97.6648 4.64884 98.2821 4.7548C101.061 5.23162 103.168 7.25519 103.255 10.0232C103.436 15.7589 101.651 20.9402 97.7344 25.1458C94.8891 28.2003 91.7696 27.4734 89.9804 23.6561C88.919 21.391 88.6397 18.9683 88.6375 17.0107Z" fill="#D18B0C"/>
<path fill-rule="evenodd" clip-rule="evenodd" d="M61.0002 26.8296C61.0572 27.8057 61.2795 28.9317 62.3153 29.4269C63.2662 29.8818 64.0169 29.0485 64.6231 28.4217C67.1181 25.8432 68.6693 22.7335 69.5363 19.2754C69.7617 18.3779 69.2027 17.9379 68.417 17.6735C67.6735 17.4229 67.1863 17.5572 66.8833 18.3568C66.6893 18.8682 66.4145 19.4874 65.697 19.3859C65.0721 19.2974 65.1991 18.641 65.02 18.2257C64.9288 18.0151 65.0025 17.6946 64.694 17.6438C64.4206 17.5989 64.2275 17.8328 64.1238 18.0335C62.7019 20.784 61.3042 23.5457 61.0002 26.8296ZM73.5682 17.48C73.3621 21.8836 71.6959 25.8598 69.8879 29.7902C68.8157 32.12 67.4575 34.1849 65.0873 35.4573C63.0018 36.5771 61.0649 36.1995 59.9092 34.083C58.0913 30.7524 57.3783 27.2211 58.5016 23.482C59.4818 20.2188 60.9791 17.2295 63.2438 14.6478C63.5904 14.2532 64.0313 13.8486 64.4637 13.9685C65.4039 14.2289 65.7626 13.5613 66.0931 13.0391C66.9879 11.6226 68.2886 11.2836 69.7837 11.5399C71.4355 11.8233 72.7605 12.6229 73.3244 14.3358C73.6625 15.3621 73.7199 16.4101 73.5682 17.48Z" fill="#D18B0C"/>
<path fill-rule="evenodd" clip-rule="evenodd" d="M89.869 40.5781C89.5053 40.9395 89.4882 41.3171 89.4186 41.6727C89.3396 42.0755 89.0505 42.3031 88.7227 42.1091C87.915 41.6301 87.5248 42.2079 87.0803 42.6623C85.8806 43.8876 84.799 45.2386 83.9958 46.7301C83.1248 48.3464 82.2026 50.0157 82.4383 51.9993C82.5847 53.2327 82.6987 54.5873 84.0659 54.9954C85.4667 55.4134 86.5254 54.497 87.4436 53.5183C87.4988 53.4594 87.5347 53.3831 87.5868 53.3207C89.5888 50.9029 90.4827 47.9715 91.1998 45.0199C91.5863 43.4274 91.1589 41.8222 89.869 40.5781ZM95.1643 41.8519C95.0781 45.6521 93.8178 49.1277 92.3985 52.601C91.4193 54.9981 90.1083 57.1178 88.4345 59.0547C86.969 60.7496 83.9671 61.4267 81.9062 60.2162C81.1344 59.7627 80.9975 58.7597 80.1548 58.4185C81.1344 57.3539 79.6555 56.9094 79.5675 56.0995C79.2087 52.8134 79.3111 49.6543 80.8534 46.5698C82.3629 43.5495 84.3379 41.0064 87.0255 38.9995C87.3246 38.7759 87.4027 38.529 87.4359 38.1814C87.4822 37.701 87.5455 37.1991 87.7282 36.7591C88.7784 34.2272 90.5353 33.8146 92.5849 35.6326C94.441 37.279 95.2316 39.3959 95.1643 41.8519Z" fill="#D18B0C"/>
<path fill-rule="evenodd" clip-rule="evenodd" d="M24.9702 44.1909C25.0196 44.815 24.9194 45.5311 25.5557 45.8432C26.1483 46.1336 26.6229 45.607 27.0651 45.268C27.6843 44.793 28.1925 44.1985 28.6052 43.5403C30.2457 40.9223 31.3269 38.0923 31.801 35.0303C31.9209 34.2535 31.9366 33.2909 31.1724 33.1446C30.3652 32.9901 29.2063 32.8015 28.7125 34.0102C28.5751 34.3469 28.4031 34.6823 28.1845 34.9715C26.1223 37.7067 25.6486 40.9825 24.9702 44.1909ZM34.9673 34.4668C34.6992 38.6895 33.4546 42.9382 31.1702 46.8799C30.8846 47.3715 30.5385 47.8277 30.252 48.3189C29.0932 50.3047 27.264 51.09 25.0748 51.1439C24.3187 51.1623 23.8971 50.5633 23.5559 49.933C22.3212 47.6517 22.0064 45.2164 22.5107 42.7138C23.5101 37.7552 25.3693 33.1333 28.1732 28.9039C28.6743 28.1474 29.3181 27.5269 29.9777 26.9329C30.723 26.2621 31.3574 26.5158 31.6098 27.5017C31.696 27.8398 31.6713 28.2322 32.1427 28.3615C34.023 28.8779 34.274 30.5804 34.7405 32.0755C34.9412 32.7203 34.8806 33.4463 34.9673 34.4668Z" fill="#D18B0C"/>
<path fill-rule="evenodd" clip-rule="evenodd" d="M42.8804 63.8658C43.8817 62.976 44.2238 61.8997 44.759 60.9147C45.7423 59.1026 46.1872 57.1782 46.4579 55.1812C46.5028 54.8489 46.4844 54.4933 46.0907 54.3761C45.7059 54.2616 45.5057 54.5818 45.3341 54.8377C45.1788 55.0703 45.1671 55.4941 44.9727 55.5884C44.3158 55.9081 44.7612 57.5217 43.3564 56.9457C43.1768 56.8725 43.0098 57.1966 43.2235 57.3551C44.1565 58.0452 43.5616 58.8013 43.307 59.4986C42.8082 60.8666 42.4499 62.2306 42.8804 63.8658ZM41.9097 69.347C43.2495 68.7207 42.6999 68.071 41.9241 67.7756C40.1511 67.0994 40.0402 65.4674 39.7151 64.0517C39.5072 63.1466 39.6823 62.0874 39.9198 61.1571C40.9942 56.9466 42.9294 53.1091 45.2573 49.467C45.6403 48.8671 46.3147 48.4761 46.6986 47.834C46.8647 47.557 47.1862 47.3778 47.5472 47.5C47.9036 47.6207 48.0078 47.8726 47.9683 48.2641C47.8951 48.9942 48.213 49.5451 48.75 50.0735C50.2289 51.5273 50.0906 53.4809 49.9344 55.2642C49.5362 59.8183 48.0006 64.0392 45.5146 67.8757C44.7576 69.0444 43.7016 69.9415 41.9097 69.347Z" fill="#D18B0C"/>
<path fill-rule="evenodd" clip-rule="evenodd" d="M39.1368 9.45023C39.0412 9.11798 38.9456 8.78528 38.8064 8.30038C37.7414 9.64868 37.0244 11.0464 36.5897 12.568C36.3019 13.5759 37.0877 14.4479 38.141 14.3922C39.2024 14.3365 39.9877 13.7474 40.5565 12.9105C42.057 10.7024 42.7256 8.15716 43.1108 5.58448C43.2253 4.81762 43.1337 3.78002 42.6569 2.93368C42.2447 2.20319 43.0785 0.361906 43.9392 0.0848829C45.0167 -0.262181 45.5281 0.516805 45.8949 1.30253C46.6182 2.85017 46.3655 4.52982 46.2173 6.12281C45.8815 9.72501 44.7976 13.1301 42.9384 16.2586C42.1109 17.6514 41.1613 18.9314 39.3986 19.1846C36.3953 19.6152 35.1638 19.2996 34.3834 16.2824C33.3548 12.3067 35.5355 6.7909 38.9254 4.40635C39.3007 4.1419 39.6801 3.91875 40.1681 4.10777C40.7249 4.32284 40.6441 4.83423 40.6629 5.25268C40.733 6.81066 40.0352 8.13875 39.4448 9.49468C39.342 9.47986 39.2396 9.46504 39.1368 9.45023Z" fill="#D18B0C"/>
<path fill-rule="evenodd" clip-rule="evenodd" d="M59.9124 83.396C58.9512 83.4791 58.248 83.1019 58.2054 82.1842C58.1309 80.5629 57.7699 79.0516 58.2422 77.2768C59.0369 74.2906 60.2577 71.6039 61.9364 69.1062C62.6777 68.0039 62.3755 66.7787 62.8434 65.6769C63.2331 64.7591 63.692 63.9218 64.4135 63.2357C64.8809 62.7912 65.3784 62.4581 66.0446 62.8411C66.6701 63.2003 66.9314 63.5954 66.9704 64.4606C67.2147 69.8735 65.1655 74.6992 63.3404 79.5931C62.9363 80.6752 62.2916 81.6068 61.6195 82.5335C61.1682 83.1549 60.6227 83.471 59.9124 83.396Z" fill="#D18B0C"/>
</svg>
