<svg width="115" height="40" viewBox="0 0 115 40" fill="none" xmlns="http://www.w3.org/2000/svg">
<path d="M7.37367 1.67175H6.05753C5.65124 1.67175 5.25885 1.75595 4.87872 1.92517C4.49778 2.09438 4.15934 2.36415 3.86505 2.73611C3.56912 3.10806 3.33368 3.58465 3.15384 4.16833C2.97726 4.75038 2.88898 5.44687 2.88898 6.25781C2.88898 7.05077 2.98707 7.72355 3.18082 8.27208C3.37538 8.82143 3.63288 9.2735 3.95415 9.6291C4.27542 9.98307 4.63838 10.2406 5.04385 10.4008C5.44851 10.5618 5.87114 10.642 6.31095 10.642H7.37367V1.67093V1.67175ZM2.30529 19.5378H0L4.10539 11.9597C2.90614 11.3859 2.04861 10.6215 1.53359 9.66671C1.01858 8.71271 0.760257 7.57641 0.760257 6.25781C0.760257 5.24414 0.904133 4.34981 1.19107 3.57239C1.47719 2.79578 1.86713 2.1418 2.3568 1.6088C2.84728 1.0758 3.41707 0.675239 4.06696 0.404653C4.7185 0.134884 5.406 0 6.13355 0H9.37732V19.5378H7.37367V12.29H6.05753L2.30529 19.5378Z" fill="#FF0000"/>
<path fill-rule="evenodd" clip-rule="evenodd" d="M29.4211 22.0719H27.6226V19.5132H22.0229V22.0719H20.2228V17.8652H21.0076C21.4139 17.1049 21.7302 16.2858 21.9591 15.407C22.188 14.5282 22.3597 13.6413 22.4782 12.7461C22.5968 11.851 22.6679 10.964 22.6941 10.0852C22.7202 9.20642 22.7325 8.37014 22.7325 7.57555V6.46214H28.4091V17.866H29.4227V22.0719H29.4211ZM38.1902 18.9295C37.7676 19.1666 37.2992 19.3726 36.7841 19.5508C36.2691 19.7282 35.6887 19.8165 35.0478 19.8165C33.73 19.8165 32.6739 19.2688 31.8801 18.1701C31.0871 17.0722 30.689 15.5264 30.689 13.5325C30.689 12.5695 30.7708 11.6441 30.9302 10.758C31.0912 9.8694 31.3356 9.08462 31.6659 8.40039C31.9954 7.71534 32.4131 7.16599 32.9199 6.75316C33.4268 6.33952 34.0341 6.13188 34.7429 6.13188C35.7909 6.13188 36.6362 6.6567 37.2771 7.70389C37.9196 8.75027 38.2417 10.2969 38.2417 12.3415V13.4565H32.7924C32.7924 14.8756 33.0327 15.9825 33.5142 16.7755C33.9965 17.5701 34.7519 17.9674 35.7827 17.9674C36.171 17.9674 36.5724 17.9126 36.9861 17.8039C37.4005 17.6927 37.7259 17.5872 37.9621 17.485L38.191 18.9304L38.1902 18.9295ZM34.6669 7.75458C34.3808 7.75458 34.1273 7.85513 33.9066 8.05704C33.6875 8.26141 33.502 8.54344 33.3507 8.90722C33.1979 9.27018 33.0793 9.69691 32.9951 10.1866C32.9109 10.6771 32.8513 11.2084 32.8177 11.7839H36.1629V11.506C36.1629 11.421 36.1588 11.3278 36.1506 11.2264C36.1424 11.125 36.1375 11.0155 36.1375 10.897C36.0697 9.89964 35.9086 9.12631 35.6552 8.57696C35.4018 8.02925 35.0732 7.75376 34.6677 7.75376L34.6669 7.75458ZM26.4062 8.0832V17.8652H22.7832C23.12 17.3077 23.3987 16.6488 23.6186 15.8885C23.8393 15.1282 24.0159 14.3214 24.15 13.4688C24.2857 12.6153 24.3789 11.7455 24.4296 10.8577C24.4803 9.97077 24.5056 9.1304 24.5056 8.33662V8.0832H26.4062ZM19.0571 6.46132V19.5132H17.0543V13.2783H14.0647V19.5124H12.0374V6.4605H14.0647V11.6049H17.0551V6.46132H19.0579H19.0571ZM47.8716 19.5132H45.6154L42.4983 13.0756L42.2694 12.7976V19.5124H40.2421V6.4605H42.2694V12.3905L42.4983 12.1371L45.2614 6.4605H47.4147L44.2224 12.3398L47.8716 19.5116V19.5132ZM50.481 13.0249C50.481 14.5617 50.7181 15.77 51.1906 16.6488C51.6647 17.5276 52.3899 17.9665 53.37 17.9665C53.742 17.9665 54.1221 17.9118 54.5104 17.803C54.8995 17.6919 55.2134 17.5864 55.4489 17.4842L55.6516 18.9295C55.2633 19.1666 54.8284 19.3726 54.3469 19.5508C53.8646 19.7282 53.3201 19.8165 52.7119 19.8165C51.4121 19.8165 50.3592 19.277 49.5565 18.1954C48.7553 17.1139 48.3531 15.5599 48.3531 13.5325C48.3531 12.4175 48.4676 11.4038 48.6965 10.4915C48.9237 9.57919 49.2319 8.80177 49.6202 8.16005C50.0085 7.51914 50.4737 7.02048 51.014 6.66569C51.5536 6.3109 52.1372 6.13433 52.7634 6.13433C53.3193 6.13433 53.8229 6.20954 54.2709 6.36159C54.718 6.51364 55.1194 6.71638 55.4742 6.96979L54.4344 8.7192C54.1973 8.4478 53.9316 8.22054 53.6357 8.03415C53.3414 7.84859 53.0414 7.75621 52.7365 7.75621C52.3825 7.75621 52.0612 7.90744 51.7743 8.21155C51.4882 8.51565 51.2511 8.91295 51.0647 9.40262C50.8791 9.8931 50.7353 10.4539 50.6339 11.0883C50.5325 11.7218 50.4818 12.3676 50.4818 13.0257L50.481 13.0249ZM64.4027 16.4812H65.3886L68.0945 6.41963C68.2956 5.66101 68.473 4.92773 68.6994 3.9165H68.8016C68.7509 4.82718 68.7002 5.73703 68.7002 6.59784V19.2631H69.9134V1.1853H68.4975L65.4148 12.7396C65.2872 13.1949 65.0845 14.1554 64.984 14.838H64.9079C64.8319 14.1563 64.6545 13.2211 64.5286 12.7404L61.4696 1.1853H60.003V19.2622H61.1148V6.59702C61.1148 5.68553 61.0903 4.77568 61.0396 3.91569H61.1156C61.2677 4.74952 61.4704 5.55882 61.723 6.49484L64.4011 16.4804L64.4027 16.4812ZM75.2736 18.5551C76.4622 18.5551 77.2968 17.4188 77.7505 16.052V12.5385H76.3854C74.2877 12.5385 73.2765 13.499 73.2765 15.7234C73.2765 17.5186 74.0613 18.5551 75.2736 18.5551ZM78.1053 19.2631C78.004 18.9344 77.8781 18.4538 77.8029 17.5439C77.1955 18.7579 76.2848 19.5165 75.021 19.5165C73.3026 19.5165 72.114 18.1513 72.114 15.8247C72.114 13.0944 73.6059 11.6785 76.3616 11.6785H77.7514V10.086C77.7514 8.13879 77.0189 7.30414 75.6284 7.30414C74.5411 7.30414 73.5552 7.81098 72.9487 8.6955L72.62 7.55756C73.1252 6.90031 74.1871 6.26758 75.6284 6.26758C77.7268 6.26758 78.9146 7.43085 78.9146 9.95932V16.912C78.9146 17.7965 79.0422 18.784 79.1926 19.2631H78.1053ZM85.1847 18.5551C86.8033 18.5551 87.8644 16.634 87.8644 12.6137C87.8644 9.27591 86.9546 7.30333 85.488 7.30333C84.3501 7.30333 83.3895 8.51728 82.8336 9.88248V17.0109C83.3388 18.0491 84.0468 18.5535 85.1847 18.5535V18.5551ZM85.1087 19.4911C84.149 19.4911 83.3143 19.0105 82.8345 18.3794V23.2074H81.6458V6.52018H82.6824L82.7838 8.61865C83.3397 7.40469 84.2757 6.26676 85.6907 6.26676C87.8146 6.26676 89.0538 8.82057 89.0538 12.5123C89.0538 17.1883 87.4859 19.4903 85.1095 19.4903L85.1087 19.4911ZM92.5175 12.6652L96.9417 19.2622H98.2579L93.756 12.4363L97.9529 6.521H96.7905L92.5175 12.5131V6.521H91.3289V19.2631H92.5167V12.6627L92.5175 12.6652ZM105.715 17.1139L106.094 18.0753C106.094 18.0753 105.134 19.5165 103.112 19.5165C100.406 19.5165 99.1677 17.064 99.1677 12.8916C99.1677 8.7192 100.735 6.26676 102.884 6.26676C105.083 6.26676 106.5 8.56797 106.095 13.0927H100.332C100.381 16.5834 101.292 18.4799 103.138 18.4799C104.83 18.4799 105.716 17.1147 105.717 17.1131L105.715 17.1139ZM102.883 7.2551C101.542 7.2551 100.455 8.97344 100.356 12.16H104.982C105.185 8.7707 104.173 7.2551 102.884 7.2551H102.883ZM114.513 7.50688V6.52018H107.434V7.50606H110.393V19.2614H111.58V7.50688H114.513Z" fill="#333333"/>
<path d="M27.7096 27.7022C27.7719 27.5231 28.0252 27.5231 28.0874 27.7022L29.3624 31.3701C29.3899 31.4491 29.4636 31.5027 29.5473 31.5044L33.4297 31.5835C33.6192 31.5874 33.6975 31.8283 33.5464 31.9428L30.452 34.2889C30.3853 34.3394 30.3572 34.4261 30.3814 34.5062L31.5059 38.223C31.5608 38.4045 31.3558 38.5534 31.2002 38.4451L28.0128 36.2271C27.9441 36.1793 27.853 36.1793 27.7843 36.2271L24.5969 38.4451C24.4412 38.5534 24.2363 38.4045 24.2912 38.223L25.4157 34.5062C25.4399 34.4261 25.4117 34.3394 25.3451 34.2889L22.2507 31.9428C22.0995 31.8283 22.1778 31.5874 22.3674 31.5835L26.2498 31.5044C26.3334 31.5027 26.4072 31.4491 26.4346 31.3701L27.7096 27.7022Z" fill="#FFA300"/>
<path d="M42.5265 27.7022C42.5887 27.5231 42.842 27.5231 42.9043 27.7022L44.1793 31.3701C44.2067 31.4491 44.2805 31.5027 44.3641 31.5044L48.2465 31.5835C48.4361 31.5874 48.5144 31.8283 48.3632 31.9428L45.2688 34.2889C45.2022 34.3394 45.174 34.4261 45.1982 34.5062L46.3227 38.223C46.3776 38.4045 46.1727 38.5534 46.017 38.4451L42.8296 36.2271C42.7609 36.1793 42.6698 36.1793 42.6011 36.2271L39.4137 38.4451C39.258 38.5534 39.0531 38.4045 39.108 38.223L40.2325 34.5062C40.2567 34.4261 40.2286 34.3394 40.1619 34.2889L37.0675 31.9428C36.9164 31.8283 36.9947 31.5874 37.1842 31.5835L41.0666 31.5044C41.1503 31.5027 41.224 31.4491 41.2515 31.3701L42.5265 27.7022Z" fill="#FFA300"/>
<path d="M57.3433 27.7022C57.4055 27.5231 57.6589 27.5231 57.7211 27.7022L58.9961 31.3701C59.0236 31.4491 59.0973 31.5027 59.1809 31.5044L63.0633 31.5835C63.2529 31.5874 63.3312 31.8283 63.1801 31.9428L60.0857 34.2889C60.019 34.3394 59.9908 34.4261 60.0151 34.5062L61.1395 38.223C61.1944 38.4045 60.9895 38.5534 60.8339 38.4451L57.6464 36.2271C57.5778 36.1793 57.4866 36.1793 57.418 36.2271L54.2305 38.4451C54.0749 38.5534 53.87 38.4045 53.9249 38.223L55.0493 34.5062C55.0736 34.4261 55.0454 34.3394 54.9787 34.2889L51.8843 31.9428C51.7332 31.8283 51.8115 31.5874 52.0011 31.5835L55.8835 31.5044C55.9671 31.5027 56.0408 31.4491 56.0683 31.3701L57.3433 27.7022Z" fill="#FFA300"/>
<path d="M72.1601 27.7022C72.2224 27.5231 72.4757 27.5231 72.5379 27.7022L73.8129 31.3701C73.8404 31.4491 73.9141 31.5027 73.9978 31.5044L77.8802 31.5835C78.0697 31.5874 78.148 31.8283 77.9969 31.9428L74.9025 34.2889C74.8358 34.3394 74.8077 34.4261 74.8319 34.5062L75.9564 38.223C76.0113 38.4045 75.8063 38.5534 75.6507 38.4451L72.4633 36.2271C72.3946 36.1793 72.3035 36.1793 72.2348 36.2271L69.0474 38.4451C68.8917 38.5534 68.6868 38.4045 68.7417 38.223L69.8662 34.5062C69.8904 34.4261 69.8622 34.3394 69.7956 34.2889L66.7012 31.9428C66.55 31.8283 66.6283 31.5874 66.8179 31.5835L70.7003 31.5044C70.7839 31.5027 70.8577 31.4491 70.8851 31.3701L72.1601 27.7022Z" fill="#FFA300"/>
<path d="M86.977 27.7022C87.0392 27.5231 87.2925 27.5231 87.3548 27.7022L88.6298 31.3701C88.6572 31.4491 88.731 31.5027 88.8146 31.5044L92.697 31.5835C92.8866 31.5874 92.9649 31.8283 92.8137 31.9428L89.7193 34.2889C89.6527 34.3394 89.6245 34.4261 89.6487 34.5062L90.7732 38.223C90.8281 38.4045 90.6232 38.5534 90.4675 38.4451L87.2801 36.2271C87.2114 36.1793 87.1203 36.1793 87.0516 36.2271L83.8642 38.4451C83.7085 38.5534 83.5036 38.4045 83.5585 38.223L84.683 34.5062C84.7072 34.4261 84.6791 34.3394 84.6124 34.2889L81.518 31.9428C81.3669 31.8283 81.4452 31.5874 81.6347 31.5835L85.5171 31.5044C85.6008 31.5027 85.6745 31.4491 85.702 31.3701L86.977 27.7022Z" fill="#FFA300"/>
</svg>
