<svg width="239" height="66" viewBox="0 0 239 66" fill="none" xmlns="http://www.w3.org/2000/svg">
<path d="M24.9885 32.197C33.5529 30.394 38.9619 30.8447 47.977 34V4.70091H43.9202M24.9885 32.197V6.95461M24.9885 32.197C29.0453 29.0416 34.0036 27.6892 43.9202 28.5908V4.70091M24.9885 32.197C16.4242 30.394 11.0151 30.8446 2 33.9999V4.70082H6.0568M24.9885 32.197C20.9317 29.0416 15.9734 27.6891 6.0568 28.5907V4.70082M43.9202 4.70091V2.44699C36.2574 1.54553 29.9468 1.54549 24.9885 6.95461M24.9885 6.95461C20.0302 1.54549 13.7196 1.54544 6.0568 2.44691V4.70082" stroke="#EA6227" stroke-width="2.5" stroke-linecap="round" stroke-linejoin="round"/>
<path d="M65.977 33.4471V29.8751C67.9331 30.1586 69.3931 29.62 70.357 28.2592C71.3492 26.8701 71.8453 24.3045 71.8453 20.5624V3.68033H91.4914V33.4471H87.5367V7.42244H75.8001V20.5624C75.8001 23.2272 75.5449 25.4668 75.0346 27.2811C74.5527 29.0672 73.844 30.4138 72.9084 31.3209C72.0013 32.2281 70.9807 32.8518 69.8467 33.192C68.7411 33.5038 67.4512 33.5889 65.977 33.4471Z" fill="#0B0B0B"/>
<path d="M100.101 24.5171C100.469 26.4165 101.334 27.8907 102.695 28.9396C104.084 29.9885 105.785 30.513 107.797 30.513C110.604 30.513 112.645 29.4782 113.921 27.4087L117.068 29.1947C114.998 32.3982 111.88 33.9999 107.712 33.9999C104.339 33.9999 101.589 32.951 99.4627 30.8532C97.3648 28.727 96.3159 26.048 96.3159 22.8161C96.3159 19.6127 97.3507 16.9478 99.4202 14.8216C101.49 12.6954 104.169 11.6323 107.457 11.6323C110.576 11.6323 113.113 12.7379 115.069 14.9492C117.053 17.1321 118.046 19.7686 118.046 22.8587C118.046 23.3973 118.003 23.9501 117.918 24.5171H100.101ZM107.457 15.1193C105.473 15.1193 103.828 15.6863 102.524 16.8202C101.22 17.9259 100.412 19.4142 100.101 21.2853H114.304C113.992 19.2725 113.198 17.7416 111.922 16.6927C110.647 15.6437 109.158 15.1193 107.457 15.1193Z" fill="#0B0B0B"/>
<path d="M137.012 12.1851H140.711V33.4471H137.012V24.5596H125.998V33.4471H122.298V12.1851H125.998V21.0301H137.012V12.1851Z" fill="#0B0B0B"/>
<path d="M155.651 34C152.504 34 149.91 32.9653 147.869 30.8957C145.828 28.8262 144.808 26.1614 144.808 22.9012C144.808 19.2725 145.332 16.4801 146.381 14.524C147.458 12.5679 149.641 10.7961 152.93 9.2085C153.525 8.92501 154.333 8.55647 155.353 8.10288C156.402 7.64929 157.168 7.3091 157.65 7.0823C158.132 6.82716 158.67 6.50114 159.266 6.10425C159.861 5.67901 160.3 5.22542 160.584 4.74348C160.896 4.2332 161.123 3.65203 161.264 3L164.241 4.70096C164.156 5.15455 164.043 5.57979 163.901 5.97668C163.759 6.34522 163.546 6.71376 163.263 7.0823C163.008 7.4225 162.781 7.72016 162.583 7.97531C162.384 8.23045 162.044 8.51395 161.562 8.82579C161.108 9.10928 160.768 9.3219 160.541 9.46365C160.343 9.6054 159.932 9.81802 159.308 10.1015C158.713 10.385 158.302 10.5834 158.075 10.6968C157.877 10.7819 157.409 10.9803 156.672 11.2922C155.935 11.5757 155.481 11.7599 155.311 11.845C153.383 12.6671 151.966 13.5034 151.059 14.3539C150.18 15.2044 149.542 16.2817 149.145 17.5857C150.052 16.4518 151.186 15.6155 152.547 15.0768C153.908 14.5382 155.268 14.2689 156.629 14.2689C159.294 14.2689 161.548 15.176 163.391 16.9904C165.262 18.8048 166.197 21.1436 166.197 24.0069C166.197 26.8985 165.205 29.294 163.22 31.1934C161.236 33.0645 158.713 34 155.651 34ZM150.676 28.5569C152.008 29.8043 153.667 30.428 155.651 30.428C157.636 30.428 159.266 29.8185 160.541 28.5995C161.845 27.3804 162.498 25.8496 162.498 24.0069C162.498 22.1075 161.874 20.5624 160.626 19.3717C159.407 18.1527 157.792 17.5432 155.779 17.5432C153.964 17.5432 152.32 18.1244 150.846 19.2867C149.4 20.4207 148.677 21.9232 148.677 23.7942C148.677 25.722 149.343 27.3096 150.676 28.5569Z" fill="#EA6227"/>
<path d="M187.731 12.1852H191.43V33.4472H187.731V29.7901C185.888 32.5967 183.209 34 179.693 34C176.717 34 174.18 32.9227 172.082 30.7682C169.984 28.5853 168.935 25.9346 168.935 22.8162C168.935 19.6978 169.984 17.0613 172.082 14.9067C174.18 12.7238 176.717 11.6324 179.693 11.6324C183.209 11.6324 185.888 13.0357 187.731 15.8422V12.1852ZM180.161 30.428C182.316 30.428 184.116 29.7051 185.562 28.2593C187.008 26.7851 187.731 24.9707 187.731 22.8162C187.731 20.6616 187.008 18.8615 185.562 17.4156C184.116 15.9415 182.316 15.2044 180.161 15.2044C178.035 15.2044 176.249 15.9415 174.803 17.4156C173.357 18.8615 172.635 20.6616 172.635 22.8162C172.635 24.9707 173.357 26.7851 174.803 28.2593C176.249 29.7051 178.035 30.428 180.161 30.428Z" fill="#EA6227"/>
<path d="M208.517 22.561C210.87 23.5249 212.046 25.2117 212.046 27.6214C212.046 29.4074 211.338 30.9241 209.92 32.1715C208.503 33.3905 206.49 34 203.882 34C199.629 34 196.78 32.299 195.334 28.8971L198.439 27.0686C199.261 29.3932 201.089 30.5556 203.924 30.5556C205.342 30.5556 206.433 30.2579 207.199 29.6626C207.992 29.0389 208.389 28.2451 208.389 27.2812C208.389 26.4307 208.063 25.7362 207.411 25.1975C206.787 24.6589 205.937 24.3896 204.86 24.3896H201.755V21.0302H204.052C205.129 21.0302 205.965 20.775 206.561 20.2647C207.156 19.7261 207.454 19.0032 207.454 18.096C207.454 17.1888 207.099 16.4518 206.391 15.8848C205.71 15.3178 204.761 15.0343 203.541 15.0343C201.16 15.0343 199.544 16.0407 198.694 18.0535L195.675 16.31C197.177 13.1916 199.799 11.6324 203.541 11.6324C205.866 11.6324 207.695 12.2277 209.027 13.4184C210.388 14.6091 211.068 16.069 211.068 17.7984C211.068 19.9529 210.218 21.5405 208.517 22.561Z" fill="#EA6227"/>
<path d="M233.66 12.1852H237.359V33.4472H233.66V29.7901C231.817 32.5967 229.138 34 225.623 34C222.646 34 220.109 32.9227 218.011 30.7682C215.913 28.5853 214.864 25.9346 214.864 22.8162C214.864 19.6978 215.913 17.0613 218.011 14.9067C220.109 12.7238 222.646 11.6324 225.623 11.6324C229.138 11.6324 231.817 13.0357 233.66 15.8422V12.1852ZM226.09 30.428C228.245 30.428 230.045 29.7051 231.491 28.2593C232.937 26.7851 233.66 24.9707 233.66 22.8162C233.66 20.6616 232.937 18.8615 231.491 17.4156C230.045 15.9415 228.245 15.2044 226.09 15.2044C223.964 15.2044 222.178 15.9415 220.732 17.4156C219.287 18.8615 218.564 20.6616 218.564 22.8162C218.564 24.9707 219.287 26.7851 220.732 28.2593C222.178 29.7051 223.964 30.428 226.09 30.428Z" fill="#EA6227"/>
<path d="M8.6 55.192C9.112 55.4373 9.51733 55.7893 9.816 56.248C10.1253 56.7067 10.28 57.2347 10.28 57.832C10.28 58.728 9.96533 59.48 9.336 60.088C8.70667 60.696 7.93867 61 7.032 61H2.2V49.8H6.68C7.55467 49.8 8.296 50.0933 8.904 50.68C9.512 51.2667 9.816 51.992 9.816 52.856C9.816 53.848 9.41067 54.6267 8.6 55.192ZM6.68 51.192H3.688V54.616H6.68C7.14933 54.616 7.544 54.4507 7.864 54.12C8.184 53.7893 8.344 53.384 8.344 52.904C8.344 52.4347 8.17867 52.0347 7.848 51.704C7.528 51.3627 7.13867 51.192 6.68 51.192ZM7.032 59.608C7.53333 59.608 7.95467 59.432 8.296 59.08C8.63733 58.728 8.808 58.296 8.808 57.784C8.808 57.2827 8.632 56.856 8.28 56.504C7.93867 56.152 7.52267 55.976 7.032 55.976H3.688V59.608H7.032ZM15.7066 61.208C14.5013 61.208 13.4986 60.808 12.6986 60.008C11.8986 59.1973 11.4986 58.1947 11.4986 57C11.4986 55.8053 11.8986 54.808 12.6986 54.008C13.4986 53.1973 14.5013 52.792 15.7066 52.792C16.496 52.792 17.2053 52.984 17.8346 53.368C18.464 53.7413 18.9333 54.248 19.2426 54.888L18.0746 55.56C17.872 55.1333 17.5573 54.792 17.1306 54.536C16.7146 54.28 16.24 54.152 15.7066 54.152C14.9066 54.152 14.2346 54.424 13.6906 54.968C13.1573 55.512 12.8906 56.1893 12.8906 57C12.8906 57.8 13.1573 58.472 13.6906 59.016C14.2346 59.56 14.9066 59.832 15.7066 59.832C16.24 59.832 16.72 59.7093 17.1466 59.464C17.5733 59.208 17.8986 58.8667 18.1226 58.44L19.3066 59.128C18.9653 59.7573 18.4746 60.264 17.8346 60.648C17.1946 61.0213 16.4853 61.208 15.7066 61.208ZM21.5476 57.64C21.6863 58.3547 22.0116 58.9093 22.5236 59.304C23.0463 59.6987 23.6863 59.896 24.4436 59.896C25.4996 59.896 26.2676 59.5067 26.7476 58.728L27.9316 59.4C27.153 60.6053 25.9796 61.208 24.4116 61.208C23.1423 61.208 22.1076 60.8133 21.3076 60.024C20.5183 59.224 20.1236 58.216 20.1236 57C20.1236 55.7947 20.513 54.792 21.2916 53.992C22.0703 53.192 23.0783 52.792 24.3156 52.792C25.489 52.792 26.4436 53.208 27.1796 54.04C27.9263 54.8613 28.2996 55.8533 28.2996 57.016C28.2996 57.2187 28.2836 57.4267 28.2516 57.64H21.5476ZM24.3156 54.104C23.569 54.104 22.9503 54.3173 22.4596 54.744C21.969 55.16 21.665 55.72 21.5476 56.424H26.8916C26.7743 55.6667 26.4756 55.0907 25.9956 54.696C25.5156 54.3013 24.9556 54.104 24.3156 54.104ZM40.7798 59.672H41.8837V63.144H40.5078V61H34.5078V63.144H33.1318V59.672H34.1078C34.6198 58.968 34.8758 57.9813 34.8758 56.712V53H40.7798V59.672ZM35.6918 59.672H39.4038V54.296H36.2518V56.712C36.2518 57.9067 36.0651 58.8933 35.6918 59.672ZM50.0561 53V61H48.6641V54.344H45.5121V57.608C45.5121 58.92 45.2455 59.8373 44.7121 60.36C44.1895 60.872 43.4481 61.0853 42.4881 61V59.688C43.0321 59.7627 43.4375 59.6453 43.7041 59.336C43.9815 59.016 44.1201 58.4293 44.1201 57.576V53H50.0561ZM58.1494 53V61H56.7734V58.12H55.6054L53.3654 61H51.6694L54.0054 58.04C53.408 57.8907 52.9227 57.592 52.5494 57.144C52.176 56.696 51.9894 56.1733 51.9894 55.576C51.9894 54.84 52.2507 54.2267 52.7734 53.736C53.296 53.2453 53.952 53 54.7414 53H58.1494ZM54.7894 56.872H56.7734V54.296H54.7894C54.3947 54.296 54.0587 54.4133 53.7814 54.648C53.504 54.8827 53.3654 55.1973 53.3654 55.592C53.3654 55.976 53.504 56.2853 53.7814 56.52C54.0587 56.7547 54.3947 56.872 54.7894 56.872ZM73.8271 53H75.2191V61H64.2591V53H65.6511V59.672H69.0431V53H70.4351V59.672H73.8271V53ZM84.1209 61H82.3929L78.7449 57.208V61H77.3529V53H78.7449V56.536L82.2009 53H83.9929L80.1689 56.872L84.1209 61ZM91.433 59.992C90.6117 60.8027 89.6143 61.208 88.441 61.208C87.2677 61.208 86.2703 60.8027 85.449 59.992C84.6383 59.1813 84.233 58.184 84.233 57C84.233 55.816 84.6383 54.8187 85.449 54.008C86.2703 53.1973 87.2677 52.792 88.441 52.792C89.6143 52.792 90.6117 53.1973 91.433 54.008C92.2543 54.8187 92.665 55.816 92.665 57C92.665 58.184 92.2543 59.1813 91.433 59.992ZM88.441 59.848C89.241 59.848 89.913 59.576 90.457 59.032C91.001 58.488 91.273 57.8107 91.273 57C91.273 56.1893 91.001 55.512 90.457 54.968C89.913 54.424 89.241 54.152 88.441 54.152C87.6517 54.152 86.985 54.424 86.441 54.968C85.897 55.512 85.625 56.1893 85.625 57C85.625 57.8107 85.897 58.488 86.441 59.032C86.985 59.576 87.6517 59.848 88.441 59.848ZM100.697 53V61H99.3048V54.344H96.1528V57.608C96.1528 58.92 95.8861 59.8373 95.3528 60.36C94.8301 60.872 94.0888 61.0853 93.1288 61V59.688C93.6728 59.7627 94.0781 59.6453 94.3448 59.336C94.6221 59.016 94.7608 58.4293 94.7608 57.576V53H100.697ZM106.182 55.88C106.982 55.88 107.643 56.12 108.166 56.6C108.699 57.0693 108.966 57.6827 108.966 58.44C108.966 59.1973 108.699 59.816 108.166 60.296C107.643 60.7653 106.982 61 106.182 61H102.806V53H104.198V55.88H106.182ZM110.006 53H111.398V61H110.006V53ZM106.182 59.704C106.577 59.704 106.907 59.592 107.174 59.368C107.451 59.1333 107.59 58.824 107.59 58.44C107.59 58.056 107.451 57.7467 107.174 57.512C106.907 57.2773 106.577 57.16 106.182 57.16H104.198V59.704H106.182ZM123.333 53H124.453V61H123.077V55.384L118.645 61H117.525V53H118.901V58.616L123.333 53ZM137.452 59.672H138.556V63.144H137.18V61H131.18V63.144H129.804V59.672H130.78C131.292 58.968 131.548 57.9813 131.548 56.712V53H137.452V59.672ZM132.364 59.672H136.076V54.296H132.924V56.712C132.924 57.9067 132.737 58.8933 132.364 59.672ZM140.72 57.64C140.858 58.3547 141.184 58.9093 141.696 59.304C142.218 59.6987 142.858 59.896 143.616 59.896C144.672 59.896 145.44 59.5067 145.92 58.728L147.104 59.4C146.325 60.6053 145.152 61.208 143.584 61.208C142.314 61.208 141.28 60.8133 140.48 60.024C139.69 59.224 139.296 58.216 139.296 57C139.296 55.7947 139.685 54.792 140.464 53.992C141.242 53.192 142.25 52.792 143.488 52.792C144.661 52.792 145.616 53.208 146.352 54.04C147.098 54.8613 147.472 55.8533 147.472 57.016C147.472 57.2187 147.456 57.4267 147.424 57.64H140.72ZM143.488 54.104C142.741 54.104 142.122 54.3173 141.632 54.744C141.141 55.16 140.837 55.72 140.72 56.424H146.064C145.946 55.6667 145.648 55.0907 145.168 54.696C144.688 54.3013 144.128 54.104 143.488 54.104ZM154.711 53V54.344H151.991V61H150.599V54.344H147.863V53H154.711ZM159.379 61.208C158.173 61.208 157.171 60.808 156.371 60.008C155.571 59.1973 155.171 58.1947 155.171 57C155.171 55.8053 155.571 54.808 156.371 54.008C157.171 53.1973 158.173 52.792 159.379 52.792C160.168 52.792 160.877 52.984 161.507 53.368C162.136 53.7413 162.605 54.248 162.915 54.888L161.747 55.56C161.544 55.1333 161.229 54.792 160.803 54.536C160.387 54.28 159.912 54.152 159.379 54.152C158.579 54.152 157.907 54.424 157.363 54.968C156.829 55.512 156.562 56.1893 156.562 57C156.562 57.8 156.829 58.472 157.363 59.016C157.907 59.56 158.579 59.832 159.379 59.832C159.912 59.832 160.392 59.7093 160.819 59.464C161.245 59.208 161.571 58.8667 161.795 58.44L162.979 59.128C162.637 59.7573 162.147 60.264 161.507 60.648C160.867 61.0213 160.157 61.208 159.379 61.208ZM171.137 61H169.409L165.761 57.208V61H164.368V53H165.761V56.536L169.217 53H171.009L167.185 56.872L171.137 61ZM178.449 59.992C177.627 60.8027 176.63 61.208 175.457 61.208C174.283 61.208 173.286 60.8027 172.465 59.992C171.654 59.1813 171.249 58.184 171.249 57C171.249 55.816 171.654 54.8187 172.465 54.008C173.286 53.1973 174.283 52.792 175.457 52.792C176.63 52.792 177.627 53.1973 178.449 54.008C179.27 54.8187 179.681 55.816 179.681 57C179.681 58.184 179.27 59.1813 178.449 59.992ZM175.457 59.848C176.257 59.848 176.929 59.576 177.473 59.032C178.017 58.488 178.289 57.8107 178.289 57C178.289 56.1893 178.017 55.512 177.473 54.968C176.929 54.424 176.257 54.152 175.457 54.152C174.667 54.152 174.001 54.424 173.457 54.968C172.913 55.512 172.641 56.1893 172.641 57C172.641 57.8107 172.913 58.488 173.457 59.032C174.001 59.576 174.667 59.848 175.457 59.848ZM186.57 53V54.344H182.714V61H181.322V53H186.57ZM194.23 59.992C193.409 60.8027 192.411 61.208 191.238 61.208C190.065 61.208 189.067 60.8027 188.246 59.992C187.435 59.1813 187.03 58.184 187.03 57C187.03 55.816 187.435 54.8187 188.246 54.008C189.067 53.1973 190.065 52.792 191.238 52.792C192.411 52.792 193.409 53.1973 194.23 54.008C195.051 54.8187 195.462 55.816 195.462 57C195.462 58.184 195.051 59.1813 194.23 59.992ZM191.238 59.848C192.038 59.848 192.71 59.576 193.254 59.032C193.798 58.488 194.07 57.8107 194.07 57C194.07 56.1893 193.798 55.512 193.254 54.968C192.71 54.424 192.038 54.152 191.238 54.152C190.449 54.152 189.782 54.424 189.238 54.968C188.694 55.512 188.422 56.1893 188.422 57C188.422 57.8107 188.694 58.488 189.238 59.032C189.782 59.576 190.449 59.848 191.238 59.848ZM204.863 61.208C203.658 61.208 202.655 60.808 201.855 60.008C201.055 59.1973 200.655 58.1947 200.655 57C200.655 55.8053 201.055 54.808 201.855 54.008C202.655 53.1973 203.658 52.792 204.863 52.792C205.652 52.792 206.362 52.984 206.991 53.368C207.62 53.7413 208.09 54.248 208.399 54.888L207.231 55.56C207.028 55.1333 206.714 54.792 206.287 54.536C205.871 54.28 205.396 54.152 204.863 54.152C204.063 54.152 203.391 54.424 202.847 54.968C202.314 55.512 202.047 56.1893 202.047 57C202.047 57.8 202.314 58.472 202.847 59.016C203.391 59.56 204.063 59.832 204.863 59.832C205.396 59.832 205.876 59.7093 206.303 59.464C206.73 59.208 207.055 58.8667 207.279 58.44L208.463 59.128C208.122 59.7573 207.631 60.264 206.991 60.648C206.351 61.0213 205.642 61.208 204.863 61.208ZM216.352 53H217.744V61H216.352V59.624C215.659 60.68 214.651 61.208 213.328 61.208C212.208 61.208 211.253 60.8027 210.464 59.992C209.675 59.1707 209.28 58.1733 209.28 57C209.28 55.8267 209.675 54.8347 210.464 54.024C211.253 53.2027 212.208 52.792 213.328 52.792C214.651 52.792 215.659 53.32 216.352 54.376V53ZM213.504 59.864C214.315 59.864 214.992 59.592 215.536 59.048C216.08 58.4933 216.352 57.8107 216.352 57C216.352 56.1893 216.08 55.512 215.536 54.968C214.992 54.4133 214.315 54.136 213.504 54.136C212.704 54.136 212.032 54.4133 211.488 54.968C210.944 55.512 210.672 56.1893 210.672 57C210.672 57.8107 210.944 58.4933 211.488 59.048C212.032 59.592 212.704 59.864 213.504 59.864ZM226.733 59.672H227.837V63.144H226.461V61H220.461V63.144H219.085V59.672H220.061C220.573 58.968 220.829 57.9813 220.829 56.712V53H226.733V59.672ZM221.645 59.672H225.357V54.296H222.205V56.712C222.205 57.9067 222.018 58.8933 221.645 59.672ZM235.649 53H237.041V61H235.649V59.624C234.955 60.68 233.947 61.208 232.625 61.208C231.505 61.208 230.55 60.8027 229.761 59.992C228.971 59.1707 228.577 58.1733 228.577 57C228.577 55.8267 228.971 54.8347 229.761 54.024C230.55 53.2027 231.505 52.792 232.625 52.792C233.947 52.792 234.955 53.32 235.649 54.376V53ZM232.801 59.864C233.611 59.864 234.289 59.592 234.833 59.048C235.377 58.4933 235.649 57.8107 235.649 57C235.649 56.1893 235.377 55.512 234.833 54.968C234.289 54.4133 233.611 54.136 232.801 54.136C232.001 54.136 231.329 54.4133 230.785 54.968C230.241 55.512 229.969 56.1893 229.969 57C229.969 57.8107 230.241 58.4933 230.785 59.048C231.329 59.592 232.001 59.864 232.801 59.864Z" fill="black"/>
</svg>
