<svg width="40" height="32" viewBox="0 0 40 32" fill="none" xmlns="http://www.w3.org/2000/svg">
<path d="M12.0784 24.1569C18.7492 24.1569 24.1569 18.7492 24.1569 12.0784C24.1569 5.4077 18.7492 0 12.0784 0C5.4077 0 0 5.4077 0 12.0784C0 18.7492 5.4077 24.1569 12.0784 24.1569Z" fill="#EE0005"/>
<path d="M27.085 24.1569C33.7558 24.1569 39.1635 18.7492 39.1635 12.0784C39.1635 5.4077 33.7558 0 27.085 0C20.4143 0 15.0066 5.4077 15.0066 12.0784C15.0066 18.7492 20.4143 24.1569 27.085 24.1569Z" fill="#F9A000"/>
<path d="M15.0066 12.0782C15.0066 15.9134 16.7944 19.3307 19.5817 21.5432C22.3689 19.3306 24.1568 15.9134 24.1568 12.0782C24.1568 8.24308 22.369 4.82577 19.5817 2.61328C16.7945 4.82595 15.0066 8.24318 15.0066 12.0782Z" fill="#FF6300"/>
<path d="M4.76838 27.7805C4.26817 27.7805 3.76795 28.0559 3.46672 28.6423C3.26782 28.1335 2.85365 27.7805 2.33622 27.7805C1.75857 27.7805 1.3789 28.099 1.18952 28.4357V28.1249C1.18952 27.9527 1.00014 27.8322 0.784036 27.8322C0.517223 27.8322 0.335442 27.9528 0.335442 28.1249V29.5613L0.335348 31.6186C0.335348 31.8252 0.577356 31.9112 0.783942 31.9112C1.01735 31.9112 1.24114 31.8252 1.24114 31.6186L1.24114 30.777V29.4791C1.24114 28.8929 1.63802 28.5821 2.0436 28.5821C2.46629 28.5821 2.84504 28.9359 2.84504 29.4705V31.6272C2.84504 31.8338 3.08705 31.9198 3.29364 31.9198C3.52704 31.9198 3.75083 31.8338 3.75083 31.6272V29.4619C3.75083 28.9015 4.15632 28.5735 4.56189 28.5735C4.95877 28.5735 5.36434 28.8843 5.36434 29.4791V31.6186C5.36434 31.765 5.57953 31.9198 5.81294 31.9198C6.06254 31.9198 6.26913 31.7649 6.26913 31.6186V29.4791C6.26895 28.3926 5.54493 27.7805 4.76838 27.7805Z" fill="black"/>
<path d="M8.48591 27.7805C7.89965 27.7805 7.18324 28.0215 7.18324 28.3324C7.18324 28.5389 7.29609 28.7896 7.51128 28.7896C7.68345 28.7896 7.83933 28.5303 8.46861 28.5303C9.09788 28.5303 9.32268 29.022 9.32268 29.4619V29.6168H8.94301C7.74459 29.6168 6.92503 29.876 6.92503 30.8506C6.92503 31.6272 7.44245 31.9887 8.07173 31.9887C8.65798 31.9887 9.07216 31.6702 9.3744 31.3163V31.6185C9.3744 31.7821 9.55517 31.9197 9.78848 31.9197C10.0381 31.9197 10.2285 31.782 10.2285 31.6185V29.4532C10.2285 28.5906 9.75407 27.7805 8.48591 27.7805ZM9.32277 30.4365C9.32277 30.8506 8.83116 31.2992 8.39987 31.2992C8.08042 31.2992 7.83942 31.127 7.83942 30.7387C7.83942 30.1869 8.45149 30.117 9.10667 30.117H9.32277V30.4365Z" fill="#171614"/>
<path d="M11.8152 28.9789C11.8152 28.7637 12.0046 28.4787 12.5134 28.4787C12.9973 28.4787 13.2641 28.7293 13.4449 28.7293C13.661 28.7293 13.7901 28.4185 13.7901 28.2893C13.7901 28.0129 13.1436 27.7805 12.4962 27.7805C11.4097 27.7805 11.0214 28.4271 11.0214 29.022C11.0214 30.4537 13.1006 29.919 13.1006 30.8248C13.1006 31.0571 12.9362 31.2906 12.3671 31.2906C11.6259 31.2906 11.4442 30.8937 11.2204 30.8937C11.0387 30.8937 10.9096 31.1443 10.9096 31.2992C10.9096 31.6272 11.5399 31.9888 12.3929 31.9888C13.3675 31.9888 13.9108 31.5229 13.9108 30.7903C13.9107 29.2381 11.8152 29.7384 11.8152 28.9789Z" fill="#171614"/>
<path d="M16.4384 31.1444H16.1362C15.6876 31.1444 15.5327 30.9885 15.5327 30.5743V28.5047H16.5848C16.7397 28.5047 16.8354 28.3411 16.8354 28.1681C16.8354 27.9959 16.7397 27.8323 16.5848 27.8323H15.5327V26.2533C15.5327 26.0811 15.2993 25.9607 15.0755 25.9607C14.8594 25.9607 14.6269 26.0812 14.6269 26.2533V30.5743C14.6269 31.5144 15.153 31.92 16.1361 31.92H16.4383C16.6965 31.92 16.8257 31.7306 16.8257 31.5317C16.8258 31.3338 16.6966 31.1444 16.4384 31.1444Z" fill="#171614"/>
<path d="M20.397 30.928C20.1636 30.928 19.957 31.256 19.345 31.256C18.6803 31.256 18.2231 30.8936 18.2231 30.3159V30.117H20.0431C20.4313 30.117 20.8283 30.0912 20.8283 29.3758C20.8283 28.4357 20.0345 27.7805 19.1116 27.7805C18.1197 27.7805 17.3174 28.5475 17.3174 29.4532V30.2729C17.3174 31.2992 18.1456 31.9887 19.3191 31.9887C20.1895 31.9887 20.7509 31.5918 20.7509 31.3335C20.7509 31.1786 20.6122 30.928 20.397 30.928ZM18.2231 29.2811C18.2231 28.8067 18.6285 28.47 19.1029 28.47C19.5946 28.47 19.9742 28.8411 19.9742 29.2983C19.9742 29.5049 19.9054 29.5565 19.6548 29.5565H18.2231V29.2811Z" fill="#171614"/>
<path d="M23.7864 27.7805H23.51C23.0012 27.7805 22.5966 28.1421 22.4149 28.5045V28.1249C22.4149 27.9527 22.2256 27.8322 22.0008 27.8322C21.7426 27.8322 21.5609 27.9528 21.5609 28.1249V31.6186C21.5609 31.765 21.7425 31.9198 22.0008 31.9198C22.2601 31.9198 22.4666 31.7649 22.4666 31.6186V29.8502C22.4666 29.065 22.9841 28.5821 23.5101 28.5821H23.7865C23.9673 28.5821 24.1318 28.4013 24.1318 28.1766C24.1317 27.9613 23.9672 27.7805 23.7864 27.7805Z" fill="#171614"/>
<path d="M27.2966 30.9022C27.0986 30.9022 26.9609 31.1872 26.3909 31.1872C25.7271 31.1872 25.4336 30.842 25.4336 30.2729V29.4963C25.4336 28.9272 25.7358 28.582 26.3823 28.582C26.9352 28.582 27.09 28.8498 27.2708 28.8498C27.4869 28.8498 27.6333 28.582 27.6333 28.4098C27.6333 28.1076 27.0986 27.7805 26.3134 27.7805C25.0806 27.7805 24.5287 28.5303 24.5287 29.4963V30.2729C24.5287 31.2561 25.0806 31.9887 26.322 31.9887C27.1158 31.9887 27.6849 31.6357 27.6849 31.3335C27.685 31.1528 27.5386 30.9022 27.2966 30.9022Z" fill="#171614"/>
<path d="M29.6426 27.7805C29.0564 27.7805 28.34 28.0215 28.34 28.3324C28.34 28.5389 28.4528 28.7896 28.668 28.7896C28.8411 28.7896 28.9961 28.5303 29.6253 28.5303C30.2546 28.5303 30.4794 29.022 30.4794 29.4619V29.6168H30.0998C28.9013 29.6168 28.0818 29.876 28.0818 30.8506C28.0818 31.6272 28.5992 31.9887 29.2285 31.9887C29.8157 31.9887 30.2289 31.6702 30.5311 31.3163V31.6185C30.5311 31.7821 30.7119 31.9197 30.9452 31.9197C31.1948 31.9197 31.3852 31.782 31.3852 31.6185V29.4532C31.3852 28.5906 30.9108 27.7805 29.6426 27.7805ZM30.4795 30.4365C30.4795 30.8506 29.9879 31.2992 29.5566 31.2992C29.2372 31.2992 28.9962 31.127 28.9962 30.7387C28.9962 30.1869 29.6082 30.117 30.2634 30.117H30.4795V30.4365Z" fill="#171614"/>
<path d="M34.5327 27.7805H34.2573C33.7485 27.7805 33.343 28.1421 33.1622 28.5045V28.1249C33.1622 27.9527 32.972 27.8322 32.7482 27.8322C32.4889 27.8322 32.3082 27.9528 32.3082 28.1249V31.6186C32.3082 31.765 32.4889 31.9198 32.7482 31.9198C33.0064 31.9198 33.214 31.7649 33.214 31.6186V29.8502C33.214 29.065 33.7314 28.5821 34.2574 28.5821H34.5328C34.7145 28.5821 34.8781 28.4013 34.8781 28.1766C34.8781 27.9613 34.7145 27.7805 34.5327 27.7805Z" fill="#171614"/>
<path fill-rule="evenodd" clip-rule="evenodd" d="M38.3793 25.4001C38.1211 25.4001 37.9221 25.5207 37.9221 25.6928V28.4358C37.7327 28.0991 37.3445 27.7806 36.8012 27.7806C35.9558 27.7806 35.2576 28.5476 35.2576 29.4791V30.273C35.2576 31.1701 35.9644 31.9887 36.7754 31.9887L37.2795 31.9849C37.5224 31.983 37.7543 31.8829 37.9222 31.7074C37.9222 31.914 38.1642 32 38.3708 32C38.6042 32 38.828 31.914 38.828 31.7074L38.8279 25.6929C38.8279 25.5207 38.6385 25.4001 38.3793 25.4001ZM37.0337 31.1874C37.5348 31.1874 37.9222 30.6786 37.9222 30.4711V29.4792C37.9222 28.9188 37.4736 28.5821 37.0432 28.5821C36.5593 28.5821 36.1633 29.0306 36.1633 29.4792V30.2731C36.1633 30.7388 36.5593 31.1874 37.0337 31.1874Z" fill="black"/>
</svg>
