<svg width="104" height="101" viewBox="0 0 104 101" fill="none" xmlns="http://www.w3.org/2000/svg">
<path fill-rule="evenodd" clip-rule="evenodd" d="M59.3066 84.0186C59.0133 83.8637 58.5507 83.6193 58.0569 83.3583C58.1551 83.203 58.2226 83.0957 58.3328 82.9214C58.2077 82.7793 58.0329 82.6385 57.9368 82.4566C57.8415 82.2756 57.8246 82.0536 57.7744 81.8527C57.6378 81.8063 57.5073 81.762 57.3876 81.7214V81.2314C57.5392 81.1593 57.6928 81.0856 57.8863 80.9933C57.7844 80.7886 57.692 80.6027 57.5827 80.3844C57.791 80.2522 57.9948 80.0128 58.1891 80.0211C58.8431 80.0476 59.5211 79.8194 60.1536 80.1632C60.2427 80.2121 60.3607 80.2212 60.4659 80.2237C61.2301 80.2435 61.9802 80.2514 62.7486 80.42C63.7033 80.6288 64.7111 80.5902 65.6935 80.6847C66.0427 80.7182 66.3824 80.8354 66.7295 80.9017C67.0414 80.9609 67.4092 80.7617 67.6614 81.1146C67.6879 81.1519 67.8031 81.1312 67.8764 81.1287C68.7856 81.0993 69.638 81.3867 70.5153 81.5533C71.3176 81.7053 72.1257 81.8337 72.9168 82.037C74.5459 82.455 76.1948 82.7859 77.8015 83.3107C78.4224 83.5137 79.0685 83.7262 79.7263 83.8525C79.9015 83.886 80.0489 84.0612 80.3993 84.3023H79.3146C79.3108 84.3483 79.3071 84.3947 79.303 84.4415C79.6799 84.5811 80.056 84.7211 80.4834 84.8801C80.3956 85.035 80.3124 85.1825 80.2382 85.3134C80.3157 85.4289 80.394 85.5449 80.5079 85.7143C80.1073 86.0005 79.7457 86.2594 79.3804 86.5204C79.327 86.3878 79.2748 86.2586 79.1969 86.0651C79.0399 86.136 78.8888 86.2035 78.7343 86.2731C78.6059 86.223 78.4485 86.1612 78.2911 86.0999C78.132 86.0386 77.9721 85.9773 77.881 85.9425C77.6114 86.0138 77.3802 86.0751 77.1822 86.1277C77.0004 85.9454 76.867 85.8129 76.7345 85.6799C76.0668 86.1906 75.4617 85.5735 74.8217 85.5673C74.6917 85.5656 74.5633 85.431 74.4332 85.4293C73.6379 85.4186 72.8957 85.1754 72.1331 84.9907C71.4352 84.8209 70.695 84.8308 69.9756 84.7405C69.5527 84.6875 69.1339 84.5985 68.7151 84.5173C68.2951 84.4361 67.8159 84.7182 67.4448 84.3077C67.41 84.2692 67.3027 84.2973 67.2286 84.2924C66.0564 84.2174 64.883 84.1548 63.7124 84.0608C63.2514 84.0235 62.7991 83.8852 62.3381 83.8496C61.8522 83.8115 61.3598 83.8206 60.8722 83.8467C60.4117 83.8715 59.9535 83.9448 59.3066 84.0186Z" fill="#549119"/>
<path fill-rule="evenodd" clip-rule="evenodd" d="M22.4609 82.1233C22.038 81.8678 21.7373 81.6855 21.4453 81.5091C21.7941 80.5626 21.7941 80.5626 20.6608 80.0117C20.5278 80.1451 20.3949 80.2777 20.1886 80.4843C20.0962 80.3419 20.0039 80.199 19.8718 79.9952C20.2263 79.6601 20.2164 79.233 19.8113 78.8358C20.1422 78.5426 20.4206 78.2961 20.7813 77.9759C20.8969 77.9706 21.15 77.9577 21.4147 77.9449C21.442 77.8173 21.4639 77.7142 21.4867 77.6073C21.5431 77.5783 21.6052 77.5187 21.6669 77.5195C21.9962 77.524 22.3023 77.3505 22.5918 77.319C23.9218 77.1753 25.205 76.6716 26.5768 76.8203C26.9094 76.8564 27.3734 76.5146 27.585 76.6493C27.9487 76.88 28.1554 76.5627 28.4387 76.5991C28.8086 76.6468 29.1921 76.6401 29.5636 76.5991C29.7596 76.5776 29.9418 76.4347 30.1149 76.3535C30.2297 76.4587 30.3105 76.5333 30.3254 76.5465C31.0821 76.2939 31.7722 76.2976 32.6089 76.5842C32.6378 76.566 32.7861 76.3958 32.9319 76.3978C34.0068 76.4136 35.08 76.4869 36.1544 76.4952C36.8225 76.5006 37.4906 76.4107 38.1596 76.3937C38.3559 76.3887 38.5547 76.4873 38.8049 76.5515C38.8223 76.5358 38.9014 76.4641 38.9768 76.3962C39.0621 76.4716 39.1441 76.5445 39.2377 76.6277C39.9191 76.2396 40.634 76.4049 41.3444 76.4169C41.3444 76.5755 41.3444 76.6505 41.3444 76.7259C41.1571 76.822 40.9703 76.9181 40.7603 77.0253C40.7131 76.9839 40.6348 76.9148 40.5503 76.8398C39.7393 77.2677 38.8322 76.9603 37.9732 77.2271C38.2022 77.2478 38.4594 77.3435 38.6537 77.2706C38.932 77.1666 39.0932 77.6363 39.4088 77.3443C39.5244 77.2378 39.857 77.3667 40.2364 77.4019C40.2248 77.4081 40.3689 77.324 40.4981 77.2482C40.6232 77.3625 40.704 77.4367 40.7848 77.51C41.0258 77.1525 41.3841 77.3215 41.6956 77.3C41.8074 77.4122 41.9139 77.5187 42.0638 77.6682C41.8016 77.7196 41.573 77.7647 41.3444 77.809C41.3464 77.85 41.3481 77.8902 41.3502 77.9308C41.6322 77.9515 41.9147 77.9718 42.3107 78.0004C42.1943 78.3765 42.0945 78.6983 41.969 79.1038C40.9794 79.0052 39.9758 78.9046 39.1205 78.8193C38.792 79.1328 38.5796 79.3362 38.387 79.5197C37.8659 79.3904 37.6696 78.9738 37.4252 78.608C37.2591 78.777 37.1278 78.9108 37.0271 79.0139C36.6701 78.9514 36.3404 78.8934 36.0745 78.847C35.8947 79.1349 35.7638 79.3445 35.6412 79.5408H34.8965C34.7876 79.6696 34.6674 79.8121 34.5378 79.9653H33.5081C33.4733 79.8668 33.4277 79.7359 33.3453 79.501C32.8955 79.6336 32.439 79.7682 32.0141 79.8937C31.7034 79.8539 31.3986 79.7988 31.0912 79.7785C30.7918 79.7587 30.4165 79.6622 30.2065 79.8005C29.8905 80.0084 29.5893 79.9811 29.2679 80.001C28.939 80.0209 28.5551 79.9517 28.2983 80.1C28.0576 80.2391 27.8555 79.9347 27.6003 80.1961C27.4417 80.3576 26.9832 80.2259 26.6522 80.3866C26.8805 80.4309 27.1091 80.4756 27.3883 80.5303C26.8084 80.9677 26.3681 80.4611 25.8855 80.4235C25.3355 80.3808 24.9482 80.8124 24.4164 80.7909C24.5564 80.8592 24.6964 80.9271 24.8248 80.9897C24.7829 81.0361 24.7361 81.1264 24.6997 81.1222C24.5249 81.1027 24.3534 81.0535 24.1794 81.0228C23.9603 80.9839 23.7391 80.9532 23.5014 81.0315C23.6472 81.1015 23.7926 81.1711 24.0809 81.3094H22.9812C22.8018 81.5903 22.6519 81.8243 22.4609 82.1233Z" fill="#549119"/>
<path fill-rule="evenodd" clip-rule="evenodd" d="M23.2214 21.0883C23.4289 21.2205 23.6989 21.3928 24.0233 21.5999C23.8257 21.667 23.6948 21.7117 23.5498 21.761C23.5631 21.812 23.5614 21.8969 23.5921 21.9105C23.8447 22.0261 24.1036 22.1276 24.3608 22.2336C24.073 22.6283 24.6321 22.9924 24.348 23.3317C24.167 23.5624 23.986 23.7927 23.7934 24.0379C22.7562 23.5562 21.6888 23.6518 20.6951 23.7931C19.9297 23.9024 19.1725 23.9057 18.4146 23.9815C18.0314 24.0205 17.6814 24.3013 17.2668 24.1924C17.1065 24.1505 16.9553 24.0735 16.8 24.013C16.554 24.6737 16.0105 24.6836 15.342 24.6178C15.2521 24.3622 15.1598 24.1008 15.0922 23.9095C14.8151 23.6531 14.5716 23.4273 14.2696 23.1486C14.2286 23.2277 14.1321 23.4141 14.1139 23.4493C13.1397 23.6427 12.3009 23.2911 11.5003 23.7715C11.4054 23.702 11.292 23.6191 11.1693 23.5301C10.8169 23.6158 10.4395 23.7078 10.068 23.7989C9.96941 23.5938 9.89982 23.4476 9.80828 23.2567C9.74284 23.4369 9.69562 23.5669 9.61609 23.7848C9.32864 23.7015 9.03497 23.6166 8.70361 23.5205C8.63982 23.651 8.56692 23.8005 8.46544 24.008C8.31343 23.9323 8.16225 23.8577 8.00319 23.7786C7.54385 24.1725 6.96272 23.8705 6.5216 23.9695C6.29959 23.8577 6.14923 23.7811 5.9732 23.692C5.90402 23.8854 5.85722 24.0159 5.82201 24.1133C4.94805 24.2209 4.08941 24.3266 3.24651 24.4305C3.18686 24.5937 3.13965 24.7242 3.07337 24.906C2.98142 24.7172 2.91183 24.5734 2.83562 24.4165C2.34231 24.4036 2.24207 24.9383 1.82207 25.1256C1.5516 24.9715 1.24799 24.7983 0.936509 24.6211C0.917456 24.4177 0.900473 24.2396 0.881834 24.0453C0.568698 23.8879 0.00911243 24.0681 0 23.4518C0.229882 23.2965 0.459349 23.1411 0.744319 22.9485C0.554201 22.8856 0.427041 22.8429 0.291183 22.7982C0.313136 22.3251 0.678462 22.1425 1.08935 21.9362C1.39254 21.9362 1.87343 22.0787 2.11657 21.8985C2.39201 21.6947 2.6368 21.9453 2.90107 21.7386C3.14669 21.5469 3.60893 21.8451 3.93822 21.527C4.03805 21.4301 4.35325 21.4147 4.4655 21.4996C4.77491 21.7341 5.02882 21.4972 5.30509 21.4876C5.68077 21.4748 6.05686 21.4843 6.43296 21.4843C6.77136 21.4843 7.19012 21.6107 7.43036 21.457C7.87189 21.1749 8.31426 21.4321 8.75663 21.2896C9.19941 21.1476 9.73166 21.312 10.2105 21.2433C10.6843 21.1753 11.1076 21.4429 11.6142 21.2896C12.0967 21.1443 12.6596 21.2876 13.1832 21.2503C13.6815 21.2143 14.1764 21.1194 14.6689 21.0291C15.1622 20.9392 15.6966 21.2445 16.17 20.8233C16.2959 20.7118 16.6062 20.8067 16.8319 20.8067C18.3359 20.8067 19.8402 20.7814 21.3434 20.8191C21.9498 20.8344 22.5533 20.9881 23.2214 21.0883Z" fill="#549119"/>
<path fill-rule="evenodd" clip-rule="evenodd" d="M57.3088 94.3124C56.9443 94.5348 56.7334 94.6632 56.5255 94.7895C56.8034 94.9088 57.1046 95.0385 57.4533 95.1884C57.3709 95.3922 57.3191 95.521 57.2383 95.7203C57.8307 96.2927 56.9488 96.605 56.8726 97.1787C56.3093 96.89 55.7655 96.6112 55.2001 96.3213C55.176 96.3917 55.1334 96.5163 55.0609 96.7297C53.3109 96.3465 51.5186 96.185 49.7036 96.1092C49.9318 96.0645 50.1605 96.0201 50.3883 95.9754C50.3866 95.9402 50.3846 95.9054 50.3825 95.8702H48.6383C48.594 95.9928 48.5468 96.1229 48.4946 96.267H48.0385C47.2495 96.267 46.4575 96.2281 45.6714 96.2782C44.9511 96.3237 44.237 96.4646 43.3643 96.5855C42.9492 96.7785 42.4754 97.2855 41.6412 97.1339C41.526 96.9948 41.3397 96.7698 41.1114 96.494C41.1417 96.4335 41.205 96.3097 41.2692 96.1837C40.9395 95.6917 40.5924 95.1735 40.2793 94.7063C40.4549 94.1587 40.6098 93.6749 40.8053 93.064C41.3289 92.6162 42.1208 92.4671 42.883 92.4464C45.024 92.388 47.1675 92.4149 49.3097 92.4365C49.6924 92.4398 50.0739 92.5794 50.4566 92.651C50.8406 92.7227 51.2689 92.4924 51.6205 92.8523C51.6951 92.929 51.9063 92.8722 52.0542 92.878C53.2421 92.9232 55.5294 93.5681 56.8026 94.2101C56.8929 94.2552 57.0068 94.2532 57.3088 94.3124Z" fill="#549119"/>
<path fill-rule="evenodd" clip-rule="evenodd" d="M74.8251 20.9339C74.6545 20.9932 74.5236 21.0383 74.2896 21.1195C74.5629 21.3233 74.787 21.4906 75.05 21.6865C74.9743 21.8054 74.8989 21.923 74.8115 22.0597C74.9386 22.1202 75.084 22.1902 75.2306 22.2606V22.5095C75.0882 22.5762 74.9353 22.6479 74.7825 22.7195C74.8603 22.8074 74.9295 22.8861 74.9987 22.9648C74.8015 23.0666 74.6151 23.1636 74.348 23.3019C72.7583 23.2008 71.0617 23.5144 69.3714 23.1797C69.5159 23.2493 69.6605 23.3189 69.8096 23.391C69.1361 23.8656 68.5028 23.072 67.8429 23.3392C67.8264 23.3694 67.7932 23.403 67.8003 23.4208C67.8127 23.4531 67.8529 23.473 67.8753 23.5028C67.9121 23.5529 67.944 23.6068 68.0621 23.7894C67.5269 23.7024 67.0982 23.6329 66.6032 23.5521C66.7279 23.6962 66.795 23.7737 66.8629 23.8524C66.4918 24.262 66.1671 23.678 65.7127 23.7621C65.8134 23.8979 65.8651 23.9684 65.9563 24.0914C65.3776 24.279 64.8193 24.5644 64.2386 24.6207C63.575 24.6858 63.2756 25.3787 62.6783 25.3477C62.5565 25.8074 62.4488 26.2146 62.3341 26.647H61.5322C61.4473 26.5625 61.2427 26.4486 61.2501 26.3504C61.3031 25.614 60.4925 25.2574 60.5253 24.4874C60.5808 23.1731 61.1101 22.1542 62.3598 21.4906C63.23 21.0284 64.1458 20.7065 65.1395 20.5537C65.7119 20.4659 66.2831 20.4083 66.8522 20.3284C67.4238 20.248 67.9813 20.0997 68.569 20.1242C69.1324 20.1474 69.6977 20.1291 70.2623 20.1291C70.8641 20.1291 71.4738 20.0695 72.0666 20.1436C72.8738 20.2439 73.6703 20.4365 74.4656 20.615C74.5911 20.6432 74.6864 20.8059 74.8251 20.9339Z" fill="#549119"/>
<path fill-rule="evenodd" clip-rule="evenodd" d="M49.426 65.7361H48.6569C48.5351 65.2192 48.4216 64.7379 48.299 64.2173H47.7763C47.3985 63.5902 48.1246 63.0832 47.8753 62.5468C48.2791 61.9582 48.8718 61.841 49.4712 61.6915C50.674 61.392 51.9125 61.3775 53.1182 61.1932C54.6462 60.9604 56.1585 60.991 57.6624 61.0565C59.4775 61.1356 61.2987 61.3684 63.0483 61.9325C63.2115 61.9851 63.3436 62.1355 63.537 62.2742C63.3623 62.3318 63.2351 62.3741 63.0939 62.4209C63.1026 62.471 63.0922 62.5501 63.1228 62.5716C63.3834 62.7593 63.651 62.937 63.9384 63.1325C63.8614 63.2265 63.7992 63.3027 63.7396 63.3756C63.8204 63.5177 63.9036 63.6639 63.9956 63.8271C63.7918 63.9223 63.6394 63.9936 63.4878 64.0648C63.5656 64.1547 63.6331 64.2322 63.7052 64.315C63.2123 64.53 62.8259 64.7578 62.1983 64.4587C61.5812 64.1642 60.7793 64.2202 60.0557 64.1945C59.0028 64.1572 57.9474 64.1961 56.8933 64.1796C56.4658 64.1729 56.0284 64.2881 55.6159 63.9795C55.4672 63.8681 55.1441 63.9894 54.8537 64.0077C54.9813 64.156 55.0484 64.2334 55.2012 64.4111C54.6678 64.4111 54.2237 64.4422 53.7863 64.4012C53.4181 64.3668 53.0573 64.2491 52.5301 64.1319C52.7189 64.3585 52.7827 64.4351 52.8755 64.5465C52.3424 64.7835 51.8499 64.5817 51.2042 64.3071C51.3682 64.5788 51.4275 64.6762 51.5579 64.8928C51.1168 64.7996 50.7668 64.7263 50.3062 64.6294C50.4603 64.812 50.5249 64.8887 50.6483 65.0353C50.365 65.0626 50.1281 65.0858 49.8369 65.114C49.7118 65.3037 49.5602 65.5332 49.426 65.7361Z" fill="#549119"/>
<path fill-rule="evenodd" clip-rule="evenodd" d="M36.4497 63.695C36.3023 63.5475 36.1958 63.441 36.002 63.2472C35.9361 63.4613 35.8699 63.6763 35.8579 63.7157C35.138 63.6071 34.6587 63.5351 34.0093 63.4377C34.1882 63.6693 34.2445 63.7426 34.3448 63.8731C34.2201 63.9124 34.112 63.9472 34.0026 63.982C33.9124 63.7989 33.8378 63.6486 33.7119 63.3934C33.5595 63.6018 33.4509 63.7505 33.3345 63.9099C32.589 63.8354 31.8078 63.7575 31.0763 63.685C31.0005 63.808 30.9653 63.8416 30.9719 63.8598C30.984 63.8921 31.0245 63.912 31.0469 63.9418C31.085 63.9919 31.1182 64.0462 31.2345 64.2189C30.5602 64.1158 29.9866 64.028 29.2642 63.917C29.4489 64.1348 29.5148 64.2119 29.5806 64.2897C29.142 64.6704 28.734 64.2384 28.1984 64.1439C28.3227 64.3523 28.3803 64.4484 28.454 64.5726C27.9205 64.8477 27.4376 64.1029 26.8991 64.5221C27.0424 64.5917 27.1837 64.6609 27.3961 64.7648C26.9732 64.8572 26.6092 64.9363 26.0777 65.0519C25.5621 64.8141 25.1503 64.3092 25.0219 63.5301C24.8534 63.5173 24.6757 63.504 24.4019 63.4837C24.4396 63.2199 24.4768 62.9618 24.5278 62.6102C24.5315 62.6151 24.447 62.5041 24.3774 62.4126C24.43 62.3016 24.4462 62.2258 24.4913 62.1777C25.1284 61.5051 25.8537 61.1033 26.825 60.9736C27.4347 60.8921 28.0688 60.9281 28.6495 60.7748C29.97 60.4265 31.2987 60.6133 32.6221 60.5781C33.9372 60.5429 35.2548 60.5371 36.5695 60.5806C37.5764 60.6145 38.5116 60.9314 39.3297 61.5597C39.234 61.6641 39.1599 61.7449 39.0787 61.8335C39.0816 62.2535 39.4154 62.3347 39.7542 62.4602C39.6905 62.5418 39.6329 62.6155 39.5277 62.7497C39.6917 62.8607 39.8698 62.9813 40.0061 63.0736C39.8814 63.3039 39.799 63.4551 39.6851 63.6655C39.538 63.7401 39.3206 63.8511 39.1052 63.9609C38.2656 63.4816 37.3544 63.8702 36.4497 63.695Z" fill="#549119"/>
<path fill-rule="evenodd" clip-rule="evenodd" d="M53.8361 1.95079C53.7868 2.28298 53.7558 2.49091 53.7234 2.71044C53.3043 2.38695 52.9427 3.01032 52.4402 2.53937C52.4651 2.61766 52.4245 2.48967 52.3715 2.3215H51.6201C51.5091 2.45736 51.3753 2.62097 51.1848 2.85375C51.0949 2.59777 51.0489 2.4673 50.9818 2.27718C50.7959 2.28712 50.5917 2.29789 50.3245 2.31239C50.462 2.46481 50.5329 2.54434 50.6579 2.68351C50.3291 2.71209 50.0474 2.73653 49.7807 2.76014C49.7525 2.80902 49.7185 2.84257 49.7252 2.86079C49.7376 2.89268 49.7782 2.91257 49.8001 2.9428C49.8378 2.99292 49.8701 3.04677 49.9161 3.11635C48.9485 3.42949 48.0481 2.69055 47.0101 3.03558C47.0672 3.1176 47.1289 3.20623 47.2474 3.37647C46.9388 3.37647 46.5781 3.48541 46.4144 3.35245C46.1291 3.1205 45.8155 3.12091 45.5782 3.20251C44.6011 3.53925 43.5312 3.39718 42.5711 3.84038C42.3296 3.95221 41.9639 3.79481 41.6056 3.75547C41.3935 4.11002 41.1541 4.2376 40.4123 4.2757C40.5978 4.06032 40.7386 3.89629 40.9313 3.67263H40.2892C40.2458 3.43446 40.2081 3.22777 40.1671 3.0041C39.962 2.97221 39.7549 2.94032 39.5449 2.9076C39.6423 2.49008 39.7301 2.11357 39.8328 1.67245C40.3663 1.28268 41.0754 1.09132 41.7497 0.808424C42.1958 0.62162 42.7397 0.949667 43.0776 0.473336C43.836 0.397951 44.5998 0.355702 45.3524 0.241383C47.9458 -0.153765 50.556 0.112566 53.1552 0.000731975C53.588 -0.0179071 54.0088 0.328365 54.4355 0.021442C54.8157 0.489489 55.4055 0.0993119 55.8686 0.386353C56.2356 0.61375 56.7322 0.633217 57.269 0.769489C57.0085 0.891679 56.8556 0.963336 56.6697 1.05032C56.8051 1.52292 57.3353 1.45831 57.5809 1.74908C57.4488 1.80292 57.32 1.85552 57.1915 1.90771C57.2715 2.05186 57.3506 2.19476 57.4318 2.34055C57.0259 2.60399 56.6369 2.69428 56.2045 2.76511C55.787 2.83345 55.4221 2.38736 55.0273 2.71913C54.6749 2.49215 54.3224 2.26434 53.8361 1.95079Z" fill="#549119"/>
<path fill-rule="evenodd" clip-rule="evenodd" d="M45.0073 13.5508C44.84 13.8208 44.7662 13.9393 44.6879 14.0656C44.9559 14.2466 45.1846 14.4011 45.4169 14.5581C45.3548 14.6331 45.3113 14.6861 45.2334 14.781C45.2856 14.8961 45.3652 15.0311 45.4062 15.1774C45.4352 15.2805 45.412 15.3981 45.412 15.575C45.0918 15.7473 44.7534 15.9291 44.5591 16.0339C43.9888 16.1292 43.7672 15.4549 43.3004 15.8016C42.9031 15.3766 42.532 15.8185 42.1485 15.8276C41.096 15.8533 40.0414 15.8612 38.9902 15.8231C38.6108 15.8094 38.2368 15.6446 37.8383 15.5431C37.7729 15.734 37.7281 15.8653 37.683 15.9962C37.3818 16.3193 37.1134 15.734 36.732 15.9921C36.4714 16.1677 36.0079 16.0878 35.6422 16.0509C35.3071 16.0174 34.9807 15.889 34.5131 15.7659C34.6489 16.0074 34.7049 16.1072 34.8329 16.3342C33.9771 16.1412 33.1918 16.5045 32.3916 16.0894C32.0739 15.9246 31.5996 16.0621 31.1887 16.2269C31.5615 16.2659 31.9343 16.3048 32.3071 16.3437C32.3054 16.3798 32.3042 16.4162 32.3029 16.4523H30.7646C30.6705 16.3495 30.4804 16.1416 30.328 15.9751C30.405 15.7866 30.4668 15.6355 30.5442 15.4445C30.3624 15.4072 30.2592 15.3861 30.1047 15.3542C30.0745 15.1778 30.0389 14.9711 30.0041 14.7689C29.8637 14.7192 29.7332 14.6733 29.6031 14.6277V14.0652C30.3466 14.0424 31.1046 14.0188 31.8626 13.9952C31.863 13.9426 31.863 13.8904 31.863 13.8382H29.9457C29.6591 13.4182 30.0592 13.1494 30.147 13.1643C30.6184 13.2455 30.9692 12.9046 31.4078 12.8922C33.4834 12.833 35.5577 12.7447 37.6324 12.6764C38.1962 12.6578 38.762 12.6499 39.3245 12.6785C40.4975 12.7373 41.6767 12.7659 42.8385 12.9208C43.5526 13.0156 44.2394 13.3197 45.0073 13.5508Z" fill="#549119"/>
<path fill-rule="evenodd" clip-rule="evenodd" d="M14.4331 3.94091C13.9427 4.16996 13.5704 4.34434 13.1959 4.51913C13.063 4.38576 12.93 4.2528 12.7457 4.06848C12.6964 4.21056 12.657 4.32322 12.5986 4.49138H11.5776C11.5474 4.37624 11.5209 4.27434 11.4741 4.09665C11.2604 4.16209 11.1684 4.36961 10.9762 4.51168H10.2331C10.1913 4.39363 10.1445 4.26274 10.0583 4.02044C9.98793 4.2089 9.94817 4.31369 9.90012 4.44251C9.33267 4.68564 8.71054 4.80866 8.04409 4.78008C7.73923 4.76766 7.42775 4.90931 7.11379 4.98263C7.04338 4.91801 6.96385 4.84553 6.88846 4.77635C6.8019 4.85257 6.71988 4.92588 6.60557 5.02736C6.33302 4.88695 6.05426 4.74322 5.84054 4.63304C5.49799 4.69517 5.19231 4.75067 4.84272 4.81363C4.79302 4.65209 4.75326 4.52369 4.70521 4.36712C4.07231 4.3257 3.63657 3.89369 3.1532 3.53375C3.24929 3.43766 3.32882 3.35813 3.48829 3.19825H4.4803C4.48568 3.156 4.49107 3.11375 4.49604 3.07109C4.12781 2.9634 3.75917 2.85529 3.30645 2.72274C3.49243 2.52393 3.58935 2.42121 3.72107 2.28079C4.66172 2.28079 5.63509 2.2957 6.60805 2.27458C7.10923 2.2634 7.63361 2.40837 8.1 2.06085C8.34314 1.87943 8.60409 2.39221 8.83562 2.12629C9.09864 1.82434 9.27633 2.44813 9.5758 2.13209C9.69882 2.00203 10.1089 2.16647 10.3868 2.15612C10.7542 2.14328 11.1199 2.06085 11.4865 2.05961C13.9332 2.0505 16.3815 2.10269 18.8262 2.03393C19.9979 2.00162 21.1639 1.75434 22.3465 1.8289C22.841 1.4818 23.3832 1.64085 23.9403 1.5957C23.7394 2.26712 23.1628 1.94073 22.5772 2.22322C23.2461 2.26008 23.6744 2.28411 24.292 2.31848C24.012 2.47091 23.8637 2.55209 23.652 2.66766C23.773 2.82754 23.886 2.9605 23.9792 3.10629C24.0654 3.24132 24.13 3.38961 24.2882 3.69487C23.9722 3.53334 23.8334 3.46209 23.6176 3.35109C23.5452 3.52712 23.4843 3.67499 23.4196 3.83156C23.3062 3.76612 23.1935 3.7015 23.0332 3.60872C22.9375 3.67458 22.822 3.75452 22.6977 3.84026C22.6347 3.78351 22.556 3.71144 22.4769 3.63979C22.3456 3.77109 22.2123 3.90405 22.0631 4.05316C21.8324 3.93428 21.5955 3.81209 21.3362 3.67872C21.2811 3.79304 21.2111 3.93677 21.1424 4.07842C21.0608 4.08215 20.987 4.08547 20.8802 4.09002C20.8383 3.96949 20.7936 3.84109 20.736 3.67458H20.1794C20.1487 3.7628 20.1031 3.89411 20.0282 4.11198C19.7121 4.03825 19.3866 3.96245 19.0577 3.88541C19.0043 4.01919 18.9529 4.14884 18.8709 4.35387C18.7002 4.09458 18.5553 3.87422 18.4149 3.6605C18.2757 3.87795 18.1274 4.10949 18.0094 4.29381C17.4166 4.41186 17.2058 4.10493 17.0886 3.57476C16.9113 3.82203 16.7783 4.00718 16.5895 4.27061H15.6629C15.6376 4.19482 15.5941 4.06558 15.5399 3.90529H15.1041C15.2156 4.037 15.2802 4.11446 15.3469 4.19274C15.1804 4.44458 14.9057 4.35925 14.4331 3.94091Z" fill="#549119"/>
<path fill-rule="evenodd" clip-rule="evenodd" d="M69.2159 76.5756C69.0966 76.8225 68.9778 77.0685 68.8088 77.4198C68.7313 77.1899 68.6978 77.0909 68.6315 76.8954C68.412 76.7662 67.9166 76.895 67.7965 76.4907C67.7356 76.2857 67.8594 76.0256 67.9058 75.7547C67.7091 75.6652 67.4241 75.5356 67.0613 75.3707C67.118 74.7941 67.1768 74.1902 67.2456 73.4894C67.2613 73.5072 67.1884 73.4248 67.0236 73.2384C67.3011 73.2893 67.4742 73.3217 67.7198 73.3664C67.743 73.168 67.7745 72.9058 67.8201 72.5202C68.3623 72.2866 68.9579 71.9929 69.58 71.7717C70.2154 71.5464 70.9514 71.5692 71.5371 71.3182C72.211 71.0286 72.9636 71.5265 73.5435 70.9719C73.6181 71.0406 73.6988 71.1152 73.7792 71.1893C74.5844 70.7727 75.443 71.0398 76.4748 70.9321C76.2901 71.1401 76.2172 71.2221 76.1455 71.3028C76.2155 71.3815 76.2851 71.4598 76.4408 71.6354C75.7437 71.5911 75.1282 71.8164 74.5513 71.4093C73.9055 71.7344 73.2312 71.9279 72.4873 71.8724C71.6154 71.8069 70.8123 72.0853 69.8865 72.4568C70.1901 72.685 70.396 72.8399 70.625 73.0122C70.6727 72.8731 70.7174 72.7418 70.7617 72.6109C70.8276 72.5885 70.8922 72.557 70.9601 72.5459C71.4547 72.4622 71.9509 72.6535 72.4653 72.3487C72.8327 72.1312 73.4151 72.485 73.8239 72.0948C73.8434 72.0762 73.8968 72.0948 73.9345 72.0923C74.9949 72.0169 76.0544 71.9254 77.116 71.8761C77.4275 71.862 77.7903 71.7299 78.0537 72.0708C78.0976 72.1275 78.2844 72.1275 78.3743 72.0861C79.4102 71.616 80.5008 71.9817 81.5583 71.8682C81.6701 71.8558 81.784 71.8666 81.9013 71.8666C82.0309 71.9983 82.1626 72.1321 82.3316 72.304H83.6616C83.8306 72.4543 83.9408 72.5529 84.0779 72.6755C83.9163 72.7314 83.7855 72.777 83.5862 72.8462C83.8252 73.0011 84.0344 73.1373 84.3372 73.3345C83.9255 73.6323 83.563 73.8941 83.2238 74.1397C82.6095 73.95 82.1079 73.2881 81.4303 73.887C81.2572 73.4757 81.0952 73.0466 80.4702 73.2757C80.4561 73.3618 80.4399 73.4641 80.423 73.5698C80.5816 73.6468 80.727 73.7168 80.8902 73.7951C80.7974 73.8398 80.7369 73.8763 80.6715 73.8986C80.266 74.0378 79.9487 73.3639 79.4616 73.8191C79.1588 74.1012 78.6556 73.9123 78.224 74.0755C77.6747 74.2826 76.9888 74.1256 76.1028 74.1256C76.5129 73.9343 76.6633 73.8638 76.9594 73.7255H75.7313C75.7992 73.904 75.8639 74.0751 75.9546 74.3149H74.5943C74.3056 74.4624 74.1549 74.5398 73.9022 74.6691C74.0352 74.4723 74.4775 74.0391 74.5492 74.0001C74.1155 73.6712 73.8314 74.1501 73.4201 74.1886C73.5017 74.2913 73.5601 74.3659 73.6814 74.5199C73.1827 74.6185 72.7197 74.7229 72.252 74.7999C71.8759 74.8612 71.5943 75.0315 71.3648 75.4084C71.1618 75.3492 70.9489 75.287 70.6992 75.2146C70.1827 75.6122 69.6691 76.0082 69.1555 76.4041C69.1753 76.4617 69.1956 76.5185 69.2159 76.5756Z" fill="#549119"/>
<path fill-rule="evenodd" clip-rule="evenodd" d="M20.4291 47.8145C20.5571 47.8778 20.6846 47.9416 20.8122 48.0054C20.7944 48.0514 20.777 48.0982 20.7592 48.1446C20.3922 48.1446 19.9366 48.0091 19.679 48.1769C19.3182 48.4126 19.1057 48.0895 18.829 48.1437C18.479 48.2117 18.1369 48.0791 17.7587 48.2978C17.412 48.4983 16.9059 48.485 16.5845 48.1872C16.2307 48.2539 15.9176 48.3007 15.6107 48.3736C15.3336 48.4395 15.0677 48.8413 14.786 48.3827C14.5652 48.7534 14.3225 48.5613 14.0815 48.4097C13.8238 48.7493 13.4581 48.5571 13.142 48.5894C12.8442 48.6201 12.5373 48.5683 12.2403 48.6027C11.817 48.652 11.3759 48.6863 10.9841 48.8367C10.4323 49.0479 9.86323 49.0517 9.2879 49.1266C9.91749 49.354 10.6071 49.3921 11.1791 49.2128C11.5859 49.0852 11.9603 49.0997 12.3484 49.05C12.9196 48.9775 13.4589 48.7725 14.0616 48.7969C14.5901 48.8185 15.1783 49.0446 15.6728 48.6259C15.916 48.8317 16.0891 48.8628 16.4014 48.6313C16.601 48.483 17.067 48.5716 17.3499 48.6971C17.5815 48.7994 17.8279 48.5169 18.0342 48.8081C18.0975 48.8972 18.4202 48.8839 18.5743 48.8118C19.3865 48.4304 20.2025 48.565 21.0305 48.7166C21.1618 48.7406 21.3204 48.5911 21.4588 48.6039C22.3771 48.6901 23.3103 48.4063 24.2228 48.7373C24.3698 48.7903 24.5856 48.6114 24.7724 48.6031C25.2607 48.5824 25.7524 48.6234 26.2395 48.5898C26.9395 48.5414 27.601 48.6586 28.3971 49.0053C27.8872 49.0326 27.5302 49.0521 27.1727 49.0716L27.1362 49.1797C27.2328 49.2111 27.3272 49.2509 27.4258 49.272C27.5289 49.2936 27.6354 49.2973 27.7712 49.3122C27.6552 49.5462 27.5554 49.7475 27.4552 49.9488C27.3624 49.866 27.2808 49.7927 27.1628 49.6875C27.0236 49.762 26.877 49.8407 26.6367 49.9695C26.691 49.6436 26.7341 49.3863 26.7883 49.0637C26.7631 49.0384 26.6566 48.932 26.5655 48.8408C26.0684 48.9407 25.5847 49.0384 25.0748 49.1407C25.1808 49.255 25.2761 49.3574 25.3655 49.4534C25.5441 49.3826 25.716 49.3139 25.8754 49.2505C26.2022 49.7981 25.6236 49.6705 25.489 49.8618C25.5751 50.0404 25.646 50.1866 25.7661 50.4347C25.5697 50.3804 25.3515 50.3639 25.3419 50.3104C25.2504 49.7956 24.9567 49.6415 24.4767 49.7616C24.4257 49.8933 24.3756 50.0226 24.2671 50.3013C24.1051 49.9277 23.9908 49.6639 23.8491 49.3375C24.1817 49.289 24.3893 49.2588 24.5964 49.2289C24.5984 49.183 24.6005 49.1366 24.603 49.091C24.2691 49.072 23.9349 49.0529 23.524 49.0301C23.565 49.154 23.5899 49.2298 23.6437 49.393C23.5907 49.5156 23.5016 49.7202 23.3977 49.9604C22.853 49.8925 22.276 50.0855 21.6236 49.7293C21.7293 49.9931 21.7984 50.165 21.88 50.3697H21.2919C21.1792 50.0416 21.0545 49.6788 20.9228 49.2948H20.5881C20.6739 49.4957 20.7464 49.6659 20.8222 49.844C20.3968 49.9509 20.0252 50.0445 19.5634 50.1605C19.4425 50.0569 19.2581 49.8995 19.0718 49.7397C18.9326 50.035 18.7992 50.3187 18.6505 50.6352C18.5714 50.4732 18.5018 50.3307 18.4306 50.1853C18.1062 50.8071 17.5993 50.9475 16.9419 50.8029C17.0504 50.6186 17.1354 50.474 17.2807 50.2263C16.8989 50.2048 16.6213 50.1882 16.3007 50.17V50.8274C15.382 50.9421 14.4928 51.0527 13.5973 51.1645C13.5587 51.278 13.5136 51.4093 13.4473 51.6031C12.8003 51.1223 12.08 51.3733 11.3904 51.2946C11.3225 51.1546 11.2525 51.0117 11.1613 50.8253C11.0951 51.0055 11.047 51.1359 10.9986 51.2672C10.8523 51.1947 10.7065 51.1223 10.4725 51.0059C10.4282 51.2656 10.3938 51.464 10.3806 51.5423C10.0045 51.9635 9.69216 52.3131 9.355 52.6908C9.2879 52.5115 9.23903 52.381 9.18353 52.2319C9.0311 52.456 8.88323 52.6739 8.72956 52.9004C8.38702 52.4249 8.11696 51.9689 8.64009 51.4884C8.49181 51.3327 8.38992 51.2254 8.28181 51.1123C8.16873 51.1774 8.05648 51.242 7.87548 51.3468C7.76282 51.2498 7.62986 51.1355 7.45051 50.9814C7.50725 50.2976 7.2956 49.5578 7.73134 48.8997C8.59702 48.3202 9.63418 48.3985 10.5786 48.1301C11.5983 47.8401 12.6239 47.9462 13.6499 47.9201C13.9079 47.9134 14.1349 47.9197 14.3648 47.7126C14.4894 47.5999 14.8104 47.6496 15.02 47.7076C15.1617 47.7465 15.252 48.0145 15.4235 47.7453C15.9246 47.9159 16.3993 47.6136 16.9096 47.6757C17.5032 47.7478 18.112 47.6923 18.7139 47.6923H20.4075C20.4146 47.7333 20.422 47.7734 20.4291 47.8145Z" fill="#549119"/>
<path fill-rule="evenodd" clip-rule="evenodd" d="M40.4183 32.8958V32.3785C40.1918 32.3437 39.9847 32.3122 39.6848 32.2662C39.8264 32.0256 39.9296 31.8504 39.9615 31.7965C40.6234 31.2568 41.2231 32.4452 41.6539 31.717C42.119 31.7816 42.4649 31.8694 42.8108 31.8711C45.6692 31.8823 48.5276 31.8508 51.3855 31.8905C52.5188 31.9067 53.6504 32.0711 54.859 32.1747L55.1034 32.4191C55.0603 32.4642 55.0177 32.5491 54.9742 32.5495C54.0716 32.5574 53.1691 32.5537 52.2661 32.5566C52.0913 32.5574 51.9161 32.5752 51.7405 32.6535C52.1626 32.8337 52.6025 32.7678 53.0337 32.7786C53.4847 32.7898 53.9403 32.743 54.3864 32.7923C54.7907 32.8374 55.1838 32.9778 55.7061 33.107C55.4389 33.2023 55.308 33.2491 55.0678 33.3349C55.277 33.4227 55.4091 33.4786 55.5644 33.544C55.5706 33.6791 55.5773 33.8244 55.5843 33.9827C55.3847 34.1086 55.1979 34.2821 54.9783 34.3492C54.7721 34.4122 54.5297 34.3807 54.3061 34.3588C53.8509 34.3144 53.3605 34.5124 52.9467 34.1703C52.5287 34.5563 52.0226 34.3165 51.5587 34.3542C51.0732 34.3931 50.5816 34.3625 50.0187 34.3625C49.9176 34.4996 49.7851 34.6798 49.6384 34.879C49.351 34.7937 49.1195 34.7245 48.7512 34.6147C48.7276 34.6301 48.5768 34.8069 48.4368 34.7986C48.009 34.7734 47.5803 34.9146 47.1454 34.6545C46.7022 34.3898 46.1819 34.7034 45.665 34.6251C44.7898 34.4921 43.8798 34.5886 43.0046 34.5886C42.9392 34.7738 42.8932 34.9047 42.8385 35.0596C42.7196 35.0273 42.5925 35.0298 42.5254 34.9676C42.2557 34.717 42.0217 34.3915 41.5669 34.698C41.7268 34.7738 41.8738 34.8438 42.059 34.932C41.477 35.1967 40.9891 34.9805 40.468 34.746C40.4535 34.5862 40.4378 34.4081 40.4221 34.2304C40.2891 34.097 40.1561 33.964 40.0054 33.8137C40.0663 33.7395 40.128 33.6637 40.2253 33.5449C39.9967 33.3995 39.768 33.2537 39.486 33.0743C39.6036 32.9012 39.7216 32.7272 39.8322 32.5644C40.0041 32.6618 40.1508 32.7446 40.4183 32.8958Z" fill="#549119"/>
<path fill-rule="evenodd" clip-rule="evenodd" d="M21.8764 36.0962C21.7467 36.1454 21.6167 36.1947 21.4228 36.2685C21.5578 36.4151 21.6664 36.5323 21.7745 36.6499C21.8884 36.536 21.9414 36.483 22.0205 36.4039C22.1444 36.6425 22.2636 36.8724 22.3742 37.0849C22.2674 37.294 22.1725 37.4796 22.0661 37.6888C21.7674 37.7778 21.4319 37.9634 21.0977 37.9609C20.22 37.9547 19.3994 38.1233 18.5677 38.4037C18.1113 38.5578 17.5517 38.3556 17.0903 38.6555C16.1993 38.5101 15.3614 38.9483 14.475 38.8904C14.258 38.8763 13.9883 39.078 13.8231 39.0034C13.5124 38.8626 13.3459 39.1973 13.0593 39.1244C12.8344 39.0668 12.5291 39.0063 12.3514 39.295C11.4054 39.2602 10.5509 39.703 9.62347 39.8124C8.83731 39.9047 8.07891 40.2353 7.40625 40.432C7.19004 40.7348 7.0314 40.9576 6.85785 41.2008C6.71081 41.1134 6.58737 41.0819 6.5385 41.004C6.33595 40.6801 6.1566 40.343 5.96524 40.0046H5.42471C5.46282 39.7275 5.49802 39.4698 5.5469 39.1124C5.55394 39.1211 5.46613 39.015 5.40234 38.938C5.63264 38.1928 6.2995 38.098 6.80276 38.0127C7.68128 37.8631 8.51838 37.557 9.42714 37.4841C10.4158 37.4038 11.4083 37.1868 12.3953 37.0248C12.9719 36.9304 13.541 36.8463 14.1147 36.8637C14.4357 36.8736 14.6568 36.6856 14.9269 36.6363C15.2545 36.5762 15.6016 36.6226 15.94 36.6218C16.2399 36.6205 16.7245 36.7266 16.8041 36.5928C17.017 36.2353 17.3384 36.7721 17.49 36.4329C17.5119 36.3836 17.695 36.406 17.8035 36.396C18.3403 36.3476 18.866 36.4433 19.4168 36.2026C19.8849 35.998 20.4859 36.2792 21.014 35.9653C21.2294 35.8373 21.5844 35.9441 21.876 35.9441C21.8764 35.9947 21.8764 36.0452 21.8764 36.0962Z" fill="#549119"/>
<path fill-rule="evenodd" clip-rule="evenodd" d="M74.2432 61.223H73.469V60.4803C73.3294 60.3486 73.2317 60.2289 73.1078 60.1477C73.0254 60.0934 72.9065 60.0951 72.7777 60.0657V58.6628C73.1492 57.7776 73.9462 57.2251 74.792 56.7322C75.8797 56.0985 77.0394 55.5828 78.2361 55.2427C79.1117 54.9942 80.0163 54.7726 80.9445 54.65C81.7087 54.5493 82.4862 54.5933 83.2222 54.4383C83.8717 54.3012 84.4897 54.2259 85.1545 54.2619V54.7051H83.8414C83.8398 54.7581 83.8385 54.8111 83.8369 54.8641H85.328C85.2576 55.1769 85.2576 55.1769 85.1719 55.2701C85.328 55.3446 85.4821 55.4179 85.7165 55.5302C85.4837 55.8064 85.2771 56.0517 85.1698 56.1788C84.3186 56.4402 83.5556 56.4083 82.8436 56.6821C82.3756 56.8627 81.8048 56.5346 81.3757 56.9554C79.7446 57.1584 78.3135 57.9098 76.865 58.6081C76.4869 58.7899 76.1464 59.0513 75.7699 59.2373C75.0438 59.5951 74.5845 60.1278 74.4987 60.9566C74.4896 61.044 74.3484 61.1173 74.2432 61.223Z" fill="#549119"/>
<path fill-rule="evenodd" clip-rule="evenodd" d="M92.5999 93.3297C92.6173 93.4916 92.6247 93.5633 92.6405 93.7153C92.0548 93.8843 91.4186 93.6996 90.8279 93.9605C91.1071 93.9762 91.3863 93.9982 91.6659 94.0057C91.962 94.0131 92.2582 94.0073 92.5241 94.0073C92.6546 94.1452 92.7527 94.2488 92.8708 94.3739C92.7163 94.429 92.5854 94.4762 92.3472 94.5615C92.5556 94.6497 92.6881 94.7057 92.9035 94.7972C92.826 95.0465 92.7461 95.3042 92.6641 95.5676C91.7197 95.684 90.8607 95.7896 89.954 95.9015C89.9444 95.9483 89.9233 96.0514 89.884 96.2444C89.4283 96.1786 88.9533 96.0804 88.4736 96.0485C87.9488 96.0137 87.4203 96.0406 86.8814 96.0406C86.7265 96.1877 86.5658 96.3413 86.4059 96.4938C86.0137 96.5203 85.6608 96.3082 85.2225 96.4552C84.9227 96.5559 84.5047 96.3049 84.0678 96.3902C84.2057 96.4619 84.344 96.5343 84.6182 96.6777H83.0844C82.8529 96.893 82.6702 97.0637 82.4329 97.2845C82.1943 96.9941 82.0092 96.768 81.8493 96.5737C81.7499 96.2945 81.6559 96.0315 81.561 95.7668C81.6273 95.6596 81.6944 95.5506 81.7934 95.3903H81.0093C80.7223 94.9906 80.9161 94.7367 81.187 94.4948C81.4583 94.4642 81.7358 94.4335 82.0133 94.4029L82.0117 94.2741C81.73 94.2517 81.4483 94.2289 81.1282 94.2028C81.1282 94.0786 81.0847 93.9377 81.1352 93.881C81.491 93.4821 81.935 93.3193 82.483 93.3218C85.8314 93.3375 89.1798 93.3297 92.5999 93.3297Z" fill="#549119"/>
<path fill-rule="evenodd" clip-rule="evenodd" d="M41.3026 51.022C41.3652 50.5738 41.4144 50.2238 41.4869 49.7069C41.5321 49.6729 41.733 49.5205 42.0573 49.2745C43.6996 48.8366 45.5602 49.1179 47.4042 49.052C47.7973 49.0384 48.1676 49.0823 48.564 49.2401C48.9533 49.395 49.4628 49.2161 49.9006 49.2914C50.2668 49.3552 50.5965 49.6029 50.9589 49.7181C51.3275 49.8349 51.7438 49.8278 52.088 49.9869C52.4608 50.1592 52.7743 50.4603 53.1239 50.7122C53.0154 50.8207 52.9624 50.8737 52.9334 50.9027C53.1376 51.3103 53.336 51.705 53.5381 52.1084C53.3592 52.2824 53.172 52.4651 52.9255 52.7057C52.0342 52.446 51.038 52.3648 50.1715 51.7733C49.7846 51.9154 49.3783 52.2149 48.9107 51.7899C48.8208 51.7087 48.5064 51.8297 48.3192 51.9117C48.0102 52.048 47.753 52.0554 47.5492 51.7187C47.0389 51.9477 46.5911 52.0393 46.0046 51.8458C45.3999 51.6466 44.6784 51.8019 43.9875 51.8019C43.5911 52.0898 43.1603 52.4033 42.703 52.7359C42.3447 52.405 41.9376 52.212 42.0034 51.6445C42.0233 51.4776 41.8278 51.2697 41.6965 51.109C41.6452 51.0464 41.4994 51.0613 41.3026 51.022Z" fill="#549119"/>
<path fill-rule="evenodd" clip-rule="evenodd" d="M75.4417 43.0471C75.3522 43.1771 75.2727 43.2923 75.138 43.4882C75.3501 43.5756 75.4972 43.6361 75.6653 43.7052V44.7026C75.4251 44.8517 75.1844 45.0017 74.9318 45.1591C74.3635 44.9735 73.7824 44.7846 73.1097 44.5655C72.9047 44.6343 72.6185 44.9942 72.2449 44.6074C72.1653 44.5249 71.9731 44.5378 71.8319 44.5316C69.4622 44.4322 67.0926 44.3365 64.6418 44.2367C64.2557 43.6332 64.0917 42.7932 63.1473 42.1532C63.8436 42.0774 64.2168 42.0372 64.59 41.9967C64.5933 41.9598 64.5966 41.9229 64.6004 41.8856C64.3088 41.8434 64.0167 41.8007 63.6365 41.7452C63.7749 41.5129 63.8788 41.3377 64.0114 41.1152C64.3908 41.2436 64.8124 40.9541 65.1604 41.3314C65.215 41.3911 65.3704 41.3617 65.4793 41.3658C66.3901 41.3994 67.2968 41.4474 68.2072 41.5365C69.1831 41.6313 70.1846 41.6943 71.1435 41.8546C72.6098 42.0994 74.1237 42.2825 75.4417 43.0471Z" fill="#549119"/>
<path fill-rule="evenodd" clip-rule="evenodd" d="M37.1703 41.7819C37.0361 41.9579 36.901 42.1352 36.7996 42.2678H35.1651C34.3446 41.7691 34.4423 40.7567 33.7104 40.024H34.746C34.7538 39.9718 34.7617 39.9196 34.7691 39.867C34.5915 39.8318 34.4138 39.7966 34.1536 39.7453C34.1408 39.5875 34.1247 39.3845 34.1023 39.1074C35.3871 39.1074 36.6372 38.972 37.8388 39.1546C38.6436 39.2772 39.4405 39.2333 40.2279 39.348C41.0604 39.4694 41.8768 39.7051 42.699 39.8973C43.4044 40.0625 44.1052 40.2436 44.8098 40.589C44.705 40.7688 44.635 40.8889 44.5625 41.0131C44.7572 41.1465 44.9763 41.2969 45.1991 41.4493C45.1076 41.5516 45.0368 41.6315 44.9771 41.6978C45.062 41.8138 45.1441 41.9273 45.2725 42.1029C45.0082 42.3017 44.7733 42.4782 44.4101 42.752C44.1483 42.6704 43.7163 42.5353 43.2843 42.4007C42.332 42.1149 41.2456 42.5879 40.3861 41.8883C40.1712 41.9438 39.9694 42.0528 39.7835 42.0308C39.5043 41.9973 39.2413 41.5773 38.9604 42.0321C38.714 41.6407 38.4924 41.984 38.2381 42.0147C37.9109 42.0536 37.5575 41.8767 37.1703 41.7819Z" fill="#549119"/>
<path fill-rule="evenodd" clip-rule="evenodd" d="M14.2463 67.4886C14.0963 67.5417 13.9654 67.588 13.7521 67.6638C14.5909 67.8689 14.4662 68.6012 14.7234 69.1094C14.5068 69.4395 14.315 69.732 14.0922 70.0704C13.6966 70.0132 13.4087 69.7643 13.2103 69.3952C13.1287 69.4673 13.0467 69.5406 12.997 69.5853C12.589 69.488 12.2117 69.3977 11.7466 69.2871C11.6662 69.15 11.5403 68.9346 11.3738 68.6505C10.8726 68.8166 10.3416 68.9814 9.81845 69.1695C9.32845 69.3451 8.84757 69.5451 8.36212 69.7349V69.9585C8.51455 70.0318 8.66697 70.1051 8.84591 70.1909C8.7962 70.3056 8.7378 70.4879 8.71585 70.4833C8.30289 70.4017 8.43875 70.8424 8.24532 70.9642C8.19396 70.9104 8.14218 70.8565 8.06307 70.7737C7.93218 70.8404 7.79384 70.9116 7.57762 71.0222C7.50514 70.8466 7.44425 70.6991 7.37094 70.521C7.28934 70.586 7.21478 70.6453 7.05407 70.7728C6.91822 70.4452 6.84325 70.0998 6.65064 69.8438C6.44768 69.5741 6.18135 69.3675 6.35076 68.9905C6.05999 68.9388 5.85289 68.9019 5.63958 68.8642C5.90135 68.1075 5.90135 68.1075 5.60437 67.4447C6.0397 67.1908 6.47212 66.7543 6.93686 66.7166C7.48277 66.6722 8.01088 66.2046 8.66159 66.5637C8.54354 66.7514 8.45035 66.8988 8.33768 67.0778H7.36224C7.20774 67.272 7.07727 67.4364 6.95342 67.5922C7.04745 67.6912 7.09094 67.7372 7.13443 67.7827C7.18745 67.7297 7.23674 67.6353 7.29473 67.6295C8.32277 67.5292 9.35165 67.4323 10.3818 67.3586C10.499 67.3499 10.6257 67.482 10.7251 67.5367C10.9082 67.4422 11.0954 67.3462 11.2889 67.2467C10.5876 66.7725 9.85117 66.7795 9.06419 67.0732C9.06419 66.886 9.06419 66.7087 9.06419 66.5314C9.09029 66.5049 9.1168 66.4552 9.14372 66.4548C10.0458 66.4482 11.0068 66.2522 11.8344 66.4999C12.6342 66.7398 13.6154 66.7066 14.2463 67.4886Z" fill="#549119"/>
<path fill-rule="evenodd" clip-rule="evenodd" d="M19.6121 100.617C19.4568 100.526 19.1515 100.455 19.0604 100.275C18.7651 99.6896 18.519 99.0733 18.3173 98.4491C18.2506 98.244 18.377 97.9765 18.4296 97.6468C18.4478 97.6675 18.3782 97.5892 18.2821 97.4807C18.5497 97.3075 18.8156 97.1356 19.0778 96.9658H27.0271C27.1398 97.0872 27.2355 97.1891 27.3767 97.3407C27.1149 97.38 26.9078 97.4111 26.5955 97.4579C26.9795 97.6165 27.2761 97.7395 27.7938 97.9533C27.3328 98.0461 27.1108 98.0908 26.8884 98.1359C26.8875 98.1703 26.8867 98.2047 26.8863 98.2387C27.086 98.2701 27.2856 98.3016 27.4869 98.3335C27.6849 98.6955 27.5424 98.961 27.2429 99.1839C25.2883 99.1615 23.349 99.5885 21.3857 99.4303C21.3112 99.4241 21.2358 99.4295 21.1608 99.4295C20.6758 99.8014 20.1907 100.173 19.6121 100.617Z" fill="#549119"/>
<path fill-rule="evenodd" clip-rule="evenodd" d="M84.7513 30.6453C85.3225 30.5608 85.8091 30.4432 86.2983 30.4295C86.7498 30.4162 87.1735 30.2435 87.6797 30.4813C88.1038 30.6801 88.6949 30.5219 89.2242 30.4129C88.8519 30.2746 88.4795 30.1362 88.0529 29.9776C88.5056 29.7427 88.8328 29.8865 89.213 30.0468C89.5138 30.1735 89.9545 29.9635 90.1247 30.4763C89.9114 30.5069 89.7043 30.5368 89.4462 30.5736C89.5465 30.6913 89.5962 30.7894 89.6757 30.8358C89.9172 30.9762 90.1703 31.0964 90.4209 31.2256C90.5211 31.1436 90.6048 31.0752 90.6926 31.0036C90.9444 31.0852 91.0252 31.3337 91.0165 32.0233C90.0709 32.114 89.6185 32.001 88.5781 31.4004C88.4497 31.4758 88.3001 31.564 88.1303 31.6638C87.9883 31.5859 87.8358 31.5027 87.6374 31.3942C87.5376 31.4691 87.4258 31.5536 87.3123 31.639C87.0178 31.5739 86.7113 31.506 86.4052 31.4385C86.201 31.8887 85.7839 31.0964 85.508 31.6071C85.4061 31.7959 84.931 31.7839 84.6117 31.8672C84.545 31.8055 84.4638 31.7293 84.3652 31.6377C84.3263 31.7413 84.2894 31.8386 84.2124 32.0412C83.9519 32.1385 83.6077 32.2673 83.1487 32.4384V31.4633C82.8928 31.4356 82.7146 31.4161 82.4951 31.3925C82.6823 31.2716 82.8497 31.1635 82.9669 31.0872C82.8078 30.758 82.7378 30.6126 82.6256 30.3798C83.3326 30.217 83.9949 30.0646 84.6767 29.9072C84.7496 29.9842 84.8461 30.0874 84.9886 30.2394C84.7293 30.2787 84.5222 30.3102 84.1768 30.3632C84.453 30.4987 84.6167 30.5794 84.7513 30.6453Z" fill="#549119"/>
<path fill-rule="evenodd" clip-rule="evenodd" d="M101.927 61.8553C101.741 61.9431 101.602 62.0085 101.289 62.156C101.796 62.1846 102.136 62.204 102.54 62.2268C102.449 62.004 102.38 61.8333 102.299 61.637C102.7 61.5442 103.059 61.461 103.506 61.3574C103.445 61.5393 103.394 61.6904 103.318 61.9174C103.369 61.9373 103.471 61.9767 103.611 62.0305C103.683 62.1701 103.778 62.3561 103.872 62.54C103.348 62.7703 102.788 63.0151 102.362 63.2019C101.483 63.4255 100.733 63.6165 99.9545 63.814C99.9073 63.6724 99.8638 63.5427 99.8203 63.4135C99.5362 63.2851 99.2524 63.1567 98.8838 62.9894C99.3295 62.8245 99.7064 62.6849 100.228 62.4915C99.8054 62.4563 99.525 62.4327 99.2441 62.4091C99.2114 62.3697 99.1783 62.3304 99.1456 62.2914C99.2889 62.2637 99.4322 62.2364 99.5751 62.209C100.259 62.1353 101.016 61.5256 101.927 61.8553Z" fill="#549119"/>
</svg>
