<svg width="154" height="168" viewBox="0 0 154 168" fill="none" xmlns="http://www.w3.org/2000/svg">
<path fill-rule="evenodd" clip-rule="evenodd" d="M53.4273 12.8653C52.9427 13.0215 52.7389 13.441 52.5189 13.8138C51.4805 15.5725 49.7541 16.6424 48.2974 17.9687C47.7701 18.4487 46.8481 18.3854 46.1601 17.9662C44.0522 16.6822 42.4911 15.0295 42.3043 12.379C42.2041 10.9546 42.0877 9.5343 42.0777 8.10531C42.0757 7.82324 42.2144 7.42105 41.847 7.31253C41.4838 7.20442 41.3666 7.63022 41.2216 7.85223C39.5809 10.3656 37.9664 12.8964 36.3394 15.4189C35.8303 16.2079 35.3611 17.0322 34.7671 17.7521C34.425 18.1667 34.4776 19.2912 33.4698 18.778C31.8954 17.9761 31.7099 17.586 32.3308 16.2659C33.9942 12.7295 36.0569 9.40921 37.9718 6.00945C38.8018 4.53572 39.6828 3.09057 40.5203 1.62099C41.6325 -0.331141 42.5238 -0.665402 44.1483 1.42134C44.9863 2.49785 45.3375 3.76199 45.4299 5.09448C45.5989 7.52708 45.7277 9.96259 45.8785 12.3968C45.8934 12.635 45.6916 12.9635 46.0437 13.0823C46.3266 13.178 46.5316 12.9183 46.7259 12.7584C48.5364 11.2681 49.9732 9.42413 51.5141 7.67868C52.434 6.63655 53.3312 5.57123 54.3004 4.57714C55.2311 3.62282 55.7219 3.85519 56.7421 4.61235C59.1586 6.40584 58.8595 8.80986 58.4238 11.2139C58.0804 13.1084 57.5001 14.962 56.9691 16.8201C56.4837 18.5167 56.1482 20.311 55.8723 22.0871C55.7571 22.8289 56.1585 23.3989 56.5209 23.929C56.9061 24.4924 56.8573 25.066 56.5271 25.4566C56.1544 25.8977 55.6909 25.3642 55.3475 25.1629C53.4186 24.0326 52.5902 22.3232 52.6792 20.0852C52.7621 18.0072 53.1808 15.9838 53.4969 13.9422C53.5524 13.5831 53.7031 13.2261 53.4273 12.8653Z" fill="#C04A16"/>
<path fill-rule="evenodd" clip-rule="evenodd" d="M139.784 56.4753C140.03 56.1273 139.899 55.7753 139.954 55.4501C139.986 55.2608 140.101 54.9452 140.208 55.0082C140.968 55.4551 141.993 54.7344 142.642 55.5765C145.275 58.9928 148.825 61.4975 151.701 64.6723C151.904 64.8956 152.12 65.1052 152.325 65.3263C153.508 66.6021 153.507 66.6025 152.06 67.428C150.57 68.2775 150.425 68.2829 149.011 67.1501C146.073 64.7966 143.147 62.4265 140.347 59.909C139.473 59.1241 138.681 58.2551 138.487 57.0249C138.435 56.6956 138.413 56.3489 138.456 56.0209C138.495 55.733 138.592 55.3677 138.944 55.3395C139.311 55.3105 139.251 55.6899 139.327 55.9227C139.397 56.1356 139.452 56.3576 139.784 56.4753Z" fill="#C04A16"/>
<path fill-rule="evenodd" clip-rule="evenodd" d="M128.378 70.0315C129.85 70.1255 131.105 70.8028 132.335 71.545C135.005 73.1575 137.399 75.1862 140.123 76.7205C140.649 77.017 140.644 77.2896 140.162 77.7406C138.759 79.0507 137.397 78.4576 136.078 77.7108C133.43 76.2114 130.824 74.6374 128.194 73.1082C127.512 72.7118 126.804 72.3593 126.101 72.001C125.695 71.7935 125.633 71.4423 125.663 71.0496C125.695 70.6433 125.951 70.5402 126.331 70.4436C127.008 70.2718 127.66 70.0058 128.378 70.0315Z" fill="#C04A16"/>
<path fill-rule="evenodd" clip-rule="evenodd" d="M126.812 91.3329C125.27 91.3329 123.728 91.3399 122.186 91.3288C121.695 91.325 121.176 91.3213 121.023 90.6859C120.884 90.1056 121.408 90.0592 121.705 89.8107C122.277 89.3311 122.946 89.1095 123.658 88.9997C126.757 88.5205 129.859 88.3154 132.969 88.9272C133.305 88.9939 133.662 88.9856 133.812 89.363C133.983 89.7892 133.566 89.9051 133.389 90.1665C132.562 91.3867 131.347 91.3872 130.082 91.3478C128.993 91.3143 127.902 91.3412 126.812 91.3412V91.3329Z" fill="#C04A16"/>
<path fill-rule="evenodd" clip-rule="evenodd" d="M15.2596 64.9401C19.4505 56.5526 24.5878 48.7772 30.0172 41.2097C30.6376 41.3692 30.0925 41.7556 30.3137 41.9996C30.6654 42.162 31.0568 41.3145 31.5091 42.0684C31.925 42.7609 31.6785 43.2816 31.3857 43.8188C29.8444 46.6465 27.6185 49.0348 26.2753 52.0171C25.8155 53.0368 25.6146 54.2856 24.4809 55.0801C23.783 55.5688 23.9474 56.8048 23.3307 57.6187C22.9447 58.1286 22.7301 58.8419 22.3006 59.4172C20.5891 61.7077 19.6029 64.2985 19.3217 67.1462C19.2711 67.659 19.0574 68.1233 18.5819 68.139C17.2854 68.1825 15.9977 68.7197 14.7269 67.5852C13.8045 66.7614 13.7188 66.0154 13.9797 65.0222C14.6089 62.6293 15.8569 60.5177 17.0817 58.4078C18.5144 55.94 20.1414 53.5885 21.659 51.1754C23.7002 47.9297 25.9853 44.8646 28.1528 41.7138C28.3591 41.4143 28.5567 40.7951 29.009 41.0677C29.3495 41.2727 28.9908 41.7631 28.7965 42.0613C27.5713 43.9418 26.2595 45.7585 24.9159 47.5594C23.6281 49.2854 22.5487 51.1762 21.4734 53.0493C19.7359 56.0771 17.8214 59.0034 16.2491 62.1256C15.8009 63.0158 15.3573 63.9175 15.2596 64.9401Z" fill="#C04A16"/>
<path fill-rule="evenodd" clip-rule="evenodd" d="M8.63564 101.137C7.84824 101.77 7.27871 100.785 7.02978 100.585C6.35629 100.044 5.30049 100.602 5.03747 99.9618C4.63942 98.9921 3.78078 98.1716 4.137 96.8727C4.8254 94.3601 5.86877 91.995 6.83883 89.5964C7.54215 87.8576 8.21232 86.1018 9.23954 84.5121C9.69765 83.8034 10.2241 83.1784 11.0016 82.8221C11.7989 82.4564 12.4989 82.4303 13.2668 83.0876C13.8351 83.5739 14.5678 83.8933 15.0939 84.4649C15.5946 85.0083 15.9923 85.577 15.4016 86.3176C14.987 86.837 15.062 87.5179 14.8532 88.1102C14.014 90.4903 13.6947 93.0533 12.3485 95.254C11.3503 96.8863 10.6126 98.643 9.84303 100.386C9.62268 100.885 9.40936 101.488 8.63564 101.137Z" fill="#C04A16"/>
<path fill-rule="evenodd" clip-rule="evenodd" d="M58.2784 83.313C58.0933 83.7305 57.974 83.9989 57.8588 84.2582C57.9955 84.4367 58.1218 84.3303 58.2577 84.2922C58.5365 84.2135 58.6321 83.6796 58.9697 83.8929C59.3781 84.1509 58.8529 84.4599 58.8844 84.7656C59.3313 84.8696 59.4502 84.3174 59.8147 84.3021C60.3797 85.1711 60.0831 85.8707 59.5571 86.6502C58.1276 88.7684 56.8888 90.9948 56.0546 93.4311C55.7398 94.351 54.5614 94.8004 54.5386 95.8683C54.5096 97.2227 53.8775 98.3986 53.1672 99.367C51.9403 101.04 51.6781 103.007 50.9479 104.825C50.7424 105.337 51.0241 105.967 50.5188 106.386C50.3556 106.522 50.0992 106.83 49.9927 106.57C49.6274 105.681 48.9154 106.109 48.326 105.962C47.2321 105.688 47.0167 104.615 46.9098 103.672C46.7417 102.185 47.1708 100.747 47.7743 99.4213C50.0839 94.3461 52.77 89.4771 56.0931 84.9859C56.5992 84.3017 57.0532 83.443 58.2784 83.313Z" fill="#C04A16"/>
<path fill-rule="evenodd" clip-rule="evenodd" d="M42.9748 63.1609C42.7213 63.9508 42.4765 64.7775 42.1916 65.5906C40.3869 70.7449 38.0458 75.6578 35.5101 80.4857C34.5379 82.3363 33.4175 84.1124 32.6819 86.0873C32.4715 86.6531 32.0933 87.0997 31.4186 86.4978C31.2595 86.3557 31.0234 86.2915 30.813 86.217C29.4134 85.7216 28.8667 84.6488 29.3058 83.1929C29.7556 81.6993 30.5877 80.3913 31.3942 79.0799C34.8063 73.5333 38.016 67.8824 40.466 61.8301C40.7766 61.063 40.8665 61.0638 41.4112 61.6478C41.4704 61.7112 41.5905 61.7572 41.6767 61.7493C42.6927 61.6586 42.7851 62.4033 42.9748 63.1609Z" fill="#C04A16"/>
<path fill-rule="evenodd" clip-rule="evenodd" d="M8.76018 121.05C7.82989 123.34 6.30894 125.092 5.42255 127.165C4.52663 129.26 3.44184 131.28 2.87936 133.517C3.69492 131.724 4.50592 129.928 5.32687 128.137C6.26959 126.082 7.46498 124.173 8.64007 122.247C9.22989 121.28 9.8922 121.329 10.5562 121.861C11.2044 122.382 11.339 123.258 10.7285 123.868C9.48462 125.112 8.78504 126.701 8.33066 128.262C7.53953 130.981 6.14865 133.501 5.72947 136.341C5.63296 136.995 5.15953 137.553 5.0622 138.282C4.95285 139.102 4.91018 139.804 5.31693 140.569C5.55261 141.013 6.13415 141.597 5.61764 142.092C5.19515 142.498 4.57634 142.795 3.8722 142.426C3.60338 142.285 3.21154 142.377 2.87563 142.365C0.911485 142.299 -0.247864 141.019 0.0449764 139.038C0.437639 136.382 1.43545 133.897 2.48918 131.443C3.86971 128.228 5.37078 125.074 7.41403 122.21C7.71557 121.788 7.96823 121.321 8.76018 121.05Z" fill="#C04A16"/>
<path fill-rule="evenodd" clip-rule="evenodd" d="M62.3137 146.105C59.6537 146.099 58.8522 144.935 59.7523 142.729C60.456 141.004 61.6531 139.583 62.8087 138.159C65.5064 134.835 68.3142 131.607 71.3035 128.536C72.0346 127.784 72.9222 127.515 73.8335 127.237C74.1516 127.14 74.8607 126.948 74.8338 127.225C74.7774 127.792 75.3461 128.307 74.8342 128.913C72.5478 131.621 70.5074 134.519 68.3934 137.361C67.4614 138.614 66.43 139.795 65.5325 141.071C64.9257 141.935 64.3052 142.867 64.9207 144.03C64.9944 144.168 64.9563 144.532 64.8909 144.554C63.8405 144.904 63.2055 146.023 62.3137 146.105Z" fill="#C04A16"/>
<path fill-rule="evenodd" clip-rule="evenodd" d="M89.5047 85.8725C90.8708 84.3379 91.7207 82.4715 93.0677 80.9464C93.4645 80.4974 93.94 80.1077 94.2792 79.6206C94.8392 78.8158 95.4154 79.4292 95.7857 79.6827C96.1452 79.9283 96.3138 80.4991 95.9282 81.0392C94.3534 83.2448 93.0867 85.6592 92.0231 88.1162C91.2651 89.8679 90.0067 91.4021 89.7441 93.4404C89.6443 94.212 89.117 95.1026 88.8246 95.9666C88.4336 97.1218 87.6305 96.1654 87.0108 96.1232C86.9131 96.1165 86.8265 95.8291 86.737 95.8307C86.3556 95.8361 86.1311 96.8074 85.6841 96.1335C85.0777 95.219 84.4304 94.3562 84.8545 93.0042C85.5284 90.8583 86.5635 88.9223 87.6963 87.0223C89.2322 84.4464 90.6488 81.7798 92.8345 79.6541C92.9956 79.4975 93.1435 79.3257 93.3158 79.1823C93.4935 79.0345 93.7325 78.9081 93.923 79.09C94.1653 79.3215 94.0369 79.6015 93.8248 79.7755C91.9713 81.2931 91.048 83.4822 89.7491 85.3991C89.6505 85.5449 89.5855 85.7143 89.5047 85.8725Z" fill="#C04A16"/>
<path fill-rule="evenodd" clip-rule="evenodd" d="M43.7828 123.996C44.3544 123.457 44.9998 122.975 45.4782 122.364C46.0365 121.65 46.6582 121.493 47.4448 121.804C47.9124 121.99 47.813 122.48 47.7679 122.793C47.6515 123.598 47.1752 124.218 46.3973 124.505C46.2113 124.573 45.9313 124.432 45.9317 124.768C45.9359 126.412 44.4949 127.286 43.8756 128.603C43.6855 129.006 43.3314 129.389 43.082 129.803C42.3539 131.011 41.7582 132.324 40.2149 132.787C39.8554 132.894 39.2854 133.216 39.4797 133.762C40.0724 135.429 38.9052 136.542 38.2429 137.777C37.1544 139.807 35.7734 141.672 34.764 143.752C34.6501 143.986 34.5797 144.32 34.2525 144.238C33.8437 144.136 34.3854 143.774 34.1017 143.56C33.5923 143.831 33.1449 144.564 32.4346 143.699C32.1811 143.391 31.8087 143.912 31.6265 144.24C31.4877 144.489 31.3353 144.723 31.0225 144.54C30.6444 144.319 30.9704 144.087 31.0702 143.884C32.8894 140.176 35.1364 136.728 37.4683 133.332C39.522 130.341 41.5752 127.349 43.6283 124.358C43.6793 124.238 43.7311 124.117 43.7828 123.996Z" fill="#C04A16"/>
<path fill-rule="evenodd" clip-rule="evenodd" d="M63.667 110.836C64.9261 108.887 66.1948 106.941 67.5961 105.084C65.9977 106.283 64.0708 109.065 63.667 110.836ZM66.1311 113.794C65.7392 113.908 66.7383 112.546 65.6705 113.382C65.6419 113.405 65.5856 113.439 65.5727 113.429C64.869 112.883 64.2493 112.913 63.6053 113.581C63.4363 113.756 62.1249 112.287 62.0967 111.853C62.0545 111.197 62.2202 110.577 62.5085 110.003C64.1354 106.763 66.4243 104.071 69.3163 101.893C70.7328 100.826 72.219 100.942 73.7022 101.737C74.4988 102.164 74.495 102.677 73.8327 103.316C73.1356 103.989 72.4725 104.701 71.8483 105.442C71.128 106.297 70.5249 107.235 69.7321 108.048C68.6908 109.115 68.3321 110.629 67.575 111.897C67.1562 112.596 66.7876 113.306 66.1311 113.794Z" fill="#C04A16"/>
<path fill-rule="evenodd" clip-rule="evenodd" d="M99.1333 115.741C98.9676 116.306 98.8678 116.646 98.7158 117.165C98.9684 116.969 99.1225 116.91 99.1689 116.804C99.5458 115.942 100.238 116.165 100.784 116.444C101.368 116.742 101.519 117.415 101.286 117.996C100.905 118.944 100.464 119.882 99.9265 120.749C99.1846 121.945 98.3455 123.101 97.8401 124.408C97.312 125.772 96.542 127.1 96.8713 128.704C97.0271 129.461 96.3946 129.906 95.7029 129.596C95.3272 129.427 94.9892 129.446 94.6177 129.465C92.2633 129.582 91.0477 127.913 91.9622 125.665C93.2516 122.497 95.3326 119.819 97.4997 117.214C97.9139 116.716 98.1993 116.053 99.1333 115.741Z" fill="#C04A16"/>
<path fill-rule="evenodd" clip-rule="evenodd" d="M13.3097 165.22C13.2956 166.066 14.0093 166.477 14.1079 167.152C13.0649 167.294 12.4076 166.729 12.1794 165.564C11.9317 164.299 12.3272 163.134 12.9427 162.126C14.2525 159.98 15.3455 157.711 17.1751 155.858C17.8908 155.133 18.3858 153.96 19.082 153.083C21.0665 150.582 23.1379 148.15 25.1841 145.698C25.5949 145.205 26.0825 144.792 26.6449 144.471C26.9328 144.306 27.2165 144.269 27.4845 144.484C27.7724 144.716 27.7405 145.012 27.5798 145.297C27.3408 145.722 27.1262 146.17 26.8276 146.55C24.0628 150.062 21.223 153.519 18.5361 157.089C17.4894 158.481 16.6722 160.079 16.1089 161.75C15.8488 162.521 16.1275 163.368 16.2158 164.179C16.2394 164.4 16.548 164.701 16.1569 164.867C15.406 165.186 14.7768 165.501 15.4375 166.479C15.5878 166.702 15.2461 166.819 15.0084 166.825C14.5834 166.835 14.0942 166.828 14.0441 166.3C13.9985 165.815 13.7239 165.569 13.3097 165.22Z" fill="#C04A16"/>
<path fill-rule="evenodd" clip-rule="evenodd" d="M31.3134 107.531C31.0698 107.358 30.9331 107.325 30.8267 107.584C30.439 108.527 30.1159 109.51 29.6098 110.386C29.3037 110.915 29.3695 112.007 28.1973 111.688C28.0109 111.638 28.049 111.873 28.1335 112.006C28.3311 112.316 28.2085 112.544 27.9944 112.806C27.629 113.251 27.5284 113.745 27.6233 114.355C27.7993 115.483 27.0148 116.033 25.9834 115.57C25.8596 115.514 25.6396 115.326 25.6285 115.404C25.365 117.241 24.3693 114.805 23.963 115.695C23.6581 115.442 23.5148 115.119 23.48 114.72C23.4005 113.807 23.7741 113.035 24.1978 112.276C25.8033 109.403 28.1029 107.109 30.4614 104.877C31.0292 104.339 31.885 104.31 32.621 104.094C33.053 103.966 33.3077 104.324 33.4714 104.666C33.6954 105.135 33.4486 105.184 33.065 105.059C33.0141 105.9 32.464 106.483 32.0125 107.121C31.8137 107.403 31.6849 107.743 31.3134 107.531Z" fill="#C04A16"/>
<path fill-rule="evenodd" clip-rule="evenodd" d="M64.8877 61.3441C64.7949 61.2754 64.7026 61.2066 64.6102 61.1378C64.0775 61.9816 63.5399 62.822 63.0201 63.6736C62.9596 63.773 62.8412 63.9523 63.0209 64.0609C63.146 64.1362 63.3606 64.1578 63.4032 63.9996C63.6737 62.991 64.6202 62.3494 64.8877 61.3441ZM60.9623 71.5857C60.6331 72.0616 60.8679 72.8751 59.8303 72.9405C59.0802 72.9881 59.2157 72.6257 59.2152 72.2397C58.5703 72.2977 58.8284 73.0639 58.2572 73.216C58.0219 72.1792 58.4042 71.1868 58.3578 70.1906C58.3649 70.1612 58.3694 70.1289 58.3723 70.0941C59.1734 69.4065 59.3581 68.3777 59.8022 67.4938C59.9852 67.1284 60.0494 66.6927 60.2744 66.3618C62.0844 63.6989 63.5573 60.8235 65.507 58.2434C67.0349 56.2213 68.3881 54.0683 70.0201 52.1203C70.3954 51.6725 70.7271 51.1817 71.5323 50.7124C70.911 51.8374 70.438 52.6931 69.9654 53.5489C69.977 53.5149 69.9874 53.4801 69.9965 53.4441C68.751 54.4303 68.2436 55.9529 67.177 57.0894C67.5415 57.398 67.6509 57.0762 67.8261 57.0397C68.126 56.978 68.3111 57.1661 68.4271 57.4241C68.4842 57.5504 68.5981 57.7368 68.3964 57.7886C67.5017 58.0185 67.7163 58.7607 67.6902 59.3493C67.6612 60 67.3075 60.3575 66.7989 60.6483C66.0152 61.096 65.5492 61.731 65.6333 62.6791C65.4958 62.8825 65.3587 63.0862 65.2212 63.2896C64.3646 63.7096 63.1394 65.7554 63.2264 66.6198C62.7376 66.6451 62.5446 67.5712 61.8794 67.0634C61.6822 66.5158 61.5704 66.2565 61.0584 66.9383C60.4115 67.799 60.5154 68.9712 59.7351 69.7404C59.6191 69.8543 59.627 70.0225 59.786 70.1198C59.9927 70.2465 60.1845 70.1538 60.216 69.9508C60.3535 69.0735 61.0539 68.4568 61.266 67.6222C61.3558 67.2701 61.4507 66.9619 61.9109 67.0315C62.1904 68.6573 60.9387 69.7677 60.5096 71.1557C60.4529 71.3396 59.7632 70.8442 60.0134 71.4631C60.1352 71.765 60.5945 71.9149 60.9623 71.5857Z" fill="#C04A16"/>
<path fill-rule="evenodd" clip-rule="evenodd" d="M86.5817 146.677C86.3522 147.309 86.5299 147.88 86.7321 148.428C86.8385 148.716 86.9189 148.935 86.5734 149.055C86.2582 149.164 86.0644 148.943 85.9525 148.702C85.6671 148.089 85.738 147.405 85.9074 146.821C86.5531 144.59 87.7638 142.654 89.257 140.888C89.7002 140.364 90.2254 139.89 90.5725 139.309C91.2034 138.253 92.277 137.952 93.3005 137.618C93.7785 137.462 93.87 138.103 93.9682 138.448C94.0241 138.645 93.8787 139.029 93.7027 139.144C92.0015 140.256 91.7277 142.329 90.5738 143.82C90.1935 144.311 90.3679 145.307 89.8767 145.959C89.4886 146.475 89.2794 147.119 88.5579 147.364C88.1416 147.506 88.4568 148.042 88.2687 148.36C88.1722 148.524 88.113 148.72 87.9076 148.747C87.7029 148.774 87.4449 148.599 87.4818 148.468C87.7299 147.588 86.6915 147.364 86.5817 146.677Z" fill="#C04A16"/>
<path fill-rule="evenodd" clip-rule="evenodd" d="M43.7829 123.996C43.7311 124.117 43.6793 124.238 43.6284 124.358C42.1344 125.675 40.929 127.263 39.7593 128.843C38.1502 131.016 36.6951 133.312 35.2938 135.629C34.108 137.589 32.5953 139.351 31.7636 141.534C31.426 142.421 30.866 143.23 29.8885 143.835C29.6582 142.5 30.5082 141.645 30.9982 140.705C32.2888 138.226 33.9191 135.954 35.5225 133.674C38.4153 129.562 41.1328 125.31 44.738 121.745C44.9443 121.542 45.1092 121.261 45.6054 121.413C45.2815 122.492 44.246 123.059 43.7829 123.996Z" fill="#C04A16"/>
<path fill-rule="evenodd" clip-rule="evenodd" d="M87.5649 108.249C87.1213 108.574 87.644 109.452 86.9648 109.309C86.3857 109.187 86.5949 108.481 86.7403 108.033C87.6428 105.258 89.4218 103.204 91.9977 101.859C92.3879 101.655 92.9541 101.344 93.3149 101.921C93.6355 102.433 93.1397 102.744 92.8568 103.064C91.6709 104.408 90.5459 105.779 90.2498 107.631C90.1756 108.097 89.7983 108.264 89.4139 108.422C89.2797 108.477 89.1447 108.567 89.0494 108.675C88.2968 109.53 87.729 109.621 87.5649 108.249Z" fill="#C04A16"/>
<path fill-rule="evenodd" clip-rule="evenodd" d="M64.3402 58.4521C64.2159 59.8343 63.0342 60.5973 62.3918 61.6734C61.9158 62.4703 61.5277 63.3745 60.7673 64.0074C60.578 64.1648 60.5022 64.5119 60.1899 64.3363C59.9413 64.1963 59.8908 63.913 60.0586 63.6466C61.0688 62.0449 62.0513 60.4237 63.2583 58.9571C63.5432 58.6108 63.9926 58.6203 64.3725 58.4795L64.3402 58.4521Z" fill="#C04A16"/>
<path fill-rule="evenodd" clip-rule="evenodd" d="M64.3723 58.4797C64.2311 58.1736 64.0671 57.8891 64.3239 57.5399C65.779 55.5596 67.2038 53.5561 68.8905 51.7589C69.0209 51.6197 69.093 51.29 69.3879 51.4963C69.5747 51.6272 69.5283 51.8297 69.4003 51.9917C67.7514 54.0763 66.1513 56.1966 64.6536 58.3936C64.6113 58.4553 64.4473 58.4346 64.34 58.4524L64.3723 58.4797Z" fill="#C04A16"/>
<path fill-rule="evenodd" clip-rule="evenodd" d="M58.3721 70.094C58.3697 70.1288 58.3647 70.1615 58.3581 70.1909C58.1588 70.695 57.7239 71.103 57.7612 71.7052C57.7744 71.9198 57.803 72.2246 57.4762 72.1965C57.1842 72.1712 57.2236 71.8999 57.2492 71.6688C57.4783 69.6139 58.1766 67.6924 58.9549 65.8C59.0887 65.4752 59.4801 65.1265 59.8376 65.293C60.2609 65.4901 59.9411 65.9085 59.7912 66.1537C59.0452 67.3735 58.7201 68.7358 58.3721 70.094Z" fill="#C04A16"/>
<path fill-rule="evenodd" clip-rule="evenodd" d="M69.9967 53.4442C69.9876 53.4798 69.9772 53.5146 69.9652 53.5486C70.4415 53.0644 71.2703 52.921 71.3507 52.028C71.3639 51.8806 71.7392 51.3413 72.1186 51.6739C72.4794 51.9899 72.0942 52.3238 71.8854 52.5213C70.9419 53.4148 70.193 54.4242 69.7643 55.7795C69.4019 55.3561 68.8605 55.0799 69.5812 54.5658C69.9685 54.2896 69.8136 53.8021 69.9967 53.4442Z" fill="#C04A16"/>
<path fill-rule="evenodd" clip-rule="evenodd" d="M65.221 63.2894C65.3585 63.086 65.496 62.8822 65.6332 62.6788C65.7984 62.5488 65.9637 62.4191 66.1285 62.2891C66.1869 62.3292 66.2445 62.3694 66.3025 62.4096C65.9227 63.0876 65.5424 63.7653 65.1626 64.4433C65.0814 64.4168 65.0003 64.3899 64.9191 64.363C65.0197 64.0055 65.1204 63.6472 65.221 63.2894Z" fill="#C04A16"/>
<path fill-rule="evenodd" clip-rule="evenodd" d="M61.4022 71.0002C61.181 70.222 61.748 69.7054 62.0454 69.1053C62.337 68.5167 62.6767 67.9517 62.9956 67.376C63.1083 67.6688 63.0817 67.9281 62.9185 68.2147C62.3954 69.1334 61.905 70.0704 61.4022 71.0002Z" fill="#C04A16"/>
<path fill-rule="evenodd" clip-rule="evenodd" d="M127.463 14.1049C127.812 15.0414 127.382 15.2229 126.503 15.4809C124.611 16.0364 122.767 16.7894 120.959 17.59C118.498 18.6798 116.098 19.9058 113.656 21.0411C112.116 21.7569 110.935 23.0136 109.47 23.8001C108.167 24.4993 107.322 25.592 106.37 26.6167C106.22 26.7791 106.15 27.0181 105.996 27.1759C105.741 27.4372 106.119 28.2677 105.162 27.9417C104.336 27.6605 103.856 27.3295 104.039 26.415C104.306 25.0763 105.25 24.1932 106.182 23.3164C108.808 20.8477 111.915 19.0795 115.035 17.351C118.324 15.529 121.786 14.0672 125.367 12.9352C126.842 12.4693 128.322 11.9117 129.933 11.896C129.188 12.5591 128.191 12.6291 127.315 12.9638C126.34 13.337 125.329 13.6216 124.329 13.9289C124.026 14.0221 123.75 14.1091 123.726 14.4868C123.577 14.4471 123.417 14.3497 123.292 14.3829C121.049 14.9719 118.953 15.9191 116.943 17.0615C116.771 17.1597 116.897 17.3237 116.923 17.4533C116.727 17.3084 116.52 17.2152 116.291 17.3353C114.81 18.1119 113.268 18.785 111.975 19.8905C113.704 19.2385 115.13 17.9707 116.917 17.4422C119.067 16.1855 121.379 15.3011 123.719 14.4839C124.337 14.2499 124.952 14.0084 125.574 13.7843C126.109 13.5917 126.062 13.6464 126.505 14.1339C126.696 14.3435 127.142 14.2466 127.464 14.1087L127.463 14.1049Z" fill="#C04A16"/>
<path fill-rule="evenodd" clip-rule="evenodd" d="M127.464 14.1088C127.704 14.2455 127.943 14.1925 127.99 13.939C128.033 13.717 127.81 13.6586 127.598 13.7012C127.391 13.7431 127.166 13.8802 126.932 13.4846C127.782 12.9818 128.759 12.7945 129.662 12.7883C130.368 12.7833 131.065 11.9239 131.845 12.7419C131.987 12.8919 132.162 11.9761 132.778 11.9707C133.516 11.9649 134.256 11.7122 134.991 11.7296C136.223 11.759 137.4 11.3216 138.635 11.409C138.981 11.4335 139.315 11.3394 139.491 11.7288C139.594 11.9562 139.521 12.1658 139.359 12.3464C139.075 11.571 138.711 13.381 138.398 12.3099C138.263 11.8477 138.034 12.2751 137.935 12.372C137.459 12.8351 136.664 12.4114 136.213 13.029C136.124 13.1491 135.651 12.872 135.681 12.4893C135.731 11.8634 135.279 12.0162 135.011 12.109C134.524 12.2784 134.993 12.4574 135.035 12.6574C135.206 13.4742 134.424 13.4229 134.056 13.4432C133.271 13.4862 132.534 13.3736 131.857 13.9982C131.42 14.402 131.41 13.5132 130.905 13.5227C130.751 13.968 130.39 14.3349 129.848 14.5744C129.641 14.2927 130.163 13.9568 129.729 13.6569C129.028 13.8288 128.452 15.1787 127.464 14.1055C127.463 14.1051 127.464 14.1088 127.464 14.1088Z" fill="#C04A16"/>
<path fill-rule="evenodd" clip-rule="evenodd" d="M135.017 11C134.346 11.5496 133.57 11.6014 132.511 11.5269C133.395 10.7883 134.248 11.1214 135.017 11Z" fill="#C04A16"/>
</svg>
