<?xml version="1.0" encoding="UTF-8" standalone="no"?>
<svg
   xmlns:dc="http://purl.org/dc/elements/1.1/"
   xmlns:cc="http://creativecommons.org/ns#"
   xmlns:rdf="http://www.w3.org/1999/02/22-rdf-syntax-ns#"
   xmlns:svg="http://www.w3.org/2000/svg"
   xmlns="http://www.w3.org/2000/svg"
   viewBox="0 0 4000 2666.6667"
   height="2666.6667"
   width="4000"
   xml:space="preserve"
   id="svg2"
   version="1.1"><metadata
     id="metadata8"><rdf:RDF><cc:Work
         rdf:about=""><dc:format>image/svg+xml</dc:format><dc:type
           rdf:resource="http://purl.org/dc/dcmitype/StillImage" /></cc:Work></rdf:RDF></metadata><defs
     id="defs6"><clipPath
       id="clipPath60"
       clipPathUnits="userSpaceOnUse"><path
         id="path58"
         d="M 26505.3,5482 H 16303.7 v 10253.5 h 10201.6 z" /></clipPath><clipPath
       id="clipPath222"
       clipPathUnits="userSpaceOnUse"><path
         id="path220"
         d="m 9158.82,11771.1 64.52,526.9 c 65.09,531.6 507.89,941.8 1043.26,953.1 10.3,0.2 20.7,0.3 31.1,0.3 h 977 c 11.6,0 23.3,-0.1 34.9,-0.4 492.4,-11.6 831.6,-289.9 1136.5,-760 l 700.7,-1151.5 -997.5,-501 121.1,-992.9 H 9414.33 l 128.16,1444 -421.16,-425.4 z" /></clipPath><clipPath
       id="clipPath232"
       clipPathUnits="userSpaceOnUse"><path
         id="path230"
         d="m 9158.82,11771.1 64.52,526.9 c 65.09,531.6 507.89,941.8 1043.26,953.1 10.3,0.2 20.7,0.3 31.1,0.3 h 977 c 11.6,0 23.3,-0.1 34.9,-0.4 492.4,-11.6 831.6,-289.9 1136.5,-760 l 700.7,-1151.5 -997.5,-501 121.1,-992.9 H 9414.33 l 128.16,1444 -421.16,-425.4 z" /></clipPath><clipPath
       id="clipPath238"
       clipPathUnits="userSpaceOnUse"><path
         id="path236"
         d="m 10045.2,13229.6 c 0,0 47.6,-322.9 538,-337.7 490.4,-14.8 651.6,386.1 651.6,386.1 0,0 -1110.8,67.2 -1189.6,-48.4" /></clipPath><clipPath
       id="clipPath248"
       clipPathUnits="userSpaceOnUse"><path
         id="path246"
         d="m 9158.82,11771.1 64.52,526.9 c 65.09,531.6 507.89,941.8 1043.26,953.1 10.3,0.2 20.7,0.3 31.1,0.3 h 977 c 11.6,0 23.3,-0.1 34.9,-0.4 492.4,-11.6 831.6,-289.9 1136.5,-760 l 700.7,-1151.5 -997.5,-501 121.1,-992.9 H 9414.33 l 128.16,1444 -421.16,-425.4 z" /></clipPath><clipPath
       id="clipPath260"
       clipPathUnits="userSpaceOnUse"><path
         id="path258"
         d="m 11960.3,8150.6 c 0,0 499.1,783.3 186.5,1695 H 9492.14 l -696.1,-3433 -875.36,-3818.4 h 1832.94 l 547.78,3625.7 281.8,2438.7 264,-2572.8 c 23.7,-230.2 94.8,-452.9 208.9,-654.2 l 1507.6,-2609.2 1498.5,1139.3 -1479.3,1883.9 c -184.2,246.1 -308.1,532 -361.8,834.7 z" /></clipPath><clipPath
       id="clipPath274"
       clipPathUnits="userSpaceOnUse"><path
         id="path272"
         d="m 10707.2,14943.1 c 257.9,-52.2 401.2,-419.8 320.1,-821.1 l -71.5,-353.1 c -28.3,-140.2 -44,-282.7 -46.7,-425.8 l -4.9,-260.7 h -573.5 l 82.5,407.5 c -258,52.2 -401.3,419.8 -320.1,821.1 81.2,401.3 356.1,684.3 614.1,632.1 z" /></clipPath><clipPath
       id="clipPath288"
       clipPathUnits="userSpaceOnUse"><path
         id="path286"
         d="m 10574.9,15066.2 c -512.7,0 -556.8,-209.8 -560.6,-482.5 h -468.87 c -43.35,0 -78.49,-35.1 -78.49,-78.4 h 546.96 471.9 650 c 0,309.8 -18.6,560.9 -560.9,560.9 z" /></clipPath><clipPath
       id="clipPath312"
       clipPathUnits="userSpaceOnUse"><path
         id="path310"
         d="m 12157.3,10853.1 788,385.2 131.2,-440 c 0,0 213.3,-705.1 -103.3,-952.7 -322.6,-252.3 -3182.3,763.7 -3182.3,763.7 l -37.28,387.1 z" /></clipPath></defs><g
     transform="matrix(1.3333333,0,0,-1.3333333,0,2666.6667)"
     id="g10"><g
       transform="scale(0.1)"
       id="g12"><g
         transform="scale(1.84049)"
         id="g14"><path
           id="path16"
           style="fill:#ffffff;fill-opacity:1;fill-rule:nonzero;stroke:none"
           d="M 16300,0 H 0 V 10866.7 H 16300 V 0" /></g><g
         transform="scale(1.76153)"
         id="g18"><path
           id="path20"
           style="fill:#f7f7f7;fill-opacity:1;fill-rule:nonzero;stroke:none"
           d="M 1747.15,838.815 H 15884.3 c 395.7,2234.015 415.7,4582.195 -529.8,6644.615 -281,613 -653.1,1198.75 -1177.4,1622.78 -417,337.27 -918.2,561.3 -1437.7,694.69 -1369.5,351.7 -2890.54,57.48 -4030.23,-779.46 C 8093.34,8569.18 7642.2,7895.63 7046.64,7404.89 6208.96,6714.67 5526.58,6924.78 4523.73,7039.76 3559.97,7150.26 2404.86,7259.35 1541.62,6721.69 606.585,6139.33 239.548,4913.9 367.646,3819.8 495.744,2725.75 1225.49,1809.05 1747.15,838.815" /></g><g
         transform="scale(1.12071)"
         id="g22"><path
           id="path24"
           style="fill:#373660;fill-opacity:1;fill-rule:nonzero;stroke:none"
           d="m 15901.5,1318.45 h -955.3 c -220.1,0 -398.6,178.37 -398.6,398.5 V 3815.43 H 16300 V 1716.95 c 0,-220.13 -178.5,-398.5 -398.5,-398.5" /></g><g
         transform="scale(1.24688)"
         id="g26"><path
           id="path28"
           style="fill:#373660;fill-opacity:1;fill-rule:nonzero;stroke:none"
           d="m 15941.8,1185.04 h -858.6 c -197.8,0 -358.2,160.31 -358.2,358.17 v 1886.14 h 1575 V 1543.21 c 0,-197.86 -160.3,-358.17 -358.2,-358.17" /></g><g
         transform="scale(1.25544)"
         id="g30"><path
           id="path32"
           style="fill:#4f5285;fill-opacity:1;fill-rule:nonzero;stroke:none"
           d="m 16015.7,2159.57 h -2842.4 c -157,0 -284.3,127.29 -284.3,284.28 v 962.14 h 3411 v -962.14 c 0,-156.99 -127.3,-284.28 -284.3,-284.28" /></g><g
         transform="scale(1.49991)"
         id="g34"><path
           id="path36"
           style="fill:#373660;fill-opacity:1;fill-rule:nonzero;stroke:none"
           d="m 16002.2,985.124 h -713.7 c -164.5,0 -297.8,133.276 -297.8,297.756 V 2850.83 H 16300 V 1282.88 c 0,-164.48 -133.3,-297.756 -297.8,-297.756" /></g><g
         transform="scale(1.62609)"
         id="g38"><path
           id="path40"
           style="fill:#373660;fill-opacity:1;fill-rule:nonzero;stroke:none"
           d="m 16025.4,908.683 h -658.5 c -151.6,0 -274.6,122.927 -274.6,274.647 V 2629.62 H 16300 V 1183.33 c 0,-151.72 -123,-274.647 -274.6,-274.647" /></g><g
         transform="scale(1.63464)"
         id="g42"><path
           id="path44"
           style="fill:#4f5285;fill-opacity:1;fill-rule:nonzero;stroke:none"
           d="m 16081.7,1658.59 h -2183.1 c -120.6,0 -218.3,97.76 -218.3,218.34 v 738.94 H 16300 v -738.94 c 0,-120.58 -97.8,-218.34 -218.3,-218.34" /></g><g
         transform="scale(1.66472)"
         id="g46"><path
           id="path48"
           style="fill:#e8e8e8;fill-opacity:1;fill-rule:nonzero;stroke:none"
           d="M 16035.1,2568.6 H 9663.62 c -146.27,0 -264.91,118.64 -264.91,264.91 v 6763.95 c 0,146.32 118.64,264.93 264.91,264.93 h 6371.48 c 146.3,0 264.9,-118.61 264.9,-264.93 V 2833.51 c 0,-146.27 -118.6,-264.91 -264.9,-264.91" /></g><g
         transform="scale(1.62609)"
         id="g50"><path
           id="path52"
           style="fill:#b5b5b5;fill-opacity:1;fill-rule:nonzero;stroke:none"
           d="M 16300,3371.27 H 10026.3 V 9676.88 H 16300 V 3371.27" /></g><g
         id="g54"><g
           clip-path="url(#clipPath60)"
           id="g56"><g
             transform="scale(1.62613)"
             id="g62"><path
               id="path64"
               style="fill:#373660;fill-opacity:1;fill-rule:nonzero;stroke:none"
               d="m 9713.71,8461.03 h 4458.99 v -998.62 h 2434.2 V 2900.74 H 9852.01 l -138.3,5560.29" /></g></g></g><g
         transform="scale(1.08795)"
         id="g66"><path
           id="path68"
           style="fill:#fe6d60;fill-opacity:1;fill-rule:nonzero;stroke:none"
           d="m 16192.3,4268.85 h -1093.8 c -59.5,0 -107.7,48.16 -107.7,107.64 v 312.32 c 0,59.47 48.2,107.64 107.7,107.64 h 1093.8 c 59.4,0 107.7,-48.17 107.7,-107.64 v -312.32 c 0,-59.48 -48.3,-107.64 -107.7,-107.64" /></g><g
         transform="scale(1.02047)"
         id="g70"><path
           id="path72"
           style="fill:#e63e36;fill-opacity:1;fill-rule:nonzero;stroke:none"
           d="m 16272.4,4667.57 h -119.8 c -15.2,0 -27.6,12.35 -27.6,27.64 v 274.38 c 0,15.29 12.4,27.64 27.6,27.64 h 119.8 c 15.3,0 27.6,-12.35 27.6,-27.64 v -274.38 c 0,-15.29 -12.3,-27.64 -27.6,-27.64" /></g><g
         transform="scale(1.03626)"
         id="g74"><path
           id="path76"
           style="fill:#e63e36;fill-opacity:1;fill-rule:nonzero;stroke:none"
           d="m 16272.8,4596.45 h -117.9 c -15.1,0 -27.2,12.15 -27.2,27.21 v 270.2 c 0,15.05 12.1,27.21 27.2,27.21 h 117.9 c 15,0 27.2,-12.16 27.2,-27.21 v -270.2 c 0,-15.06 -12.2,-27.21 -27.2,-27.21" /></g><g
         transform="scale(1.06322)"
         id="g78"><path
           id="path80"
           style="fill:#e63e36;fill-opacity:1;fill-rule:nonzero;stroke:none"
           d="m 16273.5,4479.88 h -115.1 c -14.5,0 -26.5,11.85 -26.5,26.52 v 263.35 c 0,14.67 12,26.53 26.5,26.53 h 115.1 c 14.6,0 26.5,-11.86 26.5,-26.53 V 4506.4 c 0,-14.67 -11.9,-26.52 -26.5,-26.52" /></g><g
         transform="scale(1.07901)"
         id="g82"><path
           id="path84"
           style="fill:#e63e36;fill-opacity:1;fill-rule:nonzero;stroke:none"
           d="m 16273.9,4414.34 h -113.3 c -14.4,0 -26.1,11.68 -26.1,26.14 v 259.49 c 0,14.46 11.7,26.14 26.1,26.14 h 113.3 c 14.4,0 26.1,-11.68 26.1,-26.14 v -259.49 c 0,-14.46 -11.7,-26.14 -26.1,-26.14" /></g><g
         transform="scale(1.62609)"
         id="g86"><path
           id="path88"
           style="fill:#fe6d60;fill-opacity:1;fill-rule:nonzero;stroke:none"
           d="m 16227.9,2856.11 h -731.8 c -39.8,0 -72,32.23 -72,72.02 v 208.96 c 0,39.79 32.2,72.02 72,72.02 h 731.8 c 39.8,0 72.1,-32.23 72.1,-72.02 v -208.96 c 0,-39.79 -32.3,-72.02 -72.1,-72.02" /></g><g
         transform="scale(1.55861)"
         id="g90"><path
           id="path92"
           style="fill:#e63e36;fill-opacity:1;fill-rule:nonzero;stroke:none"
           d="m 16281.9,3056 h -78.4 c -10,0 -18.1,8.08 -18.1,18.09 v 179.65 c 0,10.01 8.1,18.09 18.1,18.09 h 78.4 c 10,0 18.1,-8.08 18.1,-18.09 v -179.65 c 0,-10.01 -8.1,-18.09 -18.1,-18.09" /></g><g
         transform="scale(1.5744)"
         id="g94"><path
           id="path96"
           style="fill:#e63e36;fill-opacity:1;fill-rule:nonzero;stroke:none"
           d="m 16282.1,3025.35 h -77.6 c -9.9,0 -17.9,8 -17.9,17.91 v 177.84 c 0,9.91 8,17.91 17.9,17.91 h 77.6 c 9.9,0 17.9,-8 17.9,-17.91 v -177.84 c 0,-9.91 -8,-17.91 -17.9,-17.91" /></g><g
         transform="scale(1.60136)"
         id="g98"><path
           id="path100"
           style="fill:#e63e36;fill-opacity:1;fill-rule:nonzero;stroke:none"
           d="m 16282.4,2974.42 h -76.3 c -9.8,0 -17.6,7.86 -17.6,17.61 v 174.85 c 0,9.74 7.8,17.61 17.6,17.61 h 76.3 c 9.7,0 17.6,-7.87 17.6,-17.61 v -174.85 c 0,-9.75 -7.9,-17.61 -17.6,-17.61" /></g><g
         transform="scale(1.61715)"
         id="g102"><path
           id="path104"
           style="fill:#e63e36;fill-opacity:1;fill-rule:nonzero;stroke:none"
           d="m 16282.6,2945.37 h -75.6 c -9.6,0 -17.4,7.79 -17.4,17.44 v 173.14 c 0,9.65 7.8,17.44 17.4,17.44 h 75.6 c 9.6,0 17.4,-7.79 17.4,-17.44 v -173.14 c 0,-9.65 -7.8,-17.44 -17.4,-17.44" /></g><g
         transform="scale(1.39252)"
         id="g106"><path
           id="path108"
           style="fill:#e8e8e8;fill-opacity:1;fill-rule:nonzero;stroke:none"
           d="M 16300,3936.76 H 12138.5 V 6751.09 H 16300 V 3936.76" /></g><g
         transform="scale(1.1755)"
         id="g110"><path
           id="path112"
           style="fill:#ffffff;fill-opacity:1;fill-rule:nonzero;stroke:none"
           d="m 16300,7314.69 h -417.1 v 682.78 h 417.1 v -682.78" /></g><g
         transform="scale(1.39252)"
         id="g114"><path
           id="path116"
           style="fill:#d1d1d1;fill-opacity:1;fill-rule:nonzero;stroke:none"
           d="M 16300,3936.76 H 14973.2 V 6751.09 H 16300 V 3936.76" /></g><g
         transform="scale(1.35088)"
         id="g118"><path
           id="path120"
           style="fill:#ffffff;fill-opacity:1;fill-rule:nonzero;stroke:none"
           d="m 16300,6365.05 h -362.9 v 594.13 h 362.9 v -594.13" /></g><g
         transform="scale(1.34155)"
         id="g122"><path
           id="path124"
           style="fill:#e8e8e8;fill-opacity:1;fill-rule:nonzero;stroke:none"
           d="M 16300,7007.59 H 12851.7 V 9339.53 H 16300 V 7007.59" /></g><g
         transform="scale(1.16831)"
         id="g126"><path
           id="path128"
           style="fill:#ffffff;fill-opacity:1;fill-rule:nonzero;stroke:none"
           d="m 16300,10176 h -335 v 548.4 h 335 V 10176" /></g><g
         transform="scale(1.34155)"
         id="g130"><path
           id="path132"
           style="fill:#d1d1d1;fill-opacity:1;fill-rule:nonzero;stroke:none"
           d="M 16300,7007.59 H 15200.6 V 9339.53 H 16300 V 7007.59" /></g><g
         transform="scale(1.30831)"
         id="g134"><path
           id="path136"
           style="fill:#ffffff;fill-opacity:1;fill-rule:nonzero;stroke:none"
           d="m 16300,9087.07 h -299.2 v 489.7 h 299.2 v -489.7" /></g><g
         transform="scale(1.49283)"
         id="g138"><path
           id="path140"
           style="fill:#e8e8e8;fill-opacity:1;fill-rule:nonzero;stroke:none"
           d="m 16300,5150.16 h -1320.2 v 892.8 H 16300 v -892.8" /></g><g
         transform="scale(1.41902)"
         id="g142"><path
           id="path144"
           style="fill:#ffffff;fill-opacity:1;fill-rule:nonzero;stroke:none"
           d="m 16300,6164.94 h -117.5 v 192.32 h 117.5 v -192.32" /></g><g
         transform="scale(1.49283)"
         id="g146"><path
           id="path148"
           style="fill:#d1d1d1;fill-opacity:1;fill-rule:nonzero;stroke:none"
           d="m 16300,5150.16 h -420.9 v 892.8 h 420.9 v -892.8" /></g><g
         transform="scale(1.47867)"
         id="g150"><path
           id="path152"
           style="fill:#ffffff;fill-opacity:1;fill-rule:nonzero;stroke:none"
           d="m 16300,5916.27 h -112.7 v 184.56 h 112.7 v -184.56" /></g><g
         transform="scale(1.56171)"
         id="g154"><path
           id="path156"
           style="fill:#e8e8e8;fill-opacity:1;fill-rule:nonzero;stroke:none"
           d="M 16300,3510.26 H 14210.9 V 4923.02 H 16300 V 3510.26" /></g><g
         transform="scale(1.43953)"
         id="g158"><path
           id="path160"
           style="fill:#ffffff;fill-opacity:1;fill-rule:nonzero;stroke:none"
           d="m 16300,5027 h -191.7 v 313.85 H 16300 V 5027" /></g><g
         transform="scale(1.56171)"
         id="g162"><path
           id="path164"
           style="fill:#d1d1d1;fill-opacity:1;fill-rule:nonzero;stroke:none"
           d="m 16300,3510.26 h -666.1 V 4923.02 H 16300 V 3510.26" /></g><g
         transform="scale(1.53826)"
         id="g166"><path
           id="path168"
           style="fill:#ffffff;fill-opacity:1;fill-rule:nonzero;stroke:none"
           d="m 16300,4704.33 h -179.4 v 293.71 h 179.4 v -293.71" /></g><g
         transform="scale(1.27917)"
         id="g170"><path
           id="path172"
           style="fill:#b5b5b5;fill-opacity:1;fill-rule:nonzero;stroke:none"
           d="m 16300,7341.27 h -2821.5 v 16.02 H 16300 v -16.02" /></g><g
         transform="scale(1.45428)"
         id="g174"><path
           id="path176"
           style="fill:#b5b5b5;fill-opacity:1;fill-rule:nonzero;stroke:none"
           d="m 16300,5279.65 h -923.1 v 14.1 h 923.1 v -14.1" /></g><g
         transform="scale(1.62703)"
         id="g178"><path
           id="path180"
           style="fill:#b5b5b5;fill-opacity:1;fill-rule:nonzero;stroke:none"
           d="m 16290.6,3359.86 h -6270.1 c -5.2,0 -9.4,4.24 -9.4,9.47 0,5.22 4.2,9.46 9.4,9.46 h 6270.1 c 5.2,0 9.4,-4.24 9.4,-9.46 0,-5.23 -4.2,-9.47 -9.4,-9.47" /></g><g
         transform="scale(1.01014)"
         id="g182"><path
           id="path184"
           style="fill:#fe6d60;fill-opacity:1;fill-rule:nonzero;stroke:none"
           d="m 9007.34,15512.8 c 0,434.8 -352.43,787.2 -787.17,787.2 -434.73,0 -787.15,-352.4 -787.15,-787.2 v 0 c 0,-306.7 52.6,-478.9 353.22,-925.6 217.62,-323.4 347.56,-796.1 402.73,-1032.5 7.7,-33 54.71,-33 62.42,0 55.17,236.4 185.11,709.1 402.72,1032.5 300.6,446.7 353.22,618.9 353.23,925.6 0,0 0,0 0,0" /></g><path
         id="path186"
         style="fill:#e63e36;fill-opacity:1;fill-rule:nonzero;stroke:none"
         d="m 8666.03,15651.5 c 0,-200.2 -162.29,-362.5 -362.49,-362.5 -200.19,0 -362.48,162.3 -362.48,362.5 0,200.2 162.29,362.5 362.48,362.5 200.2,0 362.49,-162.3 362.49,-362.5" /><path
         id="path188"
         style="fill:#ffc967;fill-opacity:1;fill-rule:nonzero;stroke:none"
         d="m 8470.53,2594.2 -73.81,-212.8 -910.76,-360.5 c -154.62,-61.2 -256.18,-210.7 -256.18,-377 v 0 H 9434 l -6.32,950.3 h -957.15" /><path
         id="path190"
         style="fill:#373660;fill-opacity:1;fill-rule:nonzero;stroke:none"
         d="m 8753.68,2066.7 c 0,-101.3 82.08,-183.4 183.34,-183.4 101.25,0 183.33,82.1 183.33,183.4 0,101.2 -82.08,183.3 -183.33,183.3 -101.26,0 -183.34,-82.1 -183.34,-183.3" /><path
         id="path192"
         style="fill:#373660;fill-opacity:1;fill-rule:nonzero;stroke:none"
         d="m 8286.98,2337.9 74.36,-150.3 c 16.37,-33.1 1.76,-73.2 -32.06,-88 v 0 c -30.86,-13.5 -66.91,-1 -82.87,28.6 l -85.85,159.7 126.42,50" /><path
         id="path194"
         style="fill:#373660;fill-opacity:1;fill-rule:nonzero;stroke:none"
         d="m 8064.69,2249.5 74.36,-150.3 c 16.37,-33.1 1.76,-73.2 -32.06,-88 v 0 c -30.86,-13.5 -66.91,-1 -82.86,28.7 l -85.86,159.6 126.42,50" /><path
         id="path196"
         style="fill:#373660;fill-opacity:1;fill-rule:nonzero;stroke:none"
         d="m 7813.38,2150.2 74.37,-150.4 c 16.36,-33.1 1.76,-73.1 -32.07,-87.9 v 0 c -30.86,-13.5 -66.91,-1 -82.86,28.6 l -85.86,159.7 126.42,50" /><path
         id="path198"
         style="fill:#373660;fill-opacity:1;fill-rule:nonzero;stroke:none"
         d="M 9434,1643.9 V 1480.3 H 7229.78 v 163.6 H 9434" /><path
         id="path200"
         style="fill:#ffc967;fill-opacity:1;fill-rule:nonzero;stroke:none"
         d="m 12906.8,3083.3 125,-255.3 -453.6,-868.2 c -77,-147.4 -56.2,-326.9 52.5,-452.7 v 0 l 1668.1,1440.9 -622.3,720.4 -769.7,-585.1" /><path
         id="path202"
         style="fill:#373660;fill-opacity:1;fill-rule:nonzero;stroke:none"
         d="m 13507.6,2823.2 c 66.2,-76.7 182,-85.1 258.6,-18.9 76.6,66.2 85.1,181.9 18.9,258.6 -66.2,76.6 -182,85 -258.6,18.8 -76.6,-66.1 -85.1,-181.9 -18.9,-258.5" /><path
         id="path204"
         style="fill:#373660;fill-opacity:1;fill-rule:nonzero;stroke:none"
         d="m 12977.1,2723.4 154.6,-65.2 c 34,-14.4 49.1,-54.2 33.2,-87.5 v 0 c -14.5,-30.4 -50,-44.5 -81.4,-32.5 l -169.4,64.7 63,120.5" /><path
         id="path206"
         style="fill:#373660;fill-opacity:1;fill-rule:nonzero;stroke:none"
         d="m 12866.7,2511.2 154.5,-65.2 c 34.1,-14.4 49.2,-54.2 33.2,-87.5 v 0 c -14.5,-30.4 -49.9,-44.5 -81.4,-32.5 l -169.3,64.7 63,120.5" /><path
         id="path208"
         style="fill:#373660;fill-opacity:1;fill-rule:nonzero;stroke:none"
         d="m 12741.4,2271.7 154.6,-65.2 c 34,-14.3 49.1,-54.2 33.2,-87.5 v 0 c -14.5,-30.3 -50,-44.5 -81.4,-32.5 l -169.3,64.7 62.9,120.5" /><path
         id="path210"
         style="fill:#373660;fill-opacity:1;fill-rule:nonzero;stroke:none"
         d="m 14298.8,2948 106.9,-123.8 -1560.6,-1348.1 c -59.4,-51.3 -149,-44.7 -200.2,14.6 l -14.2,16.4 1668.1,1440.9" /><path
         id="path212"
         style="fill:#ffb2a0;fill-opacity:1;fill-rule:nonzero;stroke:none"
         d="m 7665.62,10837.2 1788.39,-544.5 61.23,599.6 z" /><path
         id="path214"
         style="fill:#ffc967;fill-opacity:1;fill-rule:nonzero;stroke:none"
         d="m 9158.82,11771.1 64.52,526.9 c 65.09,531.6 507.89,941.8 1043.26,953.1 10.3,0.2 20.7,0.3 31.1,0.3 h 977 c 11.6,0 23.3,-0.1 34.9,-0.4 492.4,-11.6 831.6,-289.9 1136.5,-760 l 700.7,-1151.5 -997.5,-501 121.1,-992.9 H 9414.33 l 128.16,1444 -421.16,-425.4 37.49,906.9" /><g
         id="g216"><g
           clip-path="url(#clipPath222)"
           id="g218"><path
             id="path224"
             style="fill:#ffd1c1;fill-opacity:1;fill-rule:nonzero;stroke:none"
             d="m 10045.2,13229.6 c 0,0 47.6,-322.9 538,-337.7 490.4,-14.8 651.6,386.1 651.6,386.1 0,0 -1110.8,67.2 -1189.6,-48.4" /></g></g><g
         id="g226"><g
           clip-path="url(#clipPath232)"
           id="g228"><g
             clip-path="url(#clipPath238)"
             id="g234"><path
               id="path240"
               style="fill:#ffb2a0;fill-opacity:1;fill-rule:nonzero;stroke:none"
               d="m 10125,13263.1 c 0,0 51.9,-324.1 526.9,-385.4 0,0 -427.7,-110.8 -661.64,361.8 l 134.74,23.6" /></g></g></g><g
         id="g242"><g
           clip-path="url(#clipPath248)"
           id="g244"><path
             id="path250"
             style="fill:#ffa648;fill-opacity:1;fill-rule:nonzero;stroke:none"
             d="m 10251.3,9805.4 102,222.2 c 147.5,321.4 468.8,527.5 822.5,527.5 h 534.1 l -201,1346.2 740.8,-1002.4 220.2,-1133.3 -2218.6,39.8" /></g></g><path
         id="path252"
         style="fill:#373660;fill-opacity:1;fill-rule:nonzero;stroke:none"
         d="m 11960.3,8150.6 c 0,0 499.1,783.3 186.5,1695 H 9492.14 l -696.1,-3433 -875.36,-3818.4 h 1832.94 l 547.78,3625.7 281.8,2438.7 264,-2572.8 c 23.7,-230.2 94.8,-452.9 208.9,-654.2 l 1507.6,-2609.2 1498.5,1139.3 -1479.3,1883.9 c -184.2,246.1 -308.1,532 -361.8,834.7 l -260.8,1470.3" /><g
         id="g254"><g
           clip-path="url(#clipPath260)"
           id="g256"><path
             id="path262"
             style="fill:#4f5285;fill-opacity:1;fill-rule:nonzero;stroke:none"
             d="m 9170.67,6281.1 c -57.45,-304.4 -253.93,-522.9 -438.86,-488 -184.93,34.8 -288.27,309.9 -230.82,614.4 57.45,304.4 253.93,523 438.86,488.1 184.93,-34.9 288.27,-310 230.82,-614.5" /><path
             id="path264"
             style="fill:#4f5285;fill-opacity:1;fill-rule:nonzero;stroke:none"
             d="m 11561.6,6160.2 c 86.9,-296 89.8,-509.9 -75.2,-558.3 -165.1,-48.4 -378.5,63.8 -465.3,359.8 -86.8,296 -14.2,663.6 150.9,712.1 165,48.4 302.8,-217.6 389.6,-513.6" /></g></g><path
         id="path266"
         style="fill:#ffd1c1;fill-opacity:1;fill-rule:nonzero;stroke:none"
         d="m 10707.2,14943.1 c 257.9,-52.2 401.2,-419.8 320.1,-821.1 l -71.5,-353.1 c -28.3,-140.2 -44,-282.7 -46.7,-425.8 l -4.9,-260.7 h -573.5 l 82.5,407.5 c -258,52.2 -401.3,419.8 -320.1,821.1 81.2,401.3 356.1,684.3 614.1,632.1" /><g
         id="g268"><g
           clip-path="url(#clipPath274)"
           id="g270"><path
             id="path276"
             style="fill:#ffb2a0;fill-opacity:1;fill-rule:nonzero;stroke:none"
             d="m 10666.3,14521.9 c 0,-6.2 43.1,-172.2 -135.3,-237.8 -178.3,-65.6 -492,-71.8 -492,-71.8 0,0 6.2,307.5 80,342.4 73.8,34.8 547.3,-32.8 547.3,-32.8" /></g></g><path
         id="path278"
         style="fill:#ffb2a0;fill-opacity:1;fill-rule:nonzero;stroke:none"
         d="m 10413.2,13489.9 c 0,0 192,-9.6 358.6,214.4 0,0 -107.8,-338.2 -377.2,-306.4 l 18.6,92" /><path
         id="path280"
         style="fill:#ffc967;fill-opacity:1;fill-rule:nonzero;stroke:none"
         d="m 10574.9,15066.2 c -512.7,0 -556.8,-209.8 -560.6,-482.5 h -468.87 c -43.35,0 -78.49,-35.1 -78.49,-78.4 h 546.96 471.9 650 c 0,309.8 -18.6,560.9 -560.9,560.9" /><g
         id="g282"><g
           clip-path="url(#clipPath288)"
           id="g284"><path
             id="path290"
             style="fill:#ffa648;fill-opacity:1;fill-rule:nonzero;stroke:none"
             d="m 10270.4,15066.2 c 0,0 -73.8,-290.4 235.3,-405.7 309,-115.3 696.4,-83.1 696.4,-83.1 v -110.7 H 9347.95 v 120 l 599.61,50.7 117.94,364.4 204.9,64.4" /></g></g><path
         id="path292"
         style="fill:#4f5285;fill-opacity:1;fill-rule:nonzero;stroke:none"
         d="m 10617.5,14505.3 19.3,-120.3 c 11.4,-71.7 55.6,-134 119.4,-168.5 l 91,-49.1 c 0,0 -13,114.3 77.9,116.9 90.9,2.6 72.7,-252 -26,-257.2 l 47.3,-307.8 c 0,0 183.7,419.5 189.4,585.7 6.2,177.7 0,200.3 0,200.3 h -518.3" /><path
         id="path294"
         style="fill:#4f5285;fill-opacity:1;fill-rule:nonzero;stroke:none"
         d="m 9998.48,14505.3 -12.31,-48.1 c -24.68,-96.4 -19.92,-197.9 13.67,-291.5 l 81.86,-228.1 c 0,0 -39.9,278.2 78.7,567.7 h -161.92" /><path
         id="path296"
         style="fill:#4f5285;fill-opacity:1;fill-rule:nonzero;stroke:none"
         d="M 10688.1,10837.2 H 8084.34 v 2486.4 h 2603.76 v -2486.4" /><path
         id="path298"
         style="fill:#373660;fill-opacity:1;fill-rule:nonzero;stroke:none"
         d="m 6690.62,10837.2 h 1393.72 v 2486.4 H 6690.62 v -2486.4" /><path
         id="path300"
         style="fill:#ffffff;fill-opacity:1;fill-rule:nonzero;stroke:none"
         d="m 7508.4,12857.2 h -308.27 v 466.4 h 308.27 v -466.4" /><path
         id="path302"
         style="fill:#ffffff;fill-opacity:1;fill-rule:nonzero;stroke:none"
         d="m 9588.69,12857.2 h -389.82 v 466.4 h 389.82 v -466.4" /><path
         id="path304"
         style="fill:#ffd1c1;fill-opacity:1;fill-rule:nonzero;stroke:none"
         d="m 12157.3,10853.1 788,385.2 131.2,-440 c 0,0 213.3,-705.1 -103.3,-952.7 -322.6,-252.3 -3182.3,763.7 -3182.3,763.7 l -37.28,387.1 2403.68,-143.3" /><g
         id="g306"><g
           clip-path="url(#clipPath312)"
           id="g308"><path
             id="path314"
             style="fill:#ffb2a0;fill-opacity:1;fill-rule:nonzero;stroke:none"
             d="m 12157.3,10853.1 989.5,-74.2 -243.9,709.2 -745.6,-635" /></g></g><path
         id="path316"
         style="fill:#ffd1c1;fill-opacity:1;fill-rule:nonzero;stroke:none"
         d="m 9944.16,10971 c 0,0 -284.56,404.2 -311.78,336.5 -27.23,-67.7 39.64,-92.4 29.19,-170.7 -17.37,-130.3 -667.08,209.3 -688.3,164.3 -21.22,-44.9 77.36,-572 183.57,-628.7 271.24,-144.6 857.06,-114.7 857.06,-114.7 l -69.74,413.3" /><path
         id="path318"
         style="fill:#ffc967;fill-opacity:1;fill-rule:nonzero;stroke:none"
         d="m 2803.8,1477.6 c 0,0 -1448.26,1783.1 -1105.53,3396 0,0 1041.74,-1633.9 1105.53,-2359.3 0,0 -460.39,2270.4 587.97,3786.6 0,0 60.49,-2972.3 80.65,-3691.7 0,0 604.82,4187.9 987.87,4627.3 0,0 60.49,-3766.7 -120.96,-4627.3 0,0 624.98,1780.5 1209.65,2566.8 0,0 -342.74,-2450.1 -806.43,-3074.3 0,0 846.75,1058.2 1270.12,1400.9 0,0 -806.43,-1832.3 -1471.73,-2025 H 2803.8" /><path
         id="path320"
         style="fill:#ffa648;fill-opacity:1;fill-rule:nonzero;stroke:none"
         d="m 1834.18,4357 c 0,0 456.14,-1378.7 988.12,-2207 0,0 -876.82,1979.6 -988.12,2207" /><path
         id="path322"
         style="fill:#ffa648;fill-opacity:1;fill-rule:nonzero;stroke:none"
         d="m 3162.68,5472.5 c 0,0 -162.34,-2143.2 67.65,-3134.8 l -67.65,3134.8" /><path
         id="path324"
         style="fill:#ffa648;fill-opacity:1;fill-rule:nonzero;stroke:none"
         d="M 4217.93,5878.3 3891.1,2684.4 c 0,0 373.03,2001.6 326.83,3193.9" /><path
         id="path326"
         style="fill:#ffa648;fill-opacity:1;fill-rule:nonzero;stroke:none"
         d="M 5165.66,4110.6 4603.13,2461 c 0,0 471.3,859 562.53,1649.6" /><path
         id="path328"
         style="fill:#ffa648;fill-opacity:1;fill-rule:nonzero;stroke:none"
         d="M 5568.87,2875.2 4884.39,1963 c 0,0 470.59,496.4 684.48,912.2" /><g
         transform="scale(1.01304)"
         id="g330"><path
           id="path332"
           style="fill:#e8e8e8;fill-opacity:1;fill-rule:nonzero;stroke:none"
           d="m 14141.3,16300 h -2443 c -105.1,0 -190.4,-85.2 -190.4,-190.3 v -1069.4 c 0,-105.1 85.3,-190.4 190.4,-190.4 h 123.9 l -135.4,-461.1 c -22.2,-75.8 67.9,-134 127.7,-82.4 l 631.9,543.5 h 1694.9 c 105.1,0 190.4,85.3 190.4,190.4 v 1069.4 c 0,105.1 -85.3,190.3 -190.4,190.3" /></g><path
         id="path334"
         style="fill:#ffffff;fill-opacity:1;fill-rule:nonzero;stroke:none"
         d="m 14251.5,16049.9 h -2254.8 c -7.8,0 -14.2,6.3 -14.2,14.2 v 180.9 c 0,7.9 6.4,14.3 14.2,14.3 h 2254.8 c 7.8,0 14.2,-6.4 14.2,-14.3 v -180.9 c 0,-7.9 -6.4,-14.2 -14.2,-14.2" /><path
         id="path336"
         style="fill:#ffffff;fill-opacity:1;fill-rule:nonzero;stroke:none"
         d="m 14251.5,15693.7 h -2254.8 c -7.8,0 -14.2,6.4 -14.2,14.3 v 180.9 c 0,7.9 6.4,14.2 14.2,14.2 h 2254.8 c 7.8,0 14.2,-6.3 14.2,-14.2 V 15708 c 0,-7.9 -6.4,-14.3 -14.2,-14.3" /><path
         id="path338"
         style="fill:#ffffff;fill-opacity:1;fill-rule:nonzero;stroke:none"
         d="m 13759.7,15337.6 h -1764.6 c -7,0 -12.6,5.6 -12.6,12.6 v 184.2 c 0,6.9 5.6,12.6 12.6,12.6 h 1764.6 c 6.9,0 12.6,-5.7 12.6,-12.6 v -184.2 c 0,-7 -5.7,-12.6 -12.6,-12.6" /><g
         transform="scale(1.03279)"
         id="g340"><path
           id="path342"
           style="fill:#fe6d60;fill-opacity:1;fill-rule:nonzero;stroke:none"
           d="m 11748.1,15953.6 c 0,-191.2 -155,-346.3 -346.3,-346.3 -191.2,0 -346.4,155.1 -346.4,346.3 0,191.3 155.2,346.4 346.4,346.4 191.3,0 346.3,-155.1 346.3,-346.4" /></g><g
         transform="scale(1.02043)"
         id="g344"><path
           id="path346"
           style="fill:#ffffff;fill-opacity:1;fill-rule:nonzero;stroke:none"
           d="m 11445.1,16204.9 v 41 c 18.9,0.8 32.2,2.1 39.7,3.8 12.1,2.7 22,8 29.5,16.1 5.2,5.5 9.1,12.8 11.9,21.9 1.5,5.5 2.2,9.6 2.2,12.3 h 50.4 v -306.4 h -61.7 v 211.3 h -72" /></g><g
         transform="scale(1.7926)"
         id="g348"><path
           id="path350"
           style="fill:#373660;fill-opacity:1;fill-rule:nonzero;stroke:none"
           d="M 16300,808.937 H 1023.19 v 30.682 H 16300 v -30.682" /></g></g></g></svg>